<svg width="40" height="40" viewBox="0 0 40 40" fill="none" xmlns="http://www.w3.org/2000/svg">
<g clip-path="url(#clip0_493_7972)">
<path d="M37.5783 0.607056H2.76597C1.57357 0.607056 0.606934 1.57369 0.606934 2.76609V37.5785C0.606934 38.7709 1.57357 39.7375 2.76597 39.7375H37.5783C38.7707 39.7375 39.7374 38.7709 39.7374 37.5785V2.76609C39.7374 1.57369 38.7707 0.607056 37.5783 0.607056Z" fill="#3D5A98"/>
<path d="M25.568 36.7843V22.7738H30.2698L30.9729 17.3139H25.568V13.8288C25.568 12.2483 26.0082 11.1692 28.2735 11.1692H31.1655V6.27788C29.7651 6.13193 28.3578 6.06254 26.9498 6.07C22.7861 6.07 19.9186 8.60737 19.9186 13.2877V17.3139H15.2168V22.7738H19.9186V36.7843H25.568Z" fill="white"/>
</g>
<defs>
<clipPath id="clip0_493_7972">
<rect width="40" height="40" fill="white"/>
</clipPath>
</defs>
</svg>
