<svg width="36" height="76" viewBox="0 0 36 76" fill="none" xmlns="http://www.w3.org/2000/svg">
<g filter="url(#filter0_d_341_2796)">
<path d="M6 2H30V66L18 55.76L6 66V2Z" fill="white"/>
<path d="M6 1C5.44772 1 5 1.44772 5 2V66C5 66.3901 5.22688 66.7446 5.58114 66.9081C5.9354 67.0715 6.35235 67.0139 6.64912 66.7607L18 57.0746L29.3509 66.7607C29.6476 67.0139 30.0646 67.0715 30.4189 66.9081C30.7731 66.7446 31 66.3901 31 66V2C31 1.44772 30.5523 1 30 1H6Z" stroke="#46872F" stroke-width="2" stroke-linejoin="round"/>
</g>
<path fill-rule="evenodd" clip-rule="evenodd" d="M10.125 10.7812C10.125 10.0042 10.755 9.375 11.5313 9.375H24.4688C25.245 9.375 25.875 10.005 25.875 10.7812V13.0508C25.8751 13.1496 25.8491 13.2466 25.7997 13.3322C25.7504 13.4178 25.6793 13.4888 25.5938 13.5382C25.3369 13.6862 25.1235 13.8992 24.9751 14.1558C24.8268 14.4124 24.7487 14.7036 24.7487 15C24.7487 15.2964 24.8268 15.5876 24.9751 15.8442C25.1235 16.1008 25.3369 16.3138 25.5938 16.4618C25.6793 16.5112 25.7504 16.5822 25.7997 16.6678C25.8491 16.7534 25.8751 16.8504 25.875 16.9493V19.2188C25.875 19.995 25.245 20.625 24.4688 20.625H11.5313C11.1583 20.625 10.8006 20.4768 10.5369 20.2131C10.2732 19.9494 10.125 19.5917 10.125 19.2188V16.9493C10.1249 16.8505 10.1507 16.7535 10.1999 16.6679C10.2492 16.5824 10.3201 16.5112 10.4055 16.4618C10.6624 16.3138 10.8757 16.1008 11.0241 15.8442C11.1725 15.5876 11.2506 15.2964 11.2506 15C11.2506 14.7036 11.1725 14.4124 11.0241 14.1558C10.8757 13.8992 10.6624 13.6862 10.4055 13.5382C10.3201 13.4888 10.2492 13.4176 10.1999 13.3321C10.1507 13.2465 10.1249 13.1495 10.125 13.0508V10.7812ZM21.375 9.9375C21.5242 9.9375 21.6673 9.99676 21.7727 10.1023C21.8782 10.2077 21.9375 10.3508 21.9375 10.5V11.0625C21.9375 11.2117 21.8782 11.3548 21.7727 11.4602C21.6673 11.5657 21.5242 11.625 21.375 11.625C21.2258 11.625 21.0827 11.5657 20.9773 11.4602C20.8718 11.3548 20.8125 11.2117 20.8125 11.0625V10.5C20.8125 10.3508 20.8718 10.2077 20.9773 10.1023C21.0827 9.99676 21.2258 9.9375 21.375 9.9375ZM21.9375 13.3125C21.9375 13.1633 21.8782 13.0202 21.7727 12.9148C21.6673 12.8093 21.5242 12.75 21.375 12.75C21.2258 12.75 21.0827 12.8093 20.9773 12.9148C20.8718 13.0202 20.8125 13.1633 20.8125 13.3125V13.875C20.8125 14.0242 20.8718 14.1673 20.9773 14.2727C21.0827 14.3782 21.2258 14.4375 21.375 14.4375C21.5242 14.4375 21.6673 14.3782 21.7727 14.2727C21.8782 14.1673 21.9375 14.0242 21.9375 13.875V13.3125ZM21.375 15.5625C21.5242 15.5625 21.6673 15.6218 21.7727 15.7273C21.8782 15.8327 21.9375 15.9758 21.9375 16.125V16.6875C21.9375 16.8367 21.8782 16.9798 21.7727 17.0852C21.6673 17.1907 21.5242 17.25 21.375 17.25C21.2258 17.25 21.0827 17.1907 20.9773 17.0852C20.8718 16.9798 20.8125 16.8367 20.8125 16.6875V16.125C20.8125 15.9758 20.8718 15.8327 20.9773 15.7273C21.0827 15.6218 21.2258 15.5625 21.375 15.5625ZM21.9375 18.9375C21.9375 18.7883 21.8782 18.6452 21.7727 18.5398C21.6673 18.4343 21.5242 18.375 21.375 18.375C21.2258 18.375 21.0827 18.4343 20.9773 18.5398C20.8718 18.6452 20.8125 18.7883 20.8125 18.9375V19.5C20.8125 19.6492 20.8718 19.7923 20.9773 19.8977C21.0827 20.0032 21.2258 20.0625 21.375 20.0625C21.5242 20.0625 21.6673 20.0032 21.7727 19.8977C21.8782 19.7923 21.9375 19.6492 21.9375 19.5V18.9375ZM13.5 15C13.5 14.8508 13.5593 14.7077 13.6648 14.6023C13.7702 14.4968 13.9133 14.4375 14.0625 14.4375H18C18.1492 14.4375 18.2923 14.4968 18.3977 14.6023C18.5032 14.7077 18.5625 14.8508 18.5625 15C18.5625 15.1492 18.5032 15.2923 18.3977 15.3977C18.2923 15.5032 18.1492 15.5625 18 15.5625H14.0625C13.9133 15.5625 13.7702 15.5032 13.6648 15.3977C13.5593 15.2923 13.5 15.1492 13.5 15ZM14.0625 16.6875C13.9133 16.6875 13.7702 16.7468 13.6648 16.8523C13.5593 16.9577 13.5 17.1008 13.5 17.25C13.5 17.3992 13.5593 17.5423 13.6648 17.6477C13.7702 17.7532 13.9133 17.8125 14.0625 17.8125H16.3125C16.4617 17.8125 16.6048 17.7532 16.7102 17.6477C16.8157 17.5423 16.875 17.3992 16.875 17.25C16.875 17.1008 16.8157 16.9577 16.7102 16.8523C16.6048 16.7468 16.4617 16.6875 16.3125 16.6875H14.0625Z" fill="#46872F"/>
<path d="M16.99 32.79C16.88 32.98 16.74 33.25 16.66 33.5C16.39 34.4 15.82 35.73 14.91 36.84C13.96 38 12.76 38.92 10.88 39.66L9.7 38.61C11.74 37.99 12.85 37.12 13.73 36.13C14.41 35.35 14.99 34.15 15.15 33.41H11.78L12.24 32.27C12.68 32.27 14.78 32.27 15.09 32.27C15.4 32.27 15.74 32.23 15.96 32.15L16.99 32.79ZM13.73 31.2C13.49 31.55 13.23 32.01 13.12 32.22C12.44 33.43 11.25 34.84 9.81 35.82L8.69 34.99C10.44 33.92 11.32 32.63 11.81 31.77C11.96 31.53 12.17 31.07 12.26 30.72L13.73 31.2ZM18.91 34.37C19.28 34.4 20 34.44 20.52 34.44C21.7 34.44 25 34.44 25.89 34.44C26.36 34.44 26.8 34.39 27.07 34.37V35.95C26.83 35.94 26.32 35.89 25.9 35.89C24.99 35.89 21.7 35.89 20.52 35.89C19.96 35.89 19.29 35.92 18.91 35.95V34.37ZM15.75 45.51C15.75 45.81 15.99 46.05 16.29 46.05C16.59 46.05 16.84 45.81 16.84 45.51C16.84 45.21 16.59 44.96 16.29 44.96C15.99 44.96 15.75 45.21 15.75 45.51ZM15.14 45.51C15.14 44.87 15.65 44.35 16.29 44.35C16.93 44.35 17.45 44.87 17.45 45.51C17.45 46.15 16.93 46.66 16.29 46.66C15.65 46.66 15.14 46.15 15.14 45.51ZM13.76 45.11C13.73 45.25 13.67 45.74 13.67 45.99C13.67 46.58 13.67 47.43 13.67 48.01C13.67 48.82 13.67 51.8 13.67 52.64C13.67 53.22 13.33 53.58 12.62 53.58C12.09 53.58 11.5 53.56 11 53.5L10.88 52.26C11.3 52.34 11.74 52.37 11.99 52.37C12.25 52.37 12.34 52.28 12.35 52.02C12.36 51.64 12.36 48.48 12.36 48.01C12.36 47.66 12.36 46.59 12.36 45.98C12.36 45.72 12.31 45.29 12.28 45.11H13.76ZM8.86 46.71C9.16 46.75 9.51 46.78 9.82 46.78C10.43 46.78 15.28 46.78 16 46.78C16.28 46.78 16.71 46.75 16.98 46.72V48.03C16.67 48 16.28 47.99 16.01 47.99C15.29 47.99 10.48 47.99 9.82 47.99C9.52 47.99 9.14 48 8.86 48.03V46.71ZM11.41 49.42C10.95 50.3 10.02 51.61 9.48 52.2L8.39 51.47C9.06 50.83 9.86 49.73 10.27 48.88L11.41 49.42ZM15.7 48.85C16.21 49.49 17.01 50.75 17.41 51.48L16.24 52.13C15.81 51.27 15.1 50.06 14.61 49.44L15.7 48.85ZM20.41 45.4C21.1 45.87 22.4 46.91 22.99 47.52L21.97 48.56C21.45 48 20.19 46.91 19.46 46.41L20.41 45.4ZM19.15 52.06C20.72 51.84 22.01 51.33 22.98 50.76C24.69 49.74 25.99 48.22 26.63 46.87L27.4 48.27C26.65 49.63 25.32 51.01 23.71 51.98C22.69 52.59 21.4 53.14 20 53.38L19.15 52.06Z" fill="#46872F"/>
<defs>
<filter id="filter0_d_341_2796" x="0" y="0" width="36" height="76" filterUnits="userSpaceOnUse" color-interpolation-filters="sRGB">
<feFlood flood-opacity="0" result="BackgroundImageFix"/>
<feColorMatrix in="SourceAlpha" type="matrix" values="0 0 0 0 0 0 0 0 0 0 0 0 0 0 0 0 0 0 127 0" result="hardAlpha"/>
<feOffset dy="4"/>
<feGaussianBlur stdDeviation="2"/>
<feComposite in2="hardAlpha" operator="out"/>
<feColorMatrix type="matrix" values="0 0 0 0 0 0 0 0 0 0 0 0 0 0 0 0 0 0 0.25 0"/>
<feBlend mode="normal" in2="BackgroundImageFix" result="effect1_dropShadow_341_2796"/>
<feBlend mode="normal" in="SourceGraphic" in2="effect1_dropShadow_341_2796" result="shape"/>
</filter>
</defs>
</svg>
