<svg width="31" height="31" viewBox="0 0 31 31" fill="none" xmlns="http://www.w3.org/2000/svg">
<path d="M18.1598 18.5849L17.8546 18.9367L18.1839 19.2661L24.8929 25.975L24.7125 26.1554L18.0036 19.4464L17.6759 19.1188L17.3244 19.4206C15.9468 20.6029 14.1909 21.252 12.3755 21.25H12.375C10.3527 21.25 8.41328 20.4467 6.98331 19.0167C5.55335 17.5867 4.75 15.6473 4.75 13.625C4.75 11.6027 5.55335 9.66328 6.98331 8.23331C8.41328 6.80335 10.3527 6 12.375 6C14.3973 6 16.3367 6.80335 17.7667 8.23331C19.1967 9.66328 20 11.6027 20 13.625C20 15.5265 19.308 17.2609 18.1598 18.5849ZM11.75 13.75H9.75V13.5H11.75H12.25V13V11H12.5V13V13.5H13H15V13.75H13H12.5V14.25V16.25H12.25V14.25V13.75H11.75ZM12.375 6.25C10.419 6.25 8.54317 7.02701 7.16009 8.41009C5.77701 9.79317 5 11.669 5 13.625C5 15.581 5.77701 17.4568 7.16009 18.8399C8.54317 20.223 10.419 21 12.375 21C13.3435 21 14.3025 20.8092 15.1973 20.4386C16.0921 20.068 16.9051 19.5247 17.5899 18.8399C18.2747 18.1551 18.818 17.3421 19.1886 16.4473C19.5592 15.5525 19.75 14.5935 19.75 13.625C19.75 12.6565 19.5592 11.6975 19.1886 10.8027C18.818 9.90793 18.2747 9.09492 17.5899 8.41009C16.9051 7.72526 16.0921 7.18202 15.1973 6.81139C14.3025 6.44076 13.3435 6.25 12.375 6.25Z" stroke="#595959"/>
</svg>
