<svg width="18" height="18" viewBox="0 0 18 18" fill="none" xmlns="http://www.w3.org/2000/svg">
<g id="Group">
<path id="Vector" d="M7.67857 3.62027C7.97415 3.62023 8.26683 3.67844 8.53991 3.79155C8.81298 3.90467 9.0611 4.07048 9.27007 4.27952L14.1338 9.14327C14.3428 9.3522 14.5086 9.60026 14.6217 9.87327C14.7348 10.1463 14.793 10.4389 14.793 10.7344C14.793 11.0299 14.7348 11.3225 14.6217 11.5955C14.5086 11.8685 14.3428 12.1166 14.1338 12.3255L10.9516 15.507C10.5296 15.9288 9.95744 16.1658 9.36082 16.1658C8.7642 16.1658 8.19201 15.9288 7.77007 15.507L2.90557 10.6433C2.48386 10.2213 2.247 9.6491 2.24707 9.05252V5.49527C2.24707 4.99799 2.44461 4.52107 2.79625 4.16944C3.14788 3.81781 3.62479 3.62027 4.12207 3.62027H7.67857ZM7.23907 7.02227C7.13608 6.91174 7.01188 6.82308 6.87388 6.7616C6.73588 6.70011 6.58691 6.66705 6.43585 6.66438C6.2848 6.66171 6.13476 6.6895 5.99467 6.74608C5.85459 6.80267 5.72734 6.88688 5.62051 6.99371C5.51368 7.10054 5.42947 7.22779 5.37289 7.36787C5.3163 7.50795 5.28852 7.658 5.29118 7.80905C5.29385 7.96011 5.32691 8.10908 5.3884 8.24708C5.44989 8.38507 5.53854 8.50927 5.64907 8.61227C5.86233 8.81099 6.1444 8.91917 6.43585 8.91403C6.72731 8.90889 7.00538 8.79082 7.2115 8.5847C7.41762 8.37858 7.53569 8.1005 7.54083 7.80905C7.54598 7.5176 7.43779 7.23553 7.23907 7.02227ZM8.73907 1.49927C9.28453 1.49915 9.81145 1.69718 10.2218 2.05652L10.3306 2.15777L15.7246 7.55252C15.8591 7.68749 15.9372 7.86859 15.943 8.05906C15.9488 8.24952 15.8819 8.43505 15.7559 8.57798C15.6299 8.7209 15.4542 8.8105 15.2645 8.82857C15.0748 8.84664 14.8853 8.79183 14.7346 8.67527L14.6641 8.61302L9.27007 3.21752C9.1534 3.10095 9.00157 3.02609 8.83807 3.00452L8.73907 3.00002H5.25007C5.05774 3.00154 4.87218 2.92911 4.73174 2.79771C4.59129 2.66631 4.5067 2.48597 4.49543 2.29397C4.48416 2.10197 4.54709 1.91298 4.67121 1.76605C4.79532 1.61913 4.97114 1.5255 5.16232 1.50452L5.25007 1.50002H8.73907V1.49927Z" fill="#4753C2"/>
</g>
</svg>
