<svg width="36" height="36" viewBox="0 0 36 36" fill="none" xmlns="http://www.w3.org/2000/svg">
<g filter="url(#filter0_d_457_2856)">
<rect x="5" y="5" width="26" height="26" rx="13" fill="white" shape-rendering="crispEdges"/>
<rect x="5" y="5" width="26" height="26" rx="13" stroke="#B9272F" stroke-width="2" shape-rendering="crispEdges"/>
<path d="M13.702 16.5002L15.0648 12.3994C15.1302 12.2025 15.2724 12.0288 15.4694 11.905C15.6665 11.7811 15.9074 11.7141 16.1553 11.7142H18.3475C18.521 11.7143 18.6921 11.7472 18.8477 11.8106C19.0032 11.8739 19.139 11.9659 19.2445 12.0794C19.3499 12.1929 19.4222 12.3249 19.4557 12.4652C19.4893 12.6054 19.4832 12.7502 19.4379 12.8881L18.6853 15.1661H20.7487C20.9293 15.1662 21.1073 15.2019 21.2677 15.2703C21.4281 15.3387 21.5663 15.4377 21.6707 15.5592C21.775 15.6806 21.8425 15.8209 21.8675 15.9683C21.8925 16.1156 21.8743 16.2658 21.8143 16.4061L20.1317 20.3449H21.6674C21.7834 20.3448 21.8966 20.3741 21.9917 20.4289C22.0868 20.4836 22.1591 20.5612 22.1989 20.6509C22.2386 20.7407 22.2438 20.8384 22.2138 20.9307C22.1839 21.023 22.1201 21.1055 22.0313 21.167L17.6864 24.1767C17.6281 24.217 17.5606 24.2472 17.4878 24.2655C17.415 24.2837 17.3384 24.2897 17.2628 24.283C17.1871 24.2763 17.1139 24.2571 17.0474 24.2265C16.981 24.1959 16.9228 24.1546 16.8762 24.105L14.0523 21.0962C13.9877 21.0274 13.9478 20.945 13.9371 20.8585C13.9264 20.7719 13.9453 20.6846 13.9918 20.6065C14.0383 20.5284 14.1104 20.4625 14.2 20.4165C14.2896 20.3704 14.3931 20.3459 14.4987 20.3459H16.2061L17.1587 17.6778H14.7925C14.6185 17.6779 14.4468 17.6449 14.2908 17.5814C14.1348 17.5178 13.9987 17.4255 13.8932 17.3115C13.7877 17.1975 13.7155 17.065 13.6823 16.9243C13.6492 16.7835 13.6559 16.6384 13.702 16.5002Z" fill="#B9272F"/>
</g>
<defs>
<filter id="filter0_d_457_2856" x="0" y="0" width="36" height="36" filterUnits="userSpaceOnUse" color-interpolation-filters="sRGB">
<feFlood flood-opacity="0" result="BackgroundImageFix"/>
<feColorMatrix in="SourceAlpha" type="matrix" values="0 0 0 0 0 0 0 0 0 0 0 0 0 0 0 0 0 0 127 0" result="hardAlpha"/>
<feOffset/>
<feGaussianBlur stdDeviation="2"/>
<feComposite in2="hardAlpha" operator="out"/>
<feColorMatrix type="matrix" values="0 0 0 0 0 0 0 0 0 0 0 0 0 0 0 0 0 0 0.75 0"/>
<feBlend mode="normal" in2="BackgroundImageFix" result="effect1_dropShadow_457_2856"/>
<feBlend mode="normal" in="SourceGraphic" in2="effect1_dropShadow_457_2856" result="shape"/>
</filter>
</defs>
</svg>
