<svg width="45" height="45" viewBox="0 0 45 45" fill="none" xmlns="http://www.w3.org/2000/svg">
<path d="M42.6207 19.6809H41.05V19.6H23.5V27.4H34.5204C32.9127 31.9406 28.5924 35.2 23.5 35.2C17.0387 35.2 11.8 29.9613 11.8 23.5C11.8 17.0387 17.0387 11.8 23.5 11.8C26.4825 11.8 29.196 12.9251 31.262 14.763L36.7776 9.24745C33.2949 6.00168 28.6363 4 23.5 4C12.7311 4 4 12.7311 4 23.5C4 34.2689 12.7311 43 23.5 43C34.2689 43 43 34.2689 43 23.5C43 22.1925 42.8655 20.9163 42.6207 19.6809Z" fill="#FFC107"/>
<path d="M6 14.3395L12.5055 19C14.2658 14.7427 18.5289 11.7369 23.5177 11.7369C26.5462 11.7369 29.3015 12.853 31.3994 14.676L37 9.20503C33.4636 5.98549 28.7332 4 23.5177 4C15.9122 4 9.31662 8.19439 6 14.3395Z" fill="#FF3D00"/>
<path d="M23.6829 43C28.8135 43 33.4753 41.0163 37 37.7904L30.8524 32.5347C28.7912 34.1184 26.2725 34.975 23.6829 34.9729C18.5166 34.9729 14.1299 31.6447 12.4773 27L6 32.042C9.28731 38.5409 15.9632 43 23.6829 43Z" fill="#4CAF50"/>
<path d="M42.611 19.0838H41V19H23V27.073H34.303C33.5142 29.3096 32.0934 31.264 30.216 32.6948L30.219 32.6928L36.409 37.9786C35.971 38.3802 43 33.1277 43 23.0365C43 21.6833 42.862 20.3623 42.611 19.0838Z" fill="#1976D2"/>
</svg>
