<svg width="36" height="36" viewBox="0 0 36 36" fill="none" xmlns="http://www.w3.org/2000/svg">
<g filter="url(#filter0_d_457_2858)">
<rect x="5" y="5" width="26" height="26" rx="13" fill="white" shape-rendering="crispEdges"/>
<rect x="5" y="5" width="26" height="26" rx="13" stroke="#4753C2" stroke-width="2" shape-rendering="crispEdges"/>
<g clip-path="url(#clip0_457_2858)">
<path d="M16.5316 12.0226C16.86 12.0225 17.1852 12.0872 17.4886 12.2129C17.792 12.3386 18.0677 12.5228 18.2999 12.7551L23.7041 18.1592C23.9363 18.3914 24.1205 18.667 24.2461 18.9703C24.3718 19.2737 24.4365 19.5988 24.4365 19.9271C24.4365 20.2555 24.3718 20.5806 24.2461 20.884C24.1205 21.1873 23.9363 21.4629 23.7041 21.6951L20.1682 25.2301C19.6994 25.6987 19.0637 25.962 18.4007 25.962C17.7378 25.962 17.1021 25.6987 16.6332 25.2301L11.2282 19.8259C10.7597 19.357 10.4965 18.7213 10.4966 18.0584V14.1059C10.4966 13.5534 10.7161 13.0235 11.1068 12.6328C11.4975 12.2421 12.0274 12.0226 12.5799 12.0226H16.5316ZM16.0432 15.8026C15.9288 15.6797 15.7908 15.5812 15.6375 15.5129C15.4841 15.4446 15.3186 15.4079 15.1508 15.4049C14.9829 15.4019 14.8162 15.4328 14.6606 15.4957C14.5049 15.5586 14.3635 15.6521 14.2449 15.7708C14.1262 15.8895 14.0326 16.0309 13.9697 16.1866C13.9068 16.3422 13.876 16.5089 13.8789 16.6768C13.8819 16.8446 13.9186 17.0101 13.9869 17.1635C14.0553 17.3168 14.1538 17.4548 14.2766 17.5692C14.5135 17.79 14.827 17.9102 15.1508 17.9045C15.4746 17.8988 15.7836 17.7676 16.0126 17.5386C16.2416 17.3096 16.3728 17.0006 16.3785 16.6768C16.3843 16.3529 16.264 16.0395 16.0432 15.8026ZM17.7099 9.66589C18.316 9.66576 18.9015 9.8858 19.3574 10.2851L19.4782 10.3976L25.4716 16.3917C25.621 16.5417 25.7078 16.7429 25.7143 16.9545C25.7207 17.1662 25.6464 17.3723 25.5064 17.5311C25.3663 17.6899 25.1711 17.7895 24.9604 17.8096C24.7496 17.8296 24.5391 17.7687 24.3716 17.6392L24.2932 17.5701L18.2999 11.5751C18.1703 11.4455 18.0016 11.3624 17.8199 11.3384L17.7099 11.3334H13.8332C13.6196 11.3351 13.4134 11.2546 13.2573 11.1086C13.1013 10.9626 13.0073 10.7622 12.9948 10.5489C12.9822 10.3356 13.0522 10.1256 13.1901 9.96232C13.328 9.79907 13.5233 9.69504 13.7357 9.67173L13.8332 9.66673H17.7099V9.66589Z" fill="#4753C2"/>
</g>
</g>
<defs>
<filter id="filter0_d_457_2858" x="0" y="0" width="36" height="36" filterUnits="userSpaceOnUse" color-interpolation-filters="sRGB">
<feFlood flood-opacity="0" result="BackgroundImageFix"/>
<feColorMatrix in="SourceAlpha" type="matrix" values="0 0 0 0 0 0 0 0 0 0 0 0 0 0 0 0 0 0 127 0" result="hardAlpha"/>
<feOffset/>
<feGaussianBlur stdDeviation="2"/>
<feComposite in2="hardAlpha" operator="out"/>
<feColorMatrix type="matrix" values="0 0 0 0 0 0 0 0 0 0 0 0 0 0 0 0 0 0 0.75 0"/>
<feBlend mode="normal" in2="BackgroundImageFix" result="effect1_dropShadow_457_2858"/>
<feBlend mode="normal" in="SourceGraphic" in2="effect1_dropShadow_457_2858" result="shape"/>
</filter>
<clipPath id="clip0_457_2858">
<rect width="20" height="20" fill="white" transform="translate(8 8)"/>
</clipPath>
</defs>
</svg>
