<svg width="31" height="31" viewBox="0 0 31 31" fill="none" xmlns="http://www.w3.org/2000/svg">
<path d="M11.75 15.5C11.75 16.3288 11.4208 17.1237 10.8347 17.7097C10.2487 18.2958 9.4538 18.625 8.625 18.625C7.7962 18.625 7.00134 18.2958 6.41529 17.7097C5.82924 17.1237 5.5 16.3288 5.5 15.5C5.5 14.6712 5.82924 13.8763 6.41529 13.2903C7.00134 12.7042 7.7962 12.375 8.625 12.375C9.4538 12.375 10.2487 12.7042 10.8347 13.2903C11.4208 13.8763 11.75 14.6712 11.75 15.5Z" stroke="#595959"/>
<path d="M18 8.625L11.75 13M18 22.375L11.75 18" stroke="#595959" stroke-linecap="round"/>
<path d="M24.25 23.625C24.25 24.4538 23.9208 25.2487 23.3347 25.8347C22.7487 26.4208 21.9538 26.75 21.125 26.75C20.2962 26.75 19.5013 26.4208 18.9153 25.8347C18.3292 25.2487 18 24.4538 18 23.625C18 22.7962 18.3292 22.0013 18.9153 21.4153C19.5013 20.8292 20.2962 20.5 21.125 20.5C21.9538 20.5 22.7487 20.8292 23.3347 21.4153C23.9208 22.0013 24.25 22.7962 24.25 23.625ZM24.25 7.375C24.25 8.2038 23.9208 8.99866 23.3347 9.58471C22.7487 10.1708 21.9538 10.5 21.125 10.5C20.2962 10.5 19.5013 10.1708 18.9153 9.58471C18.3292 8.99866 18 8.2038 18 7.375C18 6.5462 18.3292 5.75134 18.9153 5.16529C19.5013 4.57924 20.2962 4.25 21.125 4.25C21.9538 4.25 22.7487 4.57924 23.3347 5.16529C23.9208 5.75134 24.25 6.5462 24.25 7.375Z" stroke="#595959"/>
</svg>
