<svg width="36" height="36" viewBox="0 0 36 36" fill="none" xmlns="http://www.w3.org/2000/svg">
<g filter="url(#filter0_d_457_2859)">
<rect x="5" y="5" width="26" height="26" rx="13" fill="white" shape-rendering="crispEdges"/>
<rect x="5" y="5" width="26" height="26" rx="13" stroke="#785596" stroke-width="2" shape-rendering="crispEdges"/>
<g clip-path="url(#clip0_457_2859)">
<path d="M20.25 12C20.6478 12 21.0294 12.158 21.3107 12.4393C21.592 12.7206 21.75 13.1022 21.75 13.5V14.25H22.89C23.1148 14.25 23.3368 14.3006 23.5394 14.398C23.7421 14.4953 23.9202 14.637 24.0607 14.8125L25.1708 16.2007C25.3838 16.4668 25.4999 16.7974 25.5 17.1382V20.25C25.5 20.6478 25.342 21.0294 25.0607 21.3107C24.7794 21.592 24.3978 21.75 24 21.75H23.25C23.25 22.3467 23.0129 22.919 22.591 23.341C22.169 23.7629 21.5967 24 21 24C20.4033 24 19.831 23.7629 19.409 23.341C18.9871 22.919 18.75 22.3467 18.75 21.75H16.5C16.5 22.0455 16.4418 22.3381 16.3287 22.611C16.2157 22.884 16.0499 23.1321 15.841 23.341C15.6321 23.5499 15.384 23.7157 15.111 23.8287C14.8381 23.9418 14.5455 24 14.25 24C13.9545 24 13.6619 23.9418 13.389 23.8287C13.116 23.7157 12.8679 23.5499 12.659 23.341C12.4501 23.1321 12.2843 22.884 12.1713 22.611C12.0582 22.3381 12 22.0455 12 21.75C11.6022 21.75 11.2206 21.592 10.9393 21.3107C10.658 21.0294 10.5 20.6478 10.5 20.25V13.5C10.5 13.1022 10.658 12.7206 10.9393 12.4393C11.2206 12.158 11.6022 12 12 12H20.25ZM14.25 21C14.0511 21 13.8603 21.079 13.7197 21.2197C13.579 21.3603 13.5 21.5511 13.5 21.75C13.5 21.9489 13.579 22.1397 13.7197 22.2803C13.8603 22.421 14.0511 22.5 14.25 22.5C14.4489 22.5 14.6397 22.421 14.7803 22.2803C14.921 22.1397 15 21.9489 15 21.75C15 21.5511 14.921 21.3603 14.7803 21.2197C14.6397 21.079 14.4489 21 14.25 21ZM21 21C20.8011 21 20.6103 21.079 20.4697 21.2197C20.329 21.3603 20.25 21.5511 20.25 21.75C20.25 21.9489 20.329 22.1397 20.4697 22.2803C20.6103 22.421 20.8011 22.5 21 22.5C21.1989 22.5 21.3897 22.421 21.5303 22.2803C21.671 22.1397 21.75 21.9489 21.75 21.75C21.75 21.5511 21.671 21.3603 21.5303 21.2197C21.3897 21.079 21.1989 21 21 21ZM22.89 15.75H21.75V18.75H24V17.1375L22.89 15.75Z" fill="#785596"/>
</g>
</g>
<defs>
<filter id="filter0_d_457_2859" x="0" y="0" width="36" height="36" filterUnits="userSpaceOnUse" color-interpolation-filters="sRGB">
<feFlood flood-opacity="0" result="BackgroundImageFix"/>
<feColorMatrix in="SourceAlpha" type="matrix" values="0 0 0 0 0 0 0 0 0 0 0 0 0 0 0 0 0 0 127 0" result="hardAlpha"/>
<feOffset/>
<feGaussianBlur stdDeviation="2"/>
<feComposite in2="hardAlpha" operator="out"/>
<feColorMatrix type="matrix" values="0 0 0 0 0 0 0 0 0 0 0 0 0 0 0 0 0 0 0.75 0"/>
<feBlend mode="normal" in2="BackgroundImageFix" result="effect1_dropShadow_457_2859"/>
<feBlend mode="normal" in="SourceGraphic" in2="effect1_dropShadow_457_2859" result="shape"/>
</filter>
<clipPath id="clip0_457_2859">
<rect width="18" height="18" fill="white" transform="translate(9 9)"/>
</clipPath>
</defs>
</svg>
