<svg width="36" height="76" viewBox="0 0 36 76" fill="none" xmlns="http://www.w3.org/2000/svg">
<g filter="url(#filter0_d_341_2795)">
<path d="M6 2H30V66L18 55.76L6 66V2Z" fill="white"/>
<path d="M6 1C5.44772 1 5 1.44772 5 2V66C5 66.3901 5.22688 66.7446 5.58114 66.9081C5.9354 67.0715 6.35235 67.0139 6.64912 66.7607L18 57.0746L29.3509 66.7607C29.6476 67.0139 30.0646 67.0715 30.4189 66.9081C30.7731 66.7446 31 66.3901 31 66V2C31 1.44772 30.5523 1 30 1H6Z" stroke="#4753C2" stroke-width="2" stroke-linejoin="round"/>
</g>
<g clip-path="url(#clip0_341_2795)">
<path d="M16.6786 9.62027C16.9741 9.62023 17.2668 9.67844 17.5399 9.79155C17.813 9.90467 18.0611 10.0705 18.2701 10.2795L23.1338 15.1433C23.3428 15.3522 23.5086 15.6003 23.6217 15.8733C23.7348 16.1463 23.793 16.4389 23.793 16.7344C23.793 17.0299 23.7348 17.3225 23.6217 17.5955C23.5086 17.8685 23.3428 18.1166 23.1338 18.3255L19.9516 21.507C19.5296 21.9288 18.9574 22.1658 18.3608 22.1658C17.7642 22.1658 17.192 21.9288 16.7701 21.507L11.9056 16.6433C11.4839 16.2213 11.247 15.6491 11.2471 15.0525V11.4953C11.2471 10.998 11.4446 10.5211 11.7962 10.1694C12.1479 9.81781 12.6248 9.62027 13.1221 9.62027H16.6786ZM16.2391 13.0223C16.1361 12.9117 16.0119 12.8231 15.8739 12.7616C15.7359 12.7001 15.5869 12.667 15.4359 12.6644C15.2848 12.6617 15.1348 12.6895 14.9947 12.7461C14.8546 12.8027 14.7273 12.8869 14.6205 12.9937C14.5137 13.1005 14.4295 13.2278 14.3729 13.3679C14.3163 13.508 14.2885 13.658 14.2912 13.8091C14.2938 13.9601 14.3269 14.1091 14.3884 14.2471C14.4499 14.3851 14.5385 14.5093 14.6491 14.6123C14.8623 14.811 15.1444 14.9192 15.4359 14.914C15.7273 14.9089 16.0054 14.7908 16.2115 14.5847C16.4176 14.3786 16.5357 14.1005 16.5408 13.8091C16.546 13.5176 16.4378 13.2355 16.2391 13.0223ZM17.7391 7.49927C18.2845 7.49915 18.8115 7.69718 19.2218 8.05652L19.3306 8.15777L24.7246 13.5525C24.8591 13.6875 24.9372 13.8686 24.943 14.0591C24.9488 14.2495 24.8819 14.4351 24.7559 14.578C24.6299 14.7209 24.4542 14.8105 24.2645 14.8286C24.0748 14.8466 23.8853 14.7918 23.7346 14.6753L23.6641 14.613L18.2701 9.21752C18.1534 9.10095 18.0016 9.02609 17.8381 9.00452L17.7391 9.00002H14.2501C14.0577 9.00154 13.8722 8.92911 13.7317 8.79771C13.5913 8.66631 13.5067 8.48597 13.4954 8.29397C13.4842 8.10197 13.5471 7.91298 13.6712 7.76605C13.7953 7.61913 13.9711 7.5255 14.1623 7.50452L14.2501 7.50002H17.7391V7.49927Z" fill="#4753C2"/>
</g>
<path d="M12.28 34.32C13.51 35.03 15.36 36.31 16.29 37.05L15.33 38.19C14.46 37.37 12.56 35.97 11.39 35.23L12.28 34.32ZM16.99 32.62C16.87 32.81 16.74 33.09 16.65 33.34C16.35 34.26 15.74 35.54 14.84 36.65C13.9 37.82 12.62 38.94 10.71 39.66L9.55 38.66C11.64 38.01 12.83 36.96 13.69 35.96C14.36 35.17 14.98 34.02 15.17 33.24H11.79L12.25 32.11H15.1C15.41 32.11 15.74 32.06 15.97 31.99L16.99 32.62ZM13.68 31.08C13.44 31.43 13.18 31.89 13.06 32.1C12.39 33.31 11.11 34.84 9.67 35.83L8.6 35C10.35 33.92 11.27 32.55 11.78 31.68C11.93 31.44 12.14 30.98 12.23 30.63L13.68 31.08ZM25.79 30.81C26.04 31.18 26.39 31.81 26.58 32.18L25.78 32.53C25.57 32.12 25.26 31.52 24.99 31.14L25.79 30.81ZM26.97 30.36C27.23 30.74 27.6 31.37 27.78 31.72L26.98 32.06C26.77 31.65 26.45 31.06 26.18 30.69L26.97 30.36ZM26.68 33.01C26.57 33.21 26.43 33.48 26.35 33.73C26.08 34.62 25.51 35.96 24.61 37.07C23.66 38.23 22.45 39.15 20.57 39.89L19.39 38.84C21.44 38.22 22.55 37.35 23.42 36.36C24.1 35.58 24.68 34.38 24.84 33.64H21.47L21.93 32.5C22.38 32.5 24.47 32.5 24.79 32.5C25.1 32.5 25.43 32.46 25.66 32.38L26.68 33.01ZM23.42 31.43C23.19 31.78 22.93 32.24 22.81 32.45C22.14 33.66 20.94 35.07 19.51 36.05L18.38 35.22C20.14 34.15 21.01 32.86 21.51 32C21.66 31.76 21.87 31.29 21.96 30.95L23.42 31.43ZM11.5 46.67H17.68V47.89H11.5V46.67ZM15.33 44.62H16.57V52.45C16.57 53.21 16.39 53.53 15.91 53.71C15.42 53.9 14.66 53.92 13.55 53.91C13.49 53.58 13.27 53.04 13.09 52.72C13.87 52.76 14.74 52.76 14.98 52.75C15.23 52.74 15.33 52.67 15.33 52.44V44.62ZM11.95 49.1L13.01 48.6C13.46 49.33 14.09 50.32 14.39 50.93L13.25 51.51C12.99 50.9 12.4 49.87 11.95 49.1ZM9.66 47.45L10.87 46.24L10.88 46.26V53.88H9.66V47.45ZM10.66 44.56L11.84 44.94C11.17 46.68 10.09 48.51 8.96 49.66C8.83 49.36 8.47 48.7 8.25 48.4C9.21 47.49 10.12 46.03 10.66 44.56ZM19.64 45.83C21.1 46 22.32 46.02 23.38 45.94C24.29 45.88 25.11 45.72 25.94 45.46L26.1 46.6C25.38 46.8 24.51 46.97 23.64 47.03C22.61 47.11 21.23 47.12 19.71 46.97L19.64 45.83ZM19.46 47.92C21.26 48.1 22.88 48.07 24.08 47.95C25.16 47.86 25.91 47.66 26.49 47.49L26.69 48.67C26.09 48.82 25.35 48.96 24.54 49.05C23.28 49.19 21.33 49.22 19.53 49.1L19.46 47.92ZM22.8 46.11C22.7 45.74 22.58 45.37 22.44 44.98L23.78 44.83C23.9 45.79 24.15 46.67 24.41 47.44C24.65 48.14 25.14 49.17 25.6 49.87C25.74 50.07 25.87 50.22 26.05 50.39L25.45 51.31C24.89 51.19 23.8 51.07 23.07 50.99L23.17 50.03C23.59 50.07 24.14 50.12 24.43 50.15C23.9 49.26 23.53 48.39 23.28 47.66C23.03 46.95 22.93 46.59 22.8 46.11ZM21.38 50.25C21.14 50.58 20.93 50.92 20.93 51.35C20.93 52.09 21.63 52.39 22.96 52.39C23.9 52.39 24.75 52.32 25.47 52.18L25.4 53.45C24.7 53.56 23.78 53.63 22.96 53.63C20.97 53.63 19.73 53.04 19.7 51.62C19.69 50.97 19.9 50.48 20.14 50.01L21.38 50.25Z" fill="#4753C2"/>
<defs>
<filter id="filter0_d_341_2795" x="0" y="0" width="36" height="76" filterUnits="userSpaceOnUse" color-interpolation-filters="sRGB">
<feFlood flood-opacity="0" result="BackgroundImageFix"/>
<feColorMatrix in="SourceAlpha" type="matrix" values="0 0 0 0 0 0 0 0 0 0 0 0 0 0 0 0 0 0 127 0" result="hardAlpha"/>
<feOffset dy="4"/>
<feGaussianBlur stdDeviation="2"/>
<feComposite in2="hardAlpha" operator="out"/>
<feColorMatrix type="matrix" values="0 0 0 0 0 0 0 0 0 0 0 0 0 0 0 0 0 0 0.25 0"/>
<feBlend mode="normal" in2="BackgroundImageFix" result="effect1_dropShadow_341_2795"/>
<feBlend mode="normal" in="SourceGraphic" in2="effect1_dropShadow_341_2795" result="shape"/>
</filter>
<clipPath id="clip0_341_2795">
<rect width="18" height="18" fill="white" transform="translate(9 6)"/>
</clipPath>
</defs>
</svg>
