<svg width="284" height="170" viewBox="0 0 284 170" fill="none" xmlns="http://www.w3.org/2000/svg">
<path d="M276.682 128.186C276.682 131.037 278.308 132.938 281.154 133.994C281.866 134.311 282.476 134.944 283.086 135.472C282.476 135.894 281.866 136.422 281.256 136.634C278.308 137.689 276.682 139.59 276.682 142.441C276.682 145.292 278.41 147.087 281.256 148.143C281.968 148.354 282.476 148.988 283.086 149.41C282.577 149.832 282.069 150.571 281.459 150.783C278.41 151.839 276.682 153.739 276.682 156.696C276.682 159.547 278.512 161.342 281.358 162.398C282.069 162.609 282.476 163.242 283.086 163.665C282.476 164.087 281.866 164.615 281.256 165.037C279.935 165.988 278.207 166.727 277.495 167.888C276.58 169.472 275.564 169.894 273.836 169.894C185.808 169.894 97.8824 169.894 9.85489 169.894C9.14336 169.894 8.43181 169.789 7.61862 169.789C7.41532 169.155 7.21203 168.627 6.90708 168.099C5.8906 165.565 3.85764 164.087 0.909837 164.087H0.706543V5.17391C0.90984 5.17391 1.01149 5.17391 1.21478 5.17391C4.36588 5.06832 6.19555 3.16768 7.31369 0.633515C7.41533 0.422334 7.61863 0.31677 7.82193 0H11.8879C99.0005 0 186.113 0 273.226 0C275.157 0 276.479 0.105584 277.495 2.0062C278.207 3.27329 280.036 3.90681 281.358 4.85712C281.968 5.27948 282.476 5.80745 282.984 6.22981C282.476 6.65217 282.069 7.18012 281.459 7.3913C278.41 8.34162 276.58 10.1366 276.58 13.1988C276.58 16.2609 278.41 18.0559 281.459 19.0062C282.069 19.2174 282.476 19.9565 282.984 20.3789C282.476 20.8012 281.968 21.3292 281.358 21.4348C278.308 22.3851 276.58 24.2857 276.58 27.2422C276.58 30.3043 278.41 32.0994 281.459 33.0497C282.069 33.2609 282.476 33.7888 282.984 34.2112C282.476 34.6335 281.968 35.3727 281.358 35.5838C278.308 36.6397 276.58 38.4348 276.58 41.4969C276.682 44.3478 278.308 46.1428 281.256 47.1987C281.866 47.4099 282.374 48.0435 282.984 48.4658C282.374 48.8882 281.866 49.5217 281.256 49.8385C278.207 50.8944 276.479 52.795 276.58 55.8571C276.682 58.8137 278.512 60.5031 281.358 61.4534C282.069 61.6646 282.577 62.5093 283.696 63.354C280.748 63.882 278.715 64.1987 276.682 64.7267C266.212 67.472 259.503 76.236 260.113 86.1615C260.723 95.6646 268.652 103.795 279.223 105.484C279.833 105.59 280.544 105.59 281.154 105.801C281.866 106.118 282.374 106.54 282.984 106.857C282.374 107.279 281.968 107.913 281.256 108.23C278.308 109.18 276.58 110.975 276.58 113.826C276.58 116.783 278.207 118.789 281.256 119.739C281.866 119.95 282.374 120.584 282.984 121.112C282.374 121.534 281.866 122.062 281.154 122.379C278.41 123.435 276.682 125.23 276.682 128.186Z" fill="url(#paint0_linear_745_14444)"/>
<mask id="mask0_745_14444" style="mask-type:luminance" maskUnits="userSpaceOnUse" x="0" y="0" width="284" height="170">
<path d="M276.682 128.186C276.682 131.037 278.308 132.938 281.154 133.994C281.866 134.311 282.476 134.944 283.086 135.472C282.476 135.894 281.866 136.422 281.256 136.634C278.308 137.689 276.682 139.59 276.682 142.441C276.682 145.292 278.41 147.087 281.256 148.143C281.968 148.354 282.476 148.988 283.086 149.41C282.577 149.832 282.069 150.571 281.459 150.783C278.41 151.839 276.682 153.739 276.682 156.696C276.682 159.547 278.512 161.342 281.358 162.398C282.069 162.609 282.476 163.242 283.086 163.665C282.476 164.087 281.866 164.615 281.256 165.037C279.935 165.988 278.207 166.727 277.495 167.888C276.58 169.472 275.564 169.894 273.836 169.894C185.808 169.894 97.8824 169.894 9.85489 169.894C9.14336 169.894 8.43181 169.789 7.61862 169.789C7.41532 169.155 7.21203 168.627 6.90708 168.099C5.8906 165.565 3.85764 164.087 0.909837 164.087H0.706543V5.17391C0.90984 5.17391 1.01149 5.17391 1.21478 5.17391C4.36588 5.06832 6.19555 3.16768 7.31369 0.633515C7.41533 0.422334 7.61863 0.31677 7.82193 0H11.8879C99.0005 0 186.113 0 273.226 0C275.157 0 276.479 0.105584 277.495 2.0062C278.207 3.27329 280.036 3.90681 281.358 4.85712C281.968 5.27948 282.476 5.80745 282.984 6.22981C282.476 6.65217 282.069 7.18012 281.459 7.3913C278.41 8.34162 276.58 10.1366 276.58 13.1988C276.58 16.2609 278.41 18.0559 281.459 19.0062C282.069 19.2174 282.476 19.9565 282.984 20.3789C282.476 20.8012 281.968 21.3292 281.358 21.4348C278.308 22.3851 276.58 24.2857 276.58 27.2422C276.58 30.3043 278.41 32.0994 281.459 33.0497C282.069 33.2609 282.476 33.7888 282.984 34.2112C282.476 34.6335 281.968 35.3727 281.358 35.5838C278.308 36.6397 276.58 38.4348 276.58 41.4969C276.682 44.3478 278.308 46.1428 281.256 47.1987C281.866 47.4099 282.374 48.0435 282.984 48.4658C282.374 48.8882 281.866 49.5217 281.256 49.8385C278.207 50.8944 276.479 52.795 276.58 55.8571C276.682 58.8137 278.512 60.5031 281.358 61.4534C282.069 61.6646 282.577 62.5093 283.696 63.354C280.748 63.882 278.715 64.1987 276.682 64.7267C266.212 67.472 259.503 76.236 260.113 86.1615C260.723 95.6646 268.652 103.795 279.223 105.484C279.833 105.59 280.544 105.59 281.154 105.801C281.866 106.118 282.374 106.54 282.984 106.857C282.374 107.279 281.968 107.913 281.256 108.23C278.308 109.18 276.58 110.975 276.58 113.826C276.58 116.783 278.207 118.789 281.256 119.739C281.866 119.95 282.374 120.584 282.984 121.112C282.374 121.534 281.866 122.062 281.154 122.379C278.41 123.435 276.682 125.23 276.682 128.186Z" fill="white"/>
</mask>
<g mask="url(#mask0_745_14444)">
<path d="M17.8853 250.143C55.6106 250.143 86.193 218.375 86.193 179.186C86.193 139.998 55.6106 108.23 17.8853 108.23C-19.84 108.23 -50.4224 139.998 -50.4224 179.186C-50.4224 218.375 -19.84 250.143 17.8853 250.143Z" fill="#660C21"/>
</g>
<mask id="mask1_745_14444" style="mask-type:luminance" maskUnits="userSpaceOnUse" x="0" y="0" width="284" height="170">
<path d="M276.682 128.186C276.682 131.037 278.308 132.938 281.154 133.994C281.866 134.311 282.476 134.944 283.086 135.472C282.476 135.894 281.866 136.422 281.256 136.634C278.308 137.689 276.682 139.59 276.682 142.441C276.682 145.292 278.41 147.087 281.256 148.143C281.968 148.354 282.476 148.988 283.086 149.41C282.577 149.832 282.069 150.571 281.459 150.783C278.41 151.839 276.682 153.739 276.682 156.696C276.682 159.547 278.512 161.342 281.358 162.398C282.069 162.609 282.476 163.242 283.086 163.665C282.476 164.087 281.866 164.615 281.256 165.037C279.935 165.988 278.207 166.727 277.495 167.888C276.58 169.472 275.564 169.894 273.836 169.894C185.808 169.894 97.8824 169.894 9.85489 169.894C9.14336 169.894 8.43181 169.789 7.61862 169.789C7.41532 169.155 7.21203 168.627 6.90708 168.099C5.8906 165.565 3.85764 164.087 0.909837 164.087H0.706543V5.17391C0.90984 5.17391 1.01149 5.17391 1.21478 5.17391C4.36588 5.06832 6.19555 3.16768 7.31369 0.633515C7.41533 0.422334 7.61863 0.31677 7.82193 0H11.8879C99.0005 0 186.113 0 273.226 0C275.157 0 276.479 0.105584 277.495 2.0062C278.207 3.27329 280.036 3.90681 281.358 4.85712C281.968 5.27948 282.476 5.80745 282.984 6.22981C282.476 6.65217 282.069 7.18012 281.459 7.3913C278.41 8.34162 276.58 10.1366 276.58 13.1988C276.58 16.2609 278.41 18.0559 281.459 19.0062C282.069 19.2174 282.476 19.9565 282.984 20.3789C282.476 20.8012 281.968 21.3292 281.358 21.4348C278.308 22.3851 276.58 24.2857 276.58 27.2422C276.58 30.3043 278.41 32.0994 281.459 33.0497C282.069 33.2609 282.476 33.7888 282.984 34.2112C282.476 34.6335 281.968 35.3727 281.358 35.5838C278.308 36.6397 276.58 38.4348 276.58 41.4969C276.682 44.3478 278.308 46.1428 281.256 47.1987C281.866 47.4099 282.374 48.0435 282.984 48.4658C282.374 48.8882 281.866 49.5217 281.256 49.8385C278.207 50.8944 276.479 52.795 276.58 55.8571C276.682 58.8137 278.512 60.5031 281.358 61.4534C282.069 61.6646 282.577 62.5093 283.696 63.354C280.748 63.882 278.715 64.1987 276.682 64.7267C266.212 67.472 259.503 76.236 260.113 86.1615C260.723 95.6646 268.652 103.795 279.223 105.484C279.833 105.59 280.544 105.59 281.154 105.801C281.866 106.118 282.374 106.54 282.984 106.857C282.374 107.279 281.968 107.913 281.256 108.23C278.308 109.18 276.58 110.975 276.58 113.826C276.58 116.783 278.207 118.789 281.256 119.739C281.866 119.95 282.374 120.584 282.984 121.112C282.374 121.534 281.866 122.062 281.154 122.379C278.41 123.435 276.682 125.23 276.682 128.186Z" fill="white"/>
</mask>
<g mask="url(#mask1_745_14444)">
<path d="M275.36 103.478C317.464 103.478 351.597 68.0225 351.597 24.2857C351.597 -19.4511 317.464 -54.9069 275.36 -54.9069C233.256 -54.9069 199.124 -19.4511 199.124 24.2857C199.124 68.0225 233.256 103.478 275.36 103.478Z" fill="#660C21"/>
</g>
<defs>
<linearGradient id="paint0_linear_745_14444" x1="142.201" y1="0" x2="142.201" y2="169.894" gradientUnits="userSpaceOnUse">
<stop stop-color="#BE5E5E"/>
<stop offset="1" stop-color="#6F0B23"/>
</linearGradient>
</defs>
</svg>
