<svg width="40" height="40" viewBox="0 0 40 40" fill="none" xmlns="http://www.w3.org/2000/svg">
<path d="M36.1405 31.1721C35.5355 32.5696 34.8195 33.856 33.9899 35.0387C32.8591 36.651 31.9332 37.767 31.2197 38.3867C30.1135 39.404 28.9283 39.925 27.6593 39.9545C26.7482 39.9545 25.6494 39.6953 24.3705 39.1694C23.0873 38.646 21.9081 38.3867 20.8299 38.3867C19.699 38.3867 18.4862 38.6459 17.189 39.1694C15.8898 39.6953 14.8432 39.9694 14.0429 39.9965C12.8259 40.0484 11.6129 39.5125 10.4021 38.3867C9.62928 37.7126 8.66264 36.5571 7.50459 34.9201C6.26217 33.172 5.24076 31.1449 4.44045 28.8338C3.5835 26.3376 3.15381 23.9204 3.15381 21.5803C3.15381 18.8995 3.73303 16.5876 4.89326 14.6501C5.80514 13.0938 7.01818 11.8663 8.53631 10.965C10.0544 10.0638 11.695 9.60455 13.4615 9.57517C14.4282 9.57517 15.6958 9.87416 17.2711 10.4618C18.8419 11.0514 19.8505 11.3505 20.2927 11.3505C20.6233 11.3505 21.7438 11.0009 23.6433 10.3038C25.4395 9.65744 26.9555 9.38978 28.1974 9.49525C31.5627 9.76689 34.091 11.0935 35.7725 13.4835C32.7627 15.3072 31.2739 17.8614 31.3035 21.1381C31.3307 23.6904 32.2565 25.8143 34.0762 27.5006C34.9008 28.2834 35.8219 28.8883 36.8465 29.3178C36.6243 29.9622 36.3897 30.5795 36.1404 31.1721H36.1405ZM28.4222 0.800173C28.4222 2.80064 27.6913 4.66845 26.2346 6.39728C24.4766 8.45252 22.3503 9.6401 20.0444 9.45275C20.0136 9.20125 19.9981 8.9481 19.998 8.6947C19.998 6.77424 20.834 4.719 22.3187 3.03861C23.0599 2.18783 24.0026 1.48033 25.1458 0.915955C26.2865 0.360017 27.3655 0.0525171 28.3802 -6.10352e-05C28.4098 0.267361 28.4222 0.534783 28.4222 0.800095L28.4222 0.800173Z" fill="black"/>
</svg>
