<svg width="31" height="30" viewBox="0 0 31 30" fill="none" xmlns="http://www.w3.org/2000/svg">
<path d="M14.1192 24.9048L14.1185 24.9042C10.7612 21.8413 8.01459 19.3316 6.10145 16.9768C4.1939 14.6289 3.1665 12.4955 3.1665 10.1935C3.1665 6.42592 6.0909 3.5 9.8165 3.5C11.9262 3.5 13.9602 4.49069 15.2861 6.04494L15.6665 6.49084L16.0469 6.04494C17.3728 4.49069 19.4068 3.5 21.5165 3.5C25.2421 3.5 28.1665 6.42592 28.1665 10.1935C28.1665 12.4955 27.1391 14.6289 25.2316 16.9768C23.3184 19.3316 20.5718 21.8413 17.2145 24.9042L17.2138 24.9048L15.6665 26.322L14.1192 24.9048Z" stroke="#210637"/>
</svg>
