<svg width="18" height="18" viewBox="0 0 18 18" fill="none" xmlns="http://www.w3.org/2000/svg">
<g id="Group">
<path id="Vector" d="M11.25 3C11.6478 3 12.0294 3.15804 12.3107 3.43934C12.592 3.72064 12.75 4.10218 12.75 4.5V5.25H13.89C14.1148 5.25003 14.3368 5.30059 14.5394 5.39796C14.7421 5.49532 14.9202 5.637 15.0607 5.8125L16.1708 7.20075C16.3838 7.46677 16.4999 7.79742 16.5 8.13825V11.25C16.5 11.6478 16.342 12.0294 16.0607 12.3107C15.7794 12.592 15.3978 12.75 15 12.75H14.25C14.25 13.3467 14.0129 13.919 13.591 14.341C13.169 14.7629 12.5967 15 12 15C11.4033 15 10.831 14.7629 10.409 14.341C9.98705 13.919 9.75 13.3467 9.75 12.75H7.5C7.5 13.0455 7.4418 13.3381 7.32873 13.611C7.21566 13.884 7.04992 14.1321 6.84099 14.341C6.63206 14.5499 6.38402 14.7157 6.11104 14.8287C5.83806 14.9418 5.54547 15 5.25 15C4.95453 15 4.66194 14.9418 4.38896 14.8287C4.11598 14.7157 3.86794 14.5499 3.65901 14.341C3.45008 14.1321 3.28434 13.884 3.17127 13.611C3.0582 13.3381 3 13.0455 3 12.75C2.60218 12.75 2.22064 12.592 1.93934 12.3107C1.65804 12.0294 1.5 11.6478 1.5 11.25V4.5C1.5 4.10218 1.65804 3.72064 1.93934 3.43934C2.22064 3.15804 2.60218 3 3 3H11.25ZM5.25 12C5.05109 12 4.86032 12.079 4.71967 12.2197C4.57902 12.3603 4.5 12.5511 4.5 12.75C4.5 12.9489 4.57902 13.1397 4.71967 13.2803C4.86032 13.421 5.05109 13.5 5.25 13.5C5.44891 13.5 5.63968 13.421 5.78033 13.2803C5.92098 13.1397 6 12.9489 6 12.75C6 12.5511 5.92098 12.3603 5.78033 12.2197C5.63968 12.079 5.44891 12 5.25 12ZM12 12C11.8011 12 11.6103 12.079 11.4697 12.2197C11.329 12.3603 11.25 12.5511 11.25 12.75C11.25 12.9489 11.329 13.1397 11.4697 13.2803C11.6103 13.421 11.8011 13.5 12 13.5C12.1989 13.5 12.3897 13.421 12.5303 13.2803C12.671 13.1397 12.75 12.9489 12.75 12.75C12.75 12.5511 12.671 12.3603 12.5303 12.2197C12.3897 12.079 12.1989 12 12 12ZM13.89 6.75H12.75V9.75H15V8.1375L13.89 6.75Z" fill="#785596"/>
</g>
</svg>
