<svg width="36" height="76" viewBox="0 0 36 76" fill="none" xmlns="http://www.w3.org/2000/svg">
<g filter="url(#filter0_d_341_2794)">
<path d="M6 2H30V66L18 55.76L6 66V2Z" fill="white"/>
<path d="M6 1C5.44772 1 5 1.44772 5 2V66C5 66.3901 5.22688 66.7446 5.58114 66.9081C5.9354 67.0715 6.35235 67.0139 6.64912 66.7607L18 57.0746L29.3509 66.7607C29.6476 67.0139 30.0646 67.0715 30.4189 66.9081C30.7731 66.7446 31 66.3901 31 66V2C31 1.44772 30.5523 1 30 1H6Z" stroke="#785596" stroke-width="2" stroke-linejoin="round"/>
</g>
<g clip-path="url(#clip0_341_2794)">
<path d="M20.25 9C20.6478 9 21.0294 9.15804 21.3107 9.43934C21.592 9.72064 21.75 10.1022 21.75 10.5V11.25H22.89C23.1148 11.25 23.3368 11.3006 23.5394 11.398C23.7421 11.4953 23.9202 11.637 24.0607 11.8125L25.1708 13.2007C25.3838 13.4668 25.4999 13.7974 25.5 14.1382V17.25C25.5 17.6478 25.342 18.0294 25.0607 18.3107C24.7794 18.592 24.3978 18.75 24 18.75H23.25C23.25 19.3467 23.0129 19.919 22.591 20.341C22.169 20.7629 21.5967 21 21 21C20.4033 21 19.831 20.7629 19.409 20.341C18.9871 19.919 18.75 19.3467 18.75 18.75H16.5C16.5 19.0455 16.4418 19.3381 16.3287 19.611C16.2157 19.884 16.0499 20.1321 15.841 20.341C15.6321 20.5499 15.384 20.7157 15.111 20.8287C14.8381 20.9418 14.5455 21 14.25 21C13.9545 21 13.6619 20.9418 13.389 20.8287C13.116 20.7157 12.8679 20.5499 12.659 20.341C12.4501 20.1321 12.2843 19.884 12.1713 19.611C12.0582 19.3381 12 19.0455 12 18.75C11.6022 18.75 11.2206 18.592 10.9393 18.3107C10.658 18.0294 10.5 17.6478 10.5 17.25V10.5C10.5 10.1022 10.658 9.72064 10.9393 9.43934C11.2206 9.15804 11.6022 9 12 9H20.25ZM14.25 18C14.0511 18 13.8603 18.079 13.7197 18.2197C13.579 18.3603 13.5 18.5511 13.5 18.75C13.5 18.9489 13.579 19.1397 13.7197 19.2803C13.8603 19.421 14.0511 19.5 14.25 19.5C14.4489 19.5 14.6397 19.421 14.7803 19.2803C14.921 19.1397 15 18.9489 15 18.75C15 18.5511 14.921 18.3603 14.7803 18.2197C14.6397 18.079 14.4489 18 14.25 18ZM21 18C20.8011 18 20.6103 18.079 20.4697 18.2197C20.329 18.3603 20.25 18.5511 20.25 18.75C20.25 18.9489 20.329 19.1397 20.4697 19.2803C20.6103 19.421 20.8011 19.5 21 19.5C21.1989 19.5 21.3897 19.421 21.5303 19.2803C21.671 19.1397 21.75 18.9489 21.75 18.75C21.75 18.5511 21.671 18.3603 21.5303 18.2197C21.3897 18.079 21.1989 18 21 18ZM22.89 12.75H21.75V15.75H24V14.1375L22.89 12.75Z" fill="#785596"/>
</g>
<path d="M10.29 33.9H15.73V35.03H10.29V33.9ZM9.21 30.89H12.04V31.93H9.21V30.89ZM8.99 36.17H16.96V37.27H8.99V36.17ZM11.62 30.89H11.83L12.04 30.85L12.84 31.22C12.16 33.26 10.66 34.69 8.95 35.5C8.79 35.23 8.46 34.82 8.22 34.6C9.71 33.98 11.1 32.62 11.62 31.1V30.89ZM11.14 34.47H12.33V36.2C12.33 37.62 11.97 39.11 9.5 39.94C9.35 39.67 8.98 39.2 8.73 38.99C10.86 38.32 11.14 37.21 11.14 36.18V34.47ZM14.09 30.52C14.73 32.24 16.04 33.73 17.8 34.43C17.52 34.67 17.15 35.15 16.96 35.47C15.1 34.59 13.8 32.91 13.02 30.83L14.09 30.52ZM8.9 32.71L9.66 32.08C10.04 32.35 10.56 32.74 10.82 33.01L10.03 33.7C9.79 33.44 9.29 33.01 8.9 32.71ZM15.49 30.67L16.39 31.3C15.87 31.78 15.26 32.28 14.79 32.59L14.07 32.04C14.52 31.69 15.14 31.1 15.49 30.67ZM16.68 31.81L17.56 32.43C17.02 32.92 16.36 33.44 15.85 33.78L15.13 33.23C15.62 32.87 16.29 32.26 16.68 31.81ZM13.57 34.52H14.82V38.35C14.82 38.72 14.86 38.77 15.14 38.77C15.26 38.77 15.76 38.77 15.9 38.77C16.17 38.77 16.22 38.58 16.26 37.64C16.51 37.83 17 38.03 17.33 38.1C17.22 39.43 16.9 39.84 16.02 39.84C15.8 39.84 15.14 39.84 14.92 39.84C13.83 39.84 13.57 39.48 13.57 38.35V34.52ZM21.16 34.3H27.56V35.37H21.16V34.3ZM21.51 32.28H27.22V33.33H21.51V32.28ZM23.63 32.79H24.83V34.4C24.83 35.67 24.34 37.25 21.96 38.28C21.81 38.03 21.44 37.62 21.16 37.41C23.42 36.59 23.63 35.31 23.63 34.38V32.79ZM25.01 35.06C25.41 36.17 26.26 36.95 27.58 37.29C27.32 37.53 26.99 37.99 26.83 38.3C25.35 37.81 24.49 36.78 24 35.27L25.01 35.06ZM20.77 34.41V38.09H19.6V35.52H18.43V34.41H20.77ZM20.77 37.57C21.17 38.23 21.93 38.52 22.97 38.56C24.14 38.61 26.41 38.58 27.76 38.47C27.63 38.75 27.43 39.33 27.38 39.69C26.17 39.75 24.15 39.77 22.95 39.72C21.72 39.67 20.89 39.38 20.24 38.6C19.8 38.99 19.35 39.37 18.81 39.81L18.22 38.56C18.67 38.28 19.21 37.93 19.67 37.57H20.77ZM18.45 31.46L19.34 30.74C19.94 31.16 20.68 31.79 21.02 32.26L20.06 33.05C19.76 32.58 19.04 31.91 18.45 31.46ZM25.69 30.5L26.92 30.88C26.55 31.46 26.16 32.05 25.84 32.44L24.86 32.09C25.15 31.65 25.51 30.99 25.69 30.5ZM21.77 30.94L22.79 30.53C23.16 30.98 23.53 31.61 23.67 32.05L22.58 32.52C22.47 32.09 22.12 31.43 21.77 30.94ZM10.35 44.51L11.53 44.85C10.98 45.96 10.09 47.04 9.25 47.7C9.03 47.48 8.55 47.1 8.27 46.92C9.11 46.36 9.91 45.44 10.35 44.51ZM10.27 45.56H17.16V46.62H9.98L10.27 45.56ZM8.48 47.89H17.52V48.96H8.48V47.89ZM8.65 50.24H17.38V51.31H8.65V50.24ZM11.61 45.94H12.62V50.8H11.61V45.94ZM9.84 45.94H10.9V50.81H9.84V45.94ZM13.35 45.94H14.35V50.81H13.35V45.94ZM15.11 45.94H16.21V50.81H15.11V45.94ZM11.31 51.87L12.42 51.74C12.55 52.35 12.67 53.14 12.68 53.63L11.5 53.8C11.5 53.31 11.43 52.49 11.31 51.87ZM13.3 51.89L14.43 51.7C14.68 52.29 14.93 53.08 15.02 53.57L13.82 53.81C13.75 53.32 13.53 52.51 13.3 51.89ZM15.29 51.84L16.44 51.48C16.89 52.09 17.46 52.94 17.71 53.5L16.49 53.91C16.27 53.36 15.74 52.48 15.29 51.84ZM9.51 51.52L10.68 51.8C10.45 52.57 10.02 53.39 9.54 53.91L8.38 53.45C8.84 53.03 9.28 52.25 9.51 51.52ZM19.89 44.56H21V53.88H19.89V44.56ZM18.38 47.84H22.48V48.96H18.38V47.84ZM19.68 48.44L20.34 48.76C20.02 50.1 19.4 51.84 18.74 52.8C18.63 52.43 18.37 51.9 18.19 51.56C18.79 50.82 19.4 49.43 19.68 48.44ZM20.98 49.02C21.27 49.28 22.24 50.44 22.46 50.72L21.72 51.66C21.46 51.09 20.79 49.98 20.43 49.49L20.98 49.02ZM18.36 45.33L19.2 45.11C19.46 45.84 19.66 46.79 19.71 47.42L18.81 47.66C18.79 47.03 18.6 46.06 18.36 45.33ZM21.66 45.06L22.67 45.28C22.41 46.09 22.11 47.04 21.86 47.63L21.11 47.42C21.31 46.78 21.55 45.77 21.66 45.06ZM25.44 44.5H26.57V53.89H25.44V44.5ZM22.45 50.76L27.59 49.84L27.77 50.95L22.64 51.88L22.45 50.76ZM23.02 45.87L23.61 45.05C24.17 45.39 24.88 45.89 25.21 46.26L24.58 47.17C24.28 46.78 23.58 46.23 23.02 45.87ZM22.57 48.39L23.13 47.53C23.71 47.84 24.46 48.32 24.82 48.69L24.22 49.64C23.88 49.27 23.15 48.73 22.57 48.39Z" fill="#3D2357"/>
<defs>
<filter id="filter0_d_341_2794" x="0" y="0" width="36" height="76" filterUnits="userSpaceOnUse" color-interpolation-filters="sRGB">
<feFlood flood-opacity="0" result="BackgroundImageFix"/>
<feColorMatrix in="SourceAlpha" type="matrix" values="0 0 0 0 0 0 0 0 0 0 0 0 0 0 0 0 0 0 127 0" result="hardAlpha"/>
<feOffset dy="4"/>
<feGaussianBlur stdDeviation="2"/>
<feComposite in2="hardAlpha" operator="out"/>
<feColorMatrix type="matrix" values="0 0 0 0 0 0 0 0 0 0 0 0 0 0 0 0 0 0 0.25 0"/>
<feBlend mode="normal" in2="BackgroundImageFix" result="effect1_dropShadow_341_2794"/>
<feBlend mode="normal" in="SourceGraphic" in2="effect1_dropShadow_341_2794" result="shape"/>
</filter>
<clipPath id="clip0_341_2794">
<rect width="18" height="18" fill="white" transform="translate(9 6)"/>
</clipPath>
</defs>
</svg>
