<svg width="40" height="40" viewBox="0 0 40 40" fill="none" xmlns="http://www.w3.org/2000/svg">
<g filter="url(#filter0_d_484_3691)">
<path d="M24.6304 9.26914C25.6351 9.10771 26.6152 9.67356 26.9777 10.6244C27.3988 11.7287 28.2711 12.601 29.3754 13.0221C30.3262 13.3846 30.8921 14.3647 30.7307 15.3694C30.5432 16.5364 30.8624 17.7279 31.6083 18.6447C32.2504 19.4341 32.2504 20.5658 31.6083 21.3552C30.8624 22.2721 30.5432 23.4636 30.7307 24.6305C30.8921 25.6352 30.3262 26.6153 29.3754 26.9779C28.2711 27.399 27.3988 28.2712 26.9777 29.3756C26.6152 30.3264 25.6351 30.8922 24.6304 30.7308C23.4634 30.5433 22.2719 30.8626 21.3551 31.6084C20.5657 32.2506 19.434 32.2506 18.6446 31.6084C17.7277 30.8626 16.5362 30.5433 15.3693 30.7308C14.3646 30.8922 13.3845 30.3264 13.0219 29.3756C12.6009 28.2712 11.7286 27.399 10.6243 26.9779C9.67344 26.6153 9.10759 25.6352 9.26902 24.6305C9.45651 23.4636 9.13725 22.2721 8.3914 21.3552C7.74924 20.5658 7.74924 19.4341 8.3914 18.6447C9.13725 17.7279 9.45651 16.5364 9.26902 15.3694C9.10759 14.3647 9.67344 13.3846 10.6243 13.0221C11.7286 12.601 12.6009 11.7287 13.0219 10.6244C13.3845 9.67356 14.3646 9.10771 15.3693 9.26914C16.5362 9.45663 17.7277 9.13737 18.6446 8.39152C19.434 7.74937 20.5657 7.74937 21.3551 8.39152C22.2719 9.13737 23.4634 9.45663 24.6304 9.26914Z" fill="#FFD600" fill-opacity="0.9" stroke="#D64D00" stroke-width="2"/>
<mask id="path-3-outside-1_484_3691" maskUnits="userSpaceOnUse" x="9.33936" y="11.5359" width="22.1865" height="17.4282" fill="black">
<rect fill="white" x="9.33936" y="11.5359" width="22.1865" height="17.4282"/>
<path d="M15.3822 20.7982L13.858 19.9182L13.9546 15.1428L13.9269 15.1268C13.8755 15.2264 13.8188 15.3353 13.7568 15.4534C13.702 15.5696 13.6423 15.6891 13.5776 15.8119C13.5155 15.93 13.4535 16.0481 13.3914 16.1663C13.332 16.2798 13.274 16.391 13.2173 16.4999L11.8973 18.7862L10.8442 18.1782L13.7002 13.2315L15.2175 14.1075L15.1379 18.8373L15.1586 18.8493C15.21 18.7497 15.2641 18.6454 15.3208 18.5365C15.3802 18.423 15.4396 18.3095 15.4989 18.196C15.561 18.0778 15.6204 17.9643 15.6771 17.8554C15.7411 17.7445 15.8001 17.637 15.8541 17.5327L17.1781 15.2395L18.2382 15.8515L15.3822 20.7982ZM19.4368 23.1392L16.5478 21.4712L19.4038 16.5244L22.2928 18.1924L21.7408 19.1485L20.0296 18.1605L19.4816 19.1097L21.0681 20.0257L20.5161 20.9818L18.9296 20.0658L18.2856 21.1812L19.9968 22.1692L19.4368 23.1392ZM29.5445 22.3792L25.4484 26.6099L24.0766 25.8179L24.8815 23.0957C24.897 23.0369 24.9235 22.9536 24.961 22.846C25.0012 22.7337 25.0421 22.6095 25.0837 22.4734C25.1327 22.3354 25.1799 22.2056 25.2254 22.0841C25.2736 21.958 25.3131 21.8576 25.3438 21.783C25.2946 21.8469 25.2251 21.93 25.1353 22.0321C25.0529 22.1323 24.9641 22.2381 24.869 22.3494C24.7765 22.4562 24.6895 22.5537 24.6077 22.642C24.5332 22.7283 24.4744 22.7929 24.4312 22.8357L22.4692 24.8899L21.1044 24.1019L22.7133 18.4352L23.8634 19.0992L22.9523 22.0373C22.9307 22.1172 22.8982 22.2216 22.8546 22.3504C22.8137 22.4746 22.7675 22.608 22.7159 22.7507C22.667 22.8887 22.6171 23.0231 22.5663 23.1538C22.5227 23.2827 22.4815 23.3913 22.4428 23.4798C22.5206 23.3769 22.6124 23.2606 22.7182 23.1307C22.8286 23.0035 22.9403 22.874 23.0533 22.7422C23.1664 22.6104 23.2741 22.4879 23.3765 22.3745C23.4788 22.2612 23.5642 22.172 23.6327 22.1068L25.5816 20.0912L26.6832 20.7272L25.9121 23.4228C25.8806 23.5093 25.8414 23.6252 25.7944 23.7705C25.7521 23.9185 25.7008 24.0767 25.6405 24.2452C25.5875 24.4116 25.5312 24.5731 25.4716 24.7296C25.412 24.8862 25.3585 25.0215 25.311 25.1358C25.3916 25.0283 25.4923 24.9017 25.6134 24.7561C25.7417 24.6085 25.8687 24.4632 25.9944 24.3202C26.1227 24.1726 26.2251 24.0592 26.3015 23.9802L28.3944 21.7152L29.5445 22.3792Z"/>
</mask>
<path d="M15.3822 20.7982L13.858 19.9182L13.9546 15.1428L13.9269 15.1268C13.8755 15.2264 13.8188 15.3353 13.7568 15.4534C13.702 15.5696 13.6423 15.6891 13.5776 15.8119C13.5155 15.93 13.4535 16.0481 13.3914 16.1663C13.332 16.2798 13.274 16.391 13.2173 16.4999L11.8973 18.7862L10.8442 18.1782L13.7002 13.2315L15.2175 14.1075L15.1379 18.8373L15.1586 18.8493C15.21 18.7497 15.2641 18.6454 15.3208 18.5365C15.3802 18.423 15.4396 18.3095 15.4989 18.196C15.561 18.0778 15.6204 17.9643 15.6771 17.8554C15.7411 17.7445 15.8001 17.637 15.8541 17.5327L17.1781 15.2395L18.2382 15.8515L15.3822 20.7982ZM19.4368 23.1392L16.5478 21.4712L19.4038 16.5244L22.2928 18.1924L21.7408 19.1485L20.0296 18.1605L19.4816 19.1097L21.0681 20.0257L20.5161 20.9818L18.9296 20.0658L18.2856 21.1812L19.9968 22.1692L19.4368 23.1392ZM29.5445 22.3792L25.4484 26.6099L24.0766 25.8179L24.8815 23.0957C24.897 23.0369 24.9235 22.9536 24.961 22.846C25.0012 22.7337 25.0421 22.6095 25.0837 22.4734C25.1327 22.3354 25.1799 22.2056 25.2254 22.0841C25.2736 21.958 25.3131 21.8576 25.3438 21.783C25.2946 21.8469 25.2251 21.93 25.1353 22.0321C25.0529 22.1323 24.9641 22.2381 24.869 22.3494C24.7765 22.4562 24.6895 22.5537 24.6077 22.642C24.5332 22.7283 24.4744 22.7929 24.4312 22.8357L22.4692 24.8899L21.1044 24.1019L22.7133 18.4352L23.8634 19.0992L22.9523 22.0373C22.9307 22.1172 22.8982 22.2216 22.8546 22.3504C22.8137 22.4746 22.7675 22.608 22.7159 22.7507C22.667 22.8887 22.6171 23.0231 22.5663 23.1538C22.5227 23.2827 22.4815 23.3913 22.4428 23.4798C22.5206 23.3769 22.6124 23.2606 22.7182 23.1307C22.8286 23.0035 22.9403 22.874 23.0533 22.7422C23.1664 22.6104 23.2741 22.4879 23.3765 22.3745C23.4788 22.2612 23.5642 22.172 23.6327 22.1068L25.5816 20.0912L26.6832 20.7272L25.9121 23.4228C25.8806 23.5093 25.8414 23.6252 25.7944 23.7705C25.7521 23.9185 25.7008 24.0767 25.6405 24.2452C25.5875 24.4116 25.5312 24.5731 25.4716 24.7296C25.412 24.8862 25.3585 25.0215 25.311 25.1358C25.3916 25.0283 25.4923 24.9017 25.6134 24.7561C25.7417 24.6085 25.8687 24.4632 25.9944 24.3202C26.1227 24.1726 26.2251 24.0592 26.3015 23.9802L28.3944 21.7152L29.5445 22.3792Z" fill="#D64D00"/>
<path d="M15.3822 20.7982L15.1322 21.2312L15.5652 21.4812L15.8152 21.0482L15.3822 20.7982ZM13.858 19.9182L13.3581 19.9081L13.3521 20.2035L13.608 20.3512L13.858 19.9182ZM13.9546 15.1428L14.4545 15.1529L14.4605 14.8575L14.2046 14.7097L13.9546 15.1428ZM13.9269 15.1268L14.1769 14.6937L13.7228 14.4316L13.4825 14.8976L13.9269 15.1268ZM13.7568 15.4534L13.3141 15.221L13.3091 15.2305L13.3045 15.2403L13.7568 15.4534ZM13.5776 15.8119L13.1353 15.5787L13.1349 15.5794L13.5776 15.8119ZM13.3914 16.1663L12.9488 15.9338L12.9484 15.9345L13.3914 16.1663ZM13.2173 16.4999L13.6503 16.7499L13.6557 16.7405L13.6607 16.7309L13.2173 16.4999ZM11.8973 18.7862L11.6473 19.2192L12.0803 19.4692L12.3303 19.0362L11.8973 18.7862ZM10.8442 18.1782L10.4112 17.9282L10.1612 18.3612L10.5942 18.6112L10.8442 18.1782ZM13.7002 13.2315L13.9502 12.7985L13.5172 12.5485L13.2672 12.9815L13.7002 13.2315ZM15.2175 14.1075L15.7174 14.1159L15.7223 13.8216L15.4675 13.6745L15.2175 14.1075ZM15.1379 18.8373L14.6379 18.8289L14.633 19.1232L14.8879 19.2704L15.1379 18.8373ZM15.1586 18.8493L14.9086 19.2824L15.3628 19.5445L15.6031 19.0785L15.1586 18.8493ZM15.3208 18.5365L14.8777 18.3047L14.8773 18.3055L15.3208 18.5365ZM15.4989 18.196L15.0563 17.9635L15.0559 17.9642L15.4989 18.196ZM15.6771 17.8554L15.2441 17.6054L15.2386 17.6148L15.2336 17.6244L15.6771 17.8554ZM15.8541 17.5327L15.4211 17.2827L15.4155 17.2925L15.4102 17.3026L15.8541 17.5327ZM17.1781 15.2395L17.4281 14.8065L16.9951 14.5565L16.7451 14.9895L17.1781 15.2395ZM18.2382 15.8515L18.6712 16.1015L18.9212 15.6685L18.4882 15.4185L18.2382 15.8515ZM15.6322 20.3652L14.108 19.4852L13.608 20.3512L15.1322 21.2312L15.6322 20.3652ZM14.3579 19.9283L14.4545 15.1529L13.4547 15.1326L13.3581 19.9081L14.3579 19.9283ZM14.2046 14.7097L14.1769 14.6937L13.6769 15.5598L13.7046 15.5758L14.2046 14.7097ZM13.4825 14.8976C13.4318 14.996 13.3757 15.1037 13.3141 15.221L14.1994 15.6859C14.262 15.5669 14.3193 15.4568 14.3713 15.3559L13.4825 14.8976ZM13.3045 15.2403C13.2532 15.3492 13.1968 15.462 13.1353 15.5787L14.0199 16.045C14.0878 15.9162 14.1509 15.7901 14.2091 15.6666L13.3045 15.2403ZM13.1349 15.5794C13.1219 15.6042 13.1014 15.6432 13.0884 15.668C13.0753 15.6928 13.0549 15.7318 13.0418 15.7566C13.0288 15.7814 13.0316 15.7761 13.0186 15.8009C13.0055 15.8257 13.0083 15.8204 12.9953 15.8452C12.9823 15.87 12.9851 15.8647 12.972 15.8895C12.959 15.9143 12.9618 15.909 12.9488 15.9338L13.8341 16.3988C13.8402 16.3871 13.8512 16.3661 13.8573 16.3545C13.8635 16.3428 13.8745 16.3218 13.8806 16.3102C13.8867 16.2985 13.8978 16.2775 13.9039 16.2659C13.91 16.2542 13.921 16.2332 13.9271 16.2216C13.9333 16.2099 13.9676 16.1446 13.9737 16.133C13.9798 16.1213 14.0141 16.056 14.0202 16.0444L13.1349 15.5794ZM12.9484 15.9345C12.8889 16.0483 12.8307 16.1598 12.7738 16.2689L13.6607 16.7309C13.7173 16.6222 13.7752 16.5113 13.8345 16.398L12.9484 15.9345ZM12.7843 16.2499L11.4643 18.5362L12.3303 19.0362L13.6503 16.7499L12.7843 16.2499ZM12.1473 18.3532L11.0942 17.7452L10.5942 18.6112L11.6473 19.2192L12.1473 18.3532ZM11.2772 18.4282L14.1332 13.4815L13.2672 12.9815L10.4112 17.9282L11.2772 18.4282ZM13.4502 13.6645L14.9675 14.5405L15.4675 13.6745L13.9502 12.7985L13.4502 13.6645ZM14.7175 14.0991L14.6379 18.8289L15.6378 18.8458L15.7174 14.1159L14.7175 14.0991ZM14.8879 19.2704L14.9086 19.2824L15.4086 18.4163L15.3879 18.4043L14.8879 19.2704ZM15.6031 19.0785C15.6541 18.9795 15.7078 18.8758 15.7643 18.7675L14.8773 18.3055C14.8203 18.415 14.766 18.5199 14.7142 18.6202L15.6031 19.0785ZM15.7638 18.7683C15.8232 18.6547 15.8826 18.5412 15.942 18.4277L15.0559 17.9642C14.9965 18.0777 14.9371 18.1912 14.8777 18.3047L15.7638 18.7683ZM15.9416 18.4284C16.0039 18.3098 16.0635 18.1958 16.1205 18.0864L15.2336 17.6244C15.1772 17.7328 15.1181 17.8458 15.0563 17.9635L15.9416 18.4284ZM16.1101 18.1054C16.1775 17.9886 16.2402 17.8743 16.2981 17.7628L15.4102 17.3026C15.36 17.3996 15.3046 17.5005 15.2441 17.6054L16.1101 18.1054ZM16.2872 17.7827L17.6112 15.4895L16.7451 14.9895L15.4211 17.2827L16.2872 17.7827ZM16.9281 15.6725L17.9882 16.2845L18.4882 15.4185L17.4281 14.8065L16.9281 15.6725ZM17.8051 15.6015L14.9491 20.5482L15.8152 21.0482L18.6712 16.1015L17.8051 15.6015ZM19.4368 23.1392L19.1868 23.5722L19.6199 23.8222L19.8699 23.3892L19.4368 23.1392ZM16.5478 21.4712L16.1148 21.2212L15.8648 21.6542L16.2978 21.9042L16.5478 21.4712ZM19.4038 16.5244L19.6538 16.0914L19.2208 15.8414L18.9708 16.2744L19.4038 16.5244ZM22.2928 18.1924L22.7259 18.4424L22.9759 18.0094L22.5428 17.7594L22.2928 18.1924ZM21.7408 19.1485L21.4908 19.5815L21.9239 19.8315L22.1739 19.3985L21.7408 19.1485ZM20.0296 18.1605L20.2796 17.7275L19.8466 17.4775L19.5966 17.9105L20.0296 18.1605ZM19.4816 19.1097L19.0486 18.8597L18.7986 19.2927L19.2316 19.5427L19.4816 19.1097ZM21.0681 20.0257L21.5011 20.2757L21.7511 19.8427L21.3181 19.5927L21.0681 20.0257ZM20.5161 20.9818L20.2661 21.4148L20.6991 21.6648L20.9491 21.2318L20.5161 20.9818ZM18.9296 20.0658L19.1796 19.6328L18.7466 19.3828L18.4966 19.8158L18.9296 20.0658ZM18.2856 21.1812L17.8526 20.9312L17.6026 21.3642L18.0356 21.6142L18.2856 21.1812ZM19.9968 22.1692L20.4299 22.4192L20.6799 21.9862L20.2468 21.7362L19.9968 22.1692ZM19.6868 22.7062L16.7978 21.0382L16.2978 21.9042L19.1868 23.5722L19.6868 22.7062ZM16.9808 21.7212L19.8368 16.7744L18.9708 16.2744L16.1148 21.2212L16.9808 21.7212ZM19.1538 16.9574L22.0428 18.6254L22.5428 17.7594L19.6538 16.0914L19.1538 16.9574ZM21.8598 17.9424L21.3078 18.8985L22.1739 19.3985L22.7259 18.4424L21.8598 17.9424ZM21.9908 18.7155L20.2796 17.7275L19.7796 18.5935L21.4908 19.5815L21.9908 18.7155ZM19.5966 17.9105L19.0486 18.8597L19.9146 19.3597L20.4626 18.4105L19.5966 17.9105ZM19.2316 19.5427L20.8181 20.4587L21.3181 19.5927L19.7316 18.6767L19.2316 19.5427ZM20.6351 19.7757L20.0831 20.7318L20.9491 21.2318L21.5011 20.2757L20.6351 19.7757ZM20.7661 20.5488L19.1796 19.6328L18.6796 20.4988L20.2661 21.4148L20.7661 20.5488ZM18.4966 19.8158L17.8526 20.9312L18.7186 21.4312L19.3626 20.3158L18.4966 19.8158ZM18.0356 21.6142L19.7468 22.6022L20.2468 21.7362L18.5356 20.7482L18.0356 21.6142ZM19.5638 21.9192L19.0038 22.8892L19.8699 23.3892L20.4299 22.4192L19.5638 21.9192ZM29.5445 22.3792L29.9037 22.727L30.3495 22.2666L29.7945 21.9462L29.5445 22.3792ZM25.4484 26.6099L25.1984 27.0429L25.5362 27.238L25.8076 26.9577L25.4484 26.6099ZM24.0766 25.8179L23.5971 25.6761L23.4854 26.0539L23.8266 26.2509L24.0766 25.8179ZM24.8815 23.0957L25.361 23.2375L25.3631 23.2302L25.3651 23.2229L24.8815 23.0957ZM24.961 22.846L24.4903 22.6775L24.4889 22.6814L24.961 22.846ZM25.0837 22.4734L24.6125 22.3065L24.6088 22.3168L24.6056 22.3272L25.0837 22.4734ZM25.2254 22.0841L24.7583 21.9056L24.7572 21.9087L25.2254 22.0841ZM25.3438 21.783L25.8061 21.9735L24.9477 21.4779L25.3438 21.783ZM25.1353 22.0321L24.7598 21.702L24.7544 21.7081L24.7493 21.7143L25.1353 22.0321ZM24.869 22.3494L25.247 22.6767L25.2492 22.6741L24.869 22.3494ZM24.6077 22.642L24.2409 22.3022L24.2349 22.3087L24.2291 22.3154L24.6077 22.642ZM24.4312 22.8357L24.0791 22.4804L24.0696 22.4904L24.4312 22.8357ZM22.4692 24.8899L22.2192 25.3229L22.5595 25.5194L22.8308 25.2353L22.4692 24.8899ZM21.1044 24.1019L20.6234 23.9654L20.517 24.3401L20.8544 24.5349L21.1044 24.1019ZM22.7133 18.4352L22.9633 18.0022L22.4076 17.6813L22.2323 18.2986L22.7133 18.4352ZM23.8634 19.0992L24.3409 19.2473L24.4592 18.8658L24.1134 18.6662L23.8634 19.0992ZM22.9523 22.0373L22.4747 21.8892L22.4719 21.8982L22.4695 21.9073L22.9523 22.0373ZM22.8546 22.3504L22.381 22.1902L22.3797 22.194L22.8546 22.3504ZM22.7159 22.7507L22.2457 22.5807L22.2446 22.5837L22.7159 22.7507ZM22.5663 23.1538L22.1003 22.9726L22.0962 22.983L22.0926 22.9936L22.5663 23.1538ZM22.4428 23.4798L21.9848 23.2791L22.8414 23.7815L22.4428 23.4798ZM22.7182 23.1307L22.3406 22.803L22.3354 22.8089L22.3305 22.815L22.7182 23.1307ZM23.0533 22.7422L23.4328 23.0678L23.4328 23.0678L23.0533 22.7422ZM23.6327 22.1068L23.9775 22.4688L23.985 22.4617L23.9921 22.4543L23.6327 22.1068ZM25.5816 20.0912L25.8316 19.6582L25.4935 19.463L25.2221 19.7436L25.5816 20.0912ZM26.6832 20.7272L27.1639 20.8647L27.2712 20.4894L26.9332 20.2942L26.6832 20.7272ZM25.9121 23.4228L26.3819 23.5937L26.3879 23.5772L26.3928 23.5603L25.9121 23.4228ZM25.7944 23.7705L25.3186 23.6168L25.316 23.6249L25.3137 23.633L25.7944 23.7705ZM25.6405 24.2452L25.1697 24.0767L25.1667 24.085L25.164 24.0935L25.6405 24.2452ZM25.4716 24.7296L25.9389 24.9075L25.9389 24.9075L25.4716 24.7296ZM25.311 25.1358L24.8493 24.9439L25.7112 25.4356L25.311 25.1358ZM25.6134 24.7561L25.236 24.4279L25.2288 24.4365L25.6134 24.7561ZM25.9944 24.3202L26.37 24.6502L26.3717 24.6482L25.9944 24.3202ZM26.3015 23.9802L26.6611 24.3278L26.6688 24.3195L26.3015 23.9802ZM28.3944 21.7152L28.6444 21.2822L28.2984 21.0824L28.0272 21.3759L28.3944 21.7152ZM29.1853 22.0314L25.0891 26.2621L25.8076 26.9577L29.9037 22.727L29.1853 22.0314ZM25.6984 26.1769L24.3266 25.3849L23.8266 26.2509L25.1984 27.0429L25.6984 26.1769ZM24.556 25.9597L25.361 23.2375L24.4021 22.9539L23.5971 25.6761L24.556 25.9597ZM25.3651 23.2229C25.3755 23.1832 25.3969 23.1146 25.4332 23.0106L24.4889 22.6814C24.4501 22.7927 24.4185 22.8906 24.398 22.9684L25.3651 23.2229ZM25.4318 23.0145C25.4751 22.8936 25.5184 22.7619 25.5619 22.6197L24.6056 22.3272C24.5659 22.4572 24.5274 22.5738 24.4903 22.6775L25.4318 23.0145ZM25.555 22.6404C25.6031 22.5048 25.6493 22.3779 25.6936 22.2595L24.7572 21.9087C24.7105 22.0333 24.6622 22.1659 24.6125 22.3065L25.555 22.6404ZM25.6925 22.2625C25.74 22.1382 25.7777 22.0424 25.8061 21.9735L24.8816 21.5924C24.8484 21.6728 24.8072 21.7778 24.7583 21.9056L25.6925 22.2625ZM24.9477 21.4779C24.9079 21.5295 24.8465 21.6033 24.7598 21.702L25.5109 22.3622C25.6037 22.2566 25.6812 22.1643 25.74 22.088L24.9477 21.4779ZM24.7493 21.7143C24.669 21.8119 24.5821 21.9154 24.4887 22.0248L25.2492 22.6741C25.346 22.5607 25.4367 22.4526 25.5213 22.3499L24.7493 21.7143ZM24.491 22.0222C24.4016 22.1254 24.3182 22.2187 24.2409 22.3022L24.9745 22.9817C25.0607 22.8887 25.1515 22.787 25.247 22.6767L24.491 22.0222ZM24.2291 22.3154C24.1572 22.3988 24.1084 22.4516 24.0792 22.4806L24.7832 23.1908C24.8404 23.1341 24.9093 23.0579 24.9863 22.9686L24.2291 22.3154ZM24.0696 22.4904L22.1076 24.5446L22.8308 25.2353L24.7928 23.181L24.0696 22.4904ZM22.7192 24.4569L21.3544 23.6689L20.8544 24.5349L22.2192 25.3229L22.7192 24.4569ZM21.5854 24.2385L23.1943 18.5717L22.2323 18.2986L20.6234 23.9654L21.5854 24.2385ZM22.4633 18.8682L23.6134 19.5322L24.1134 18.6662L22.9633 18.0022L22.4633 18.8682ZM23.3858 18.9511L22.4747 21.8892L23.4298 22.1854L24.3409 19.2473L23.3858 18.9511ZM22.4695 21.9073C22.4518 21.9727 22.423 22.0659 22.381 22.1902L23.3283 22.5106C23.3734 22.3773 23.4096 22.2617 23.4351 22.1672L22.4695 21.9073ZM22.3797 22.194C22.3405 22.313 22.2959 22.4418 22.2457 22.5807L23.1861 22.9206C23.2391 22.7742 23.2869 22.6362 23.3295 22.5068L22.3797 22.194ZM22.2446 22.5837C22.1973 22.7171 22.1492 22.8468 22.1003 22.9726L23.0323 23.3351C23.085 23.1994 23.1367 23.0602 23.1872 22.9176L22.2446 22.5837ZM22.0926 22.9936C22.052 23.1138 22.0159 23.208 21.9848 23.2791L22.9007 23.6804C22.9471 23.5746 22.9934 23.4515 23.0399 23.3141L22.0926 22.9936ZM22.8414 23.7815C22.9148 23.6846 23.0028 23.573 23.1059 23.4465L22.3305 22.815C22.222 22.9481 22.1264 23.0693 22.0441 23.178L22.8414 23.7815ZM23.0958 23.4584C23.2068 23.3305 23.3192 23.2003 23.4328 23.0678L22.6738 22.4167C22.5614 22.5478 22.4503 22.6766 22.3406 22.803L23.0958 23.4584ZM23.4328 23.0678C23.5435 22.9388 23.6483 22.8195 23.7475 22.7097L23.0054 22.0394C22.8998 22.1563 22.7893 22.2821 22.6738 22.4167L23.4328 23.0678ZM23.7475 22.7097C23.8459 22.6008 23.9219 22.5218 23.9775 22.4688L23.2878 21.7448C23.2066 21.8221 23.1118 21.9217 23.0054 22.0394L23.7475 22.7097ZM23.9921 22.4543L25.941 20.4387L25.2221 19.7436L23.2732 21.7592L23.9921 22.4543ZM25.3316 20.5242L26.4332 21.1602L26.9332 20.2942L25.8316 19.6582L25.3316 20.5242ZM26.2024 20.5897L25.4313 23.2853L26.3928 23.5603L27.1639 20.8647L26.2024 20.5897ZM25.4422 23.2518C25.4077 23.3465 25.3664 23.4689 25.3186 23.6168L26.2702 23.9243C26.3163 23.7815 26.3534 23.6721 26.3819 23.5937L25.4422 23.2518ZM25.3137 23.633C25.2748 23.7691 25.2269 23.9169 25.1697 24.0767L26.1112 24.4137C26.1746 24.2366 26.2294 24.068 26.2751 23.9081L25.3137 23.633ZM25.164 24.0935C25.1137 24.2515 25.0605 24.4043 25.0043 24.5518L25.9389 24.9075C26.0019 24.742 26.0612 24.5718 26.1169 24.3969L25.164 24.0935ZM25.0043 24.5518C24.946 24.7051 24.8943 24.8356 24.8493 24.9439L25.7727 25.3277C25.8227 25.2075 25.8781 25.0672 25.9389 24.9075L25.0043 24.5518ZM25.7112 25.4356C25.7851 25.3369 25.8803 25.2172 25.9979 25.0756L25.2288 24.4365C25.1044 24.5862 24.998 24.7197 24.9109 24.836L25.7112 25.4356ZM25.9907 25.0841C26.1185 24.9372 26.2449 24.7925 26.37 24.6502L25.6188 23.9901C25.4925 24.1338 25.365 24.2798 25.2361 24.428L25.9907 25.0841ZM26.3717 24.6482C26.498 24.503 26.5936 24.3974 26.661 24.3277L25.9421 23.6326C25.8566 23.7211 25.7475 23.8421 25.617 23.9921L26.3717 24.6482ZM26.6688 24.3195L28.7616 22.0545L28.0272 21.3759L25.9343 23.6409L26.6688 24.3195ZM28.1444 22.1482L29.2945 22.8122L29.7945 21.9462L28.6444 21.2822L28.1444 22.1482Z" fill="white" mask="url(#path-3-outside-1_484_3691)"/>
</g>
<defs>
<filter id="filter0_d_484_3691" x="-3.12451" y="-3.12439" width="46.2485" height="46.2487" filterUnits="userSpaceOnUse" color-interpolation-filters="sRGB">
<feFlood flood-opacity="0" result="BackgroundImageFix"/>
<feColorMatrix in="SourceAlpha" type="matrix" values="0 0 0 0 0 0 0 0 0 0 0 0 0 0 0 0 0 0 127 0" result="hardAlpha"/>
<feOffset/>
<feGaussianBlur stdDeviation="2"/>
<feComposite in2="hardAlpha" operator="out"/>
<feColorMatrix type="matrix" values="0 0 0 0 0 0 0 0 0 0 0 0 0 0 0 0 0 0 0.75 0"/>
<feBlend mode="normal" in2="BackgroundImageFix" result="effect1_dropShadow_484_3691"/>
<feBlend mode="normal" in="SourceGraphic" in2="effect1_dropShadow_484_3691" result="shape"/>
</filter>
</defs>
</svg>
