<svg width="18" height="18" viewBox="0 0 18 18" fill="none" xmlns="http://www.w3.org/2000/svg">
<g id=" streamline:flash-3-solid">
<path id="Vector" d="M4.16459 7.31277L5.69772 2.6994C5.77132 2.47788 5.93126 2.28243 6.15293 2.14315C6.3746 2.00387 6.64569 1.92848 6.92447 1.92859H9.3907C9.5859 1.92864 9.77846 1.96573 9.95346 2.03697C10.1285 2.10822 10.2812 2.21171 10.3998 2.33941C10.5185 2.46712 10.5998 2.61562 10.6375 2.7734C10.6753 2.93118 10.6684 3.094 10.6175 3.24924L9.7708 5.81199H12.0921C12.2953 5.81203 12.4955 5.85221 12.676 5.92914C12.8564 6.00607 13.0119 6.11752 13.1293 6.25414C13.2467 6.39077 13.3227 6.54859 13.3508 6.71438C13.3789 6.88017 13.3584 7.04909 13.2909 7.20699L11.398 11.6381H13.1256C13.2561 11.638 13.3835 11.671 13.4905 11.7326C13.5975 11.7942 13.6788 11.8814 13.7235 11.9824C13.7682 12.0834 13.7741 12.1933 13.7404 12.2971C13.7067 12.401 13.6349 12.4938 13.535 12.5629L8.64702 15.9488C8.58145 15.9942 8.50544 16.0282 8.42354 16.0487C8.34164 16.0693 8.25555 16.076 8.17043 16.0685C8.0853 16.0609 8.0029 16.0393 7.92817 16.0049C7.85344 15.9705 7.78792 15.924 7.73553 15.8682L4.55868 12.4833C4.48597 12.4059 4.44104 12.3132 4.42901 12.2159C4.41698 12.1185 4.43831 12.0203 4.4906 11.9324C4.54288 11.8445 4.62402 11.7704 4.72482 11.7186C4.82561 11.6668 4.94201 11.6393 5.06082 11.6392H6.98168L8.05334 8.63761H5.39135C5.19558 8.63773 5.00243 8.60061 4.82695 8.52912C4.65146 8.45764 4.49839 8.35374 4.37966 8.22551C4.26092 8.09729 4.17974 7.9482 4.14244 7.78988C4.10513 7.63156 4.11271 7.46828 4.16459 7.31277Z" fill="#98354C"/>
</g>
</svg>
