<svg width="230" height="108" viewBox="0 0 230 108" fill="none" xmlns="http://www.w3.org/2000/svg">
<g id="Vector" filter="url(#filter0_d_484_12382)">
<path d="M224.298 91.9629C195.605 69.1415 158.496 56.1996 119.37 55.3033V43.422C123.428 42.5555 127.15 40.5189 130.138 37.4564C134.176 33.3134 136.406 27.806 136.406 21.94C136.406 16.0691 134.176 10.5617 130.138 6.41868C126.095 2.28065 120.721 0 114.997 0C109.268 0 103.894 2.28065 99.8561 6.41868C95.8134 10.5617 93.5879 16.0691 93.5879 21.94C93.5879 24.4149 95.5413 26.4217 97.9611 26.4217C100.381 26.4217 102.334 24.4149 102.334 21.94C102.334 14.7844 108.015 8.96325 114.997 8.96325C121.98 8.96325 127.655 14.7844 127.655 21.94C127.655 29.0957 121.98 34.9119 114.997 34.9119C112.577 34.9119 110.624 36.9186 110.624 39.3935V55.3033C71.5082 56.1996 34.3895 69.1415 5.69653 91.9629C3.78691 93.4767 3.43705 96.2952 4.91422 98.2522C6.39624 100.209 9.14649 100.568 11.0561 99.0539C39.268 76.6059 76.1389 64.2516 114.885 64.2217C114.934 64.2217 114.963 64.2217 115.012 64.2217C115.06 64.2217 115.089 64.2217 115.138 64.2217C153.884 64.2516 190.736 76.6059 218.953 99.0539C219.75 99.6863 220.702 100 221.64 100C222.947 100 224.234 99.3925 225.109 98.2721C226.557 96.2952 226.207 93.4917 224.298 91.9629Z" fill="#563774"/>
</g>
<defs>
<filter id="filter0_d_484_12382" x="0" y="0" width="230" height="108" filterUnits="userSpaceOnUse" color-interpolation-filters="sRGB">
<feFlood flood-opacity="0" result="BackgroundImageFix"/>
<feColorMatrix in="SourceAlpha" type="matrix" values="0 0 0 0 0 0 0 0 0 0 0 0 0 0 0 0 0 0 127 0" result="hardAlpha"/>
<feOffset dy="4"/>
<feGaussianBlur stdDeviation="2"/>
<feComposite in2="hardAlpha" operator="out"/>
<feColorMatrix type="matrix" values="0 0 0 0 0 0 0 0 0 0 0 0 0 0 0 0 0 0 0.75 0"/>
<feBlend mode="normal" in2="BackgroundImageFix" result="effect1_dropShadow_484_12382"/>
<feBlend mode="normal" in="SourceGraphic" in2="effect1_dropShadow_484_12382" result="shape"/>
</filter>
</defs>
</svg>
