<svg width="36" height="76" viewBox="0 0 36 76" fill="none" xmlns="http://www.w3.org/2000/svg">
<g filter="url(#filter0_d_341_2797)">
<path d="M6 2H30V66L18 55.76L6 66V2Z" fill="white"/>
<path d="M6 1C5.44772 1 5 1.44772 5 2V66C5 66.3901 5.22688 66.7446 5.58114 66.9081C5.9354 67.0715 6.35235 67.0139 6.64912 66.7607L18 57.0746L29.3509 66.7607C29.6476 67.0139 30.0646 67.0715 30.4189 66.9081C30.7731 66.7446 31 66.3901 31 66V2C31 1.44772 30.5523 1 30 1H6Z" stroke="#B9272F" stroke-width="2" stroke-linejoin="round"/>
</g>
<path d="M13.1646 13.3128L14.6977 8.6994C14.7713 8.47788 14.9313 8.28243 15.1529 8.14315C15.3746 8.00387 15.6457 7.92848 15.9245 7.92859H18.3907C18.5859 7.92864 18.7785 7.96573 18.9535 8.03697C19.1285 8.10822 19.2812 8.21171 19.3998 8.33941C19.5185 8.46712 19.5998 8.61562 19.6375 8.7734C19.6753 8.93118 19.6684 9.094 19.6175 9.24924L18.7708 11.812H21.0921C21.2953 11.812 21.4955 11.8522 21.676 11.9291C21.8564 12.0061 22.0119 12.1175 22.1293 12.2541C22.2467 12.3908 22.3227 12.5486 22.3508 12.7144C22.3789 12.8802 22.3584 13.0491 22.2909 13.207L20.398 17.6381H22.1256C22.2561 17.638 22.3835 17.671 22.4905 17.7326C22.5975 17.7942 22.6788 17.8814 22.7235 17.9824C22.7682 18.0834 22.7741 18.1933 22.7404 18.2971C22.7067 18.401 22.6349 18.4938 22.535 18.5629L17.647 21.9488C17.5815 21.9942 17.5054 22.0282 17.4235 22.0487C17.3416 22.0693 17.2556 22.076 17.1704 22.0685C17.0853 22.0609 17.0029 22.0393 16.9282 22.0049C16.8534 21.9705 16.7879 21.924 16.7355 21.8682L13.5587 18.4833C13.486 18.4059 13.441 18.3132 13.429 18.2159C13.417 18.1185 13.4383 18.0203 13.4906 17.9324C13.5429 17.8445 13.624 17.7704 13.7248 17.7186C13.8256 17.6668 13.942 17.6393 14.0608 17.6392H15.9817L17.0533 14.6376H14.3913C14.1956 14.6377 14.0024 14.6006 13.8269 14.5291C13.6515 14.4576 13.4984 14.3537 13.3797 14.2255C13.2609 14.0973 13.1797 13.9482 13.1424 13.7899C13.1051 13.6316 13.1127 13.4683 13.1646 13.3128Z" fill="#98354C"/>
<path d="M11.63 31.42H17.58V32.45H11.63V31.42ZM11.94 38.4H17.63V39.44H11.94V38.4ZM14.26 30.52L15.46 30.58C15.38 31.55 15.24 32.73 15.11 33.49H14.01C14.12 32.71 14.22 31.48 14.26 30.52ZM14.22 35.18V35.7H16V35.18H14.22ZM14.22 36.51V37.03H16V36.51H14.22ZM14.22 33.87V34.38H16V33.87H14.22ZM13.1 33.01H17.16V37.89H13.1V33.01ZM11.39 33.59H12.5V39.9H11.39V33.59ZM10.37 30.55L11.5 30.9C10.85 32.61 9.81 34.41 8.72 35.55C8.61 35.26 8.29 34.6 8.08 34.31C8.99 33.4 9.86 31.98 10.37 30.55ZM9.4 33.31L10.54 32.17L10.55 32.18V39.89H9.4V33.31ZM18.51 31.24H27.49V32.45H18.51V31.24ZM22.14 32.33H23.43V39.88H22.14V32.33ZM22.82 34.75L23.64 33.8C24.73 34.34 26.3 35.21 27.07 35.83L26.18 36.93C25.47 36.3 23.95 35.36 22.82 34.75ZM15.5 45.26C15.48 45.48 15.47 45.72 15.46 45.94C15.44 46.41 15.46 48.29 15.46 48.88C15.46 51.24 15.28 52.69 13.29 53.96L12.13 53.05C12.52 52.89 13.02 52.56 13.3 52.25C14.07 51.46 14.23 50.56 14.23 48.88C14.23 48.13 14.21 46.51 14.17 45.95C14.15 45.71 14.09 45.42 14.06 45.26H15.5ZM11.67 47.21C12.16 47.28 12.65 47.32 13.18 47.32C14.47 47.32 16.07 47.22 17.06 47.05L17.05 48.34C16.11 48.45 14.56 48.53 13.21 48.53C12.77 48.53 12.16 48.5 11.67 48.48V47.21ZM10.64 45.43C10.55 45.67 10.45 46.04 10.4 46.24C10.15 47.36 9.8 49.46 10.06 50.69C10.2 50.39 10.38 49.9 10.54 49.53L11.17 49.93C10.87 50.79 10.61 51.8 10.49 52.37C10.45 52.52 10.43 52.75 10.43 52.86C10.43 52.96 10.44 53.13 10.45 53.27L9.34 53.39C9.12 52.78 8.76 51.38 8.76 50.15C8.76 48.5 8.97 46.97 9.09 46.15C9.14 45.87 9.15 45.54 9.16 45.29L10.64 45.43ZM16.28 44.91C16.47 45.3 16.7 45.92 16.82 46.31L16.12 46.54C15.98 46.1 15.8 45.52 15.6 45.12L16.28 44.91ZM17.31 44.59C17.5 44.98 17.74 45.6 17.87 45.98L17.18 46.21C17.04 45.77 16.84 45.2 16.63 44.8L17.31 44.59ZM18.87 46.25H27.14V51.27H25.88V47.43H20.08V51.32H18.87V46.25ZM19.5 49.58H26.58V50.76H19.5V49.58ZM22.34 44.51H23.61V53.9H22.34V44.51Z" fill="#98354C"/>
<defs>
<filter id="filter0_d_341_2797" x="0" y="0" width="36" height="76" filterUnits="userSpaceOnUse" color-interpolation-filters="sRGB">
<feFlood flood-opacity="0" result="BackgroundImageFix"/>
<feColorMatrix in="SourceAlpha" type="matrix" values="0 0 0 0 0 0 0 0 0 0 0 0 0 0 0 0 0 0 127 0" result="hardAlpha"/>
<feOffset dy="4"/>
<feGaussianBlur stdDeviation="2"/>
<feComposite in2="hardAlpha" operator="out"/>
<feColorMatrix type="matrix" values="0 0 0 0 0 0 0 0 0 0 0 0 0 0 0 0 0 0 0.25 0"/>
<feBlend mode="normal" in2="BackgroundImageFix" result="effect1_dropShadow_341_2797"/>
<feBlend mode="normal" in="SourceGraphic" in2="effect1_dropShadow_341_2797" result="shape"/>
</filter>
</defs>
</svg>
