<svg width="87" height="170" viewBox="0 0 87 170" fill="none" xmlns="http://www.w3.org/2000/svg">
<path d="M86.8077 5.17391L86.8077 163.981C83.7582 163.981 81.8269 165.46 80.6071 167.994C80.2006 168.839 78.9808 169.789 78.0659 169.789C54.3819 169.894 30.5962 169.894 8.33516 169.894C5.28571 167.783 3.1511 166.304 1.11813 164.826C0.711537 164.509 0.101647 163.981 0.101647 163.665C0.101647 163.242 0.711535 162.714 1.21978 162.503C4.47252 161.553 6.40384 159.863 6.40384 156.59C6.40384 153.422 4.37088 151.627 1.21978 150.677C0.711535 150.466 0.203295 149.832 0.101647 149.304C-1.55255e-06 149.093 0.813182 148.46 1.32142 148.354C4.57417 147.404 6.50549 145.609 6.40384 142.441C6.40384 139.379 4.47252 137.689 1.42307 136.634C0.813181 136.422 0.406593 135.894 0 135.472C0.508242 135.05 0.813181 134.416 1.42307 134.205C4.57417 133.149 6.50549 131.354 6.40384 128.186C6.30219 125.124 4.37087 123.435 1.32142 122.484C0.813182 122.273 0.406593 121.64 0 121.217C0.508242 120.795 0.914835 120.267 1.52473 120.056C4.67582 119 6.50549 117.099 6.40384 113.932C6.30219 110.975 4.47253 109.286 1.62637 108.335C1.01648 108.124 0.508242 107.385 0 106.963C0.813187 106.646 1.52472 106.012 2.33791 105.907C11.6896 104.64 18.3983 100.099 21.6511 91.9689C26.6319 79.5093 17.8901 66.4161 3.45604 64.3043C2.84615 64.1988 2.13461 64.1987 1.62637 63.9876C1.01648 63.7764 0.609889 63.354 0.101647 62.9317C0.50824 62.5093 0.914835 61.7702 1.52473 61.6646C4.77747 60.7143 6.60714 58.8136 6.50549 55.6459C6.50549 52.6894 4.67582 51 1.82967 49.9441C1.21978 49.7329 0.711537 49.0994 0.101647 48.677C0.711537 48.2546 1.21978 47.6211 1.82967 47.4099C4.67582 46.354 6.40384 44.6646 6.50549 41.7081C6.60714 38.8571 4.87912 36.9565 2.03297 35.9006C1.32143 35.5839 0.711537 34.9503 0.101647 34.4223C0.711537 34 1.21977 33.472 1.93131 33.1553C4.77747 32.0994 6.50549 30.4099 6.50549 27.4534C6.50549 24.3913 4.67582 22.5963 1.62637 21.646C1.01648 21.4348 0.508242 20.6956 0 20.2733C0.508242 19.8509 0.914835 19.323 1.52473 19.1118C4.57418 18.1615 6.40384 16.3664 6.40384 13.3043C6.40384 10.2422 4.67582 8.44718 1.52473 7.49687C0.914835 7.28569 0.508242 6.75776 0 6.3354C0.508242 5.91304 1.01648 5.38507 1.62637 4.96271C2.9478 4.0124 4.77747 3.37888 5.48901 2.1118C6.50549 0.31677 7.72528 0 9.65659 0C32.3242 0 54.9918 -2.57804e-05 77.6593 0.105564C78.6758 0.105564 80.3022 0.527931 80.7088 1.26706C82.1319 3.59004 83.9615 5.06832 86.8077 5.17391Z" fill="#660C21"/>
</svg>
