<svg width="36" height="36" viewBox="0 0 36 36" fill="none" xmlns="http://www.w3.org/2000/svg">
<g filter="url(#filter0_d_457_2855)">
<rect x="5" y="5" width="26" height="26" rx="13" fill="white" shape-rendering="crispEdges"/>
<rect x="5" y="5" width="26" height="26" rx="13" stroke="#46872F" stroke-width="2" shape-rendering="crispEdges"/>
<path fill-rule="evenodd" clip-rule="evenodd" d="M10.125 13.7812C10.125 13.0042 10.755 12.375 11.5313 12.375H24.4688C25.245 12.375 25.875 13.005 25.875 13.7812V16.0508C25.8751 16.1496 25.8491 16.2466 25.7997 16.3322C25.7504 16.4178 25.6793 16.4888 25.5938 16.5382C25.3369 16.6862 25.1235 16.8992 24.9751 17.1558C24.8268 17.4124 24.7487 17.7036 24.7487 18C24.7487 18.2964 24.8268 18.5876 24.9751 18.8442C25.1235 19.1008 25.3369 19.3138 25.5938 19.4618C25.6793 19.5112 25.7504 19.5822 25.7997 19.6678C25.8491 19.7534 25.8751 19.8504 25.875 19.9493V22.2188C25.875 22.995 25.245 23.625 24.4688 23.625H11.5313C11.1583 23.625 10.8006 23.4768 10.5369 23.2131C10.2732 22.9494 10.125 22.5917 10.125 22.2188V19.9493C10.1249 19.8505 10.1507 19.7535 10.1999 19.6679C10.2492 19.5824 10.3201 19.5112 10.4055 19.4618C10.6624 19.3138 10.8757 19.1008 11.0241 18.8442C11.1725 18.5876 11.2506 18.2964 11.2506 18C11.2506 17.7036 11.1725 17.4124 11.0241 17.1558C10.8757 16.8992 10.6624 16.6862 10.4055 16.5382C10.3201 16.4888 10.2492 16.4176 10.1999 16.3321C10.1507 16.2465 10.1249 16.1495 10.125 16.0508V13.7812ZM21.375 12.9375C21.5242 12.9375 21.6673 12.9968 21.7727 13.1023C21.8782 13.2077 21.9375 13.3508 21.9375 13.5V14.0625C21.9375 14.2117 21.8782 14.3548 21.7727 14.4602C21.6673 14.5657 21.5242 14.625 21.375 14.625C21.2258 14.625 21.0827 14.5657 20.9773 14.4602C20.8718 14.3548 20.8125 14.2117 20.8125 14.0625V13.5C20.8125 13.3508 20.8718 13.2077 20.9773 13.1023C21.0827 12.9968 21.2258 12.9375 21.375 12.9375ZM21.9375 16.3125C21.9375 16.1633 21.8782 16.0202 21.7727 15.9148C21.6673 15.8093 21.5242 15.75 21.375 15.75C21.2258 15.75 21.0827 15.8093 20.9773 15.9148C20.8718 16.0202 20.8125 16.1633 20.8125 16.3125V16.875C20.8125 17.0242 20.8718 17.1673 20.9773 17.2727C21.0827 17.3782 21.2258 17.4375 21.375 17.4375C21.5242 17.4375 21.6673 17.3782 21.7727 17.2727C21.8782 17.1673 21.9375 17.0242 21.9375 16.875V16.3125ZM21.375 18.5625C21.5242 18.5625 21.6673 18.6218 21.7727 18.7273C21.8782 18.8327 21.9375 18.9758 21.9375 19.125V19.6875C21.9375 19.8367 21.8782 19.9798 21.7727 20.0852C21.6673 20.1907 21.5242 20.25 21.375 20.25C21.2258 20.25 21.0827 20.1907 20.9773 20.0852C20.8718 19.9798 20.8125 19.8367 20.8125 19.6875V19.125C20.8125 18.9758 20.8718 18.8327 20.9773 18.7273C21.0827 18.6218 21.2258 18.5625 21.375 18.5625ZM21.9375 21.9375C21.9375 21.7883 21.8782 21.6452 21.7727 21.5398C21.6673 21.4343 21.5242 21.375 21.375 21.375C21.2258 21.375 21.0827 21.4343 20.9773 21.5398C20.8718 21.6452 20.8125 21.7883 20.8125 21.9375V22.5C20.8125 22.6492 20.8718 22.7923 20.9773 22.8977C21.0827 23.0032 21.2258 23.0625 21.375 23.0625C21.5242 23.0625 21.6673 23.0032 21.7727 22.8977C21.8782 22.7923 21.9375 22.6492 21.9375 22.5V21.9375ZM13.5 18C13.5 17.8508 13.5593 17.7077 13.6648 17.6023C13.7702 17.4968 13.9133 17.4375 14.0625 17.4375H18C18.1492 17.4375 18.2923 17.4968 18.3977 17.6023C18.5032 17.7077 18.5625 17.8508 18.5625 18C18.5625 18.1492 18.5032 18.2923 18.3977 18.3977C18.2923 18.5032 18.1492 18.5625 18 18.5625H14.0625C13.9133 18.5625 13.7702 18.5032 13.6648 18.3977C13.5593 18.2923 13.5 18.1492 13.5 18ZM14.0625 19.6875C13.9133 19.6875 13.7702 19.7468 13.6648 19.8523C13.5593 19.9577 13.5 20.1008 13.5 20.25C13.5 20.3992 13.5593 20.5423 13.6648 20.6477C13.7702 20.7532 13.9133 20.8125 14.0625 20.8125H16.3125C16.4617 20.8125 16.6048 20.7532 16.7102 20.6477C16.8157 20.5423 16.875 20.3992 16.875 20.25C16.875 20.1008 16.8157 19.9577 16.7102 19.8523C16.6048 19.7468 16.4617 19.6875 16.3125 19.6875H14.0625Z" fill="#46872F"/>
</g>
<defs>
<filter id="filter0_d_457_2855" x="0" y="0" width="36" height="36" filterUnits="userSpaceOnUse" color-interpolation-filters="sRGB">
<feFlood flood-opacity="0" result="BackgroundImageFix"/>
<feColorMatrix in="SourceAlpha" type="matrix" values="0 0 0 0 0 0 0 0 0 0 0 0 0 0 0 0 0 0 127 0" result="hardAlpha"/>
<feOffset/>
<feGaussianBlur stdDeviation="2"/>
<feComposite in2="hardAlpha" operator="out"/>
<feColorMatrix type="matrix" values="0 0 0 0 0 0 0 0 0 0 0 0 0 0 0 0 0 0 0.75 0"/>
<feBlend mode="normal" in2="BackgroundImageFix" result="effect1_dropShadow_457_2855"/>
<feBlend mode="normal" in="SourceGraphic" in2="effect1_dropShadow_457_2855" result="shape"/>
</filter>
</defs>
</svg>
