<svg width="50" height="50" viewBox="0 0 50 50" fill="none" xmlns="http://www.w3.org/2000/svg">
<path d="M24.2608 2.29615C24.6574 1.86079 25.3426 1.86079 25.7392 2.29615L28.5737 5.40718C29.363 6.27359 30.5847 6.60093 31.7015 6.24529L35.7118 4.96829C36.2729 4.78958 36.8663 5.13213 36.9921 5.70749L37.8913 9.81895C38.1417 10.964 39.036 11.8583 40.1811 12.1087L44.2925 13.0079C44.8679 13.1337 45.2104 13.7271 45.0317 14.2882L43.7547 18.2985C43.3991 19.4153 43.7264 20.637 44.5928 21.4263L47.7039 24.2608C48.1392 24.6574 48.1392 25.3426 47.7039 25.7392L44.5928 28.5737C43.7264 29.363 43.3991 30.5847 43.7547 31.7015L45.0317 35.7118C45.2104 36.2729 44.8679 36.8663 44.2925 36.9921L40.1811 37.8913C39.036 38.1417 38.1417 39.036 37.8913 40.1811L36.9921 44.2925C36.8663 44.8679 36.2729 45.2104 35.7118 45.0317L31.7015 43.7547C30.5847 43.3991 29.363 43.7264 28.5737 44.5928L25.7392 47.7039C25.3426 48.1392 24.6574 48.1392 24.2608 47.7039L21.4263 44.5928C20.637 43.7264 19.4153 43.3991 18.2985 43.7547L14.2882 45.0317C13.7271 45.2104 13.1337 44.8679 13.0079 44.2925L12.1087 40.1811C11.8583 39.036 10.964 38.1417 9.81895 37.8913L5.70749 36.9921C5.13213 36.8663 4.78958 36.2729 4.96829 35.7118L6.24529 31.7015C6.60093 30.5847 6.27359 29.363 5.40718 28.5737L2.29615 25.7392C1.86079 25.3426 1.86079 24.6574 2.29615 24.2608L5.40718 21.4263C6.27359 20.637 6.60093 19.4153 6.24529 18.2985L4.96829 14.2882C4.78958 13.7271 5.13213 13.1337 5.70749 13.0079L9.81895 12.1087C10.964 11.8583 11.8583 10.964 12.1087 9.81895L13.0079 5.70749C13.1337 5.13213 13.7271 4.78958 14.2882 4.96829L18.2985 6.24529C19.4153 6.60093 20.637 6.27359 21.4263 5.40718L24.2608 2.29615Z" fill="#FFD600" fill-opacity="0.9" stroke="#D64D00" stroke-width="2"/>
<mask id="path-2-outside-1_246_9157" maskUnits="userSpaceOnUse" x="11" y="14" width="30" height="11" fill="black">
<rect fill="white" x="11" y="14" width="30" height="11"/>
<path d="M20.1004 24H17.4604L14.0044 17.724H13.9564C13.9644 17.892 13.9724 18.076 13.9804 18.276C13.9964 18.468 14.0084 18.668 14.0164 18.876C14.0244 19.076 14.0324 19.276 14.0404 19.476C14.0484 19.668 14.0564 19.856 14.0644 20.04V24H12.2404V15.432H14.8684L18.3124 21.636H18.3484C18.3404 21.468 18.3324 21.292 18.3244 21.108C18.3164 20.916 18.3084 20.724 18.3004 20.532C18.2924 20.332 18.2844 20.14 18.2764 19.956C18.2764 19.764 18.2724 19.58 18.2644 19.404V15.432H20.1004V24ZM27.1233 24H22.1193V15.432H27.1233V17.088H24.1593V18.732H26.9073V20.388H24.1593V22.32H27.1233V24ZM39.6836 15.432L37.5356 24H35.1596L34.1636 19.86C34.1396 19.772 34.1116 19.644 34.0796 19.476C34.0476 19.3 34.0076 19.108 33.9596 18.9C33.9196 18.684 33.8836 18.48 33.8516 18.288C33.8196 18.088 33.7956 17.928 33.7796 17.808C33.7636 17.928 33.7356 18.088 33.6956 18.288C33.6636 18.48 33.6276 18.684 33.5876 18.9C33.5476 19.108 33.5076 19.3 33.4676 19.476C33.4356 19.644 33.4076 19.772 33.3836 19.86L32.3756 24H30.0116L27.8516 15.432H29.8436L30.8636 19.932C30.8956 20.052 30.9316 20.212 30.9716 20.412C31.0116 20.604 31.0516 20.812 31.0916 21.036C31.1316 21.252 31.1676 21.464 31.1996 21.672C31.2396 21.872 31.2676 22.044 31.2836 22.188C31.3076 21.996 31.3396 21.776 31.3796 21.528C31.4276 21.28 31.4756 21.028 31.5236 20.772C31.5716 20.516 31.6196 20.276 31.6676 20.052C31.7156 19.828 31.7596 19.648 31.7996 19.512L32.8196 15.432H34.7276L35.7476 19.512C35.7716 19.648 35.8076 19.828 35.8556 20.052C35.9116 20.276 35.9636 20.52 36.0116 20.784C36.0676 21.04 36.1156 21.292 36.1556 21.54C36.1956 21.788 36.2276 22.004 36.2516 22.188C36.2756 21.988 36.3116 21.748 36.3596 21.468C36.4156 21.18 36.4716 20.896 36.5276 20.616C36.5836 20.328 36.6316 20.104 36.6716 19.944L37.6916 15.432H39.6836Z"/>
</mask>
<path d="M20.1004 24H17.4604L14.0044 17.724H13.9564C13.9644 17.892 13.9724 18.076 13.9804 18.276C13.9964 18.468 14.0084 18.668 14.0164 18.876C14.0244 19.076 14.0324 19.276 14.0404 19.476C14.0484 19.668 14.0564 19.856 14.0644 20.04V24H12.2404V15.432H14.8684L18.3124 21.636H18.3484C18.3404 21.468 18.3324 21.292 18.3244 21.108C18.3164 20.916 18.3084 20.724 18.3004 20.532C18.2924 20.332 18.2844 20.14 18.2764 19.956C18.2764 19.764 18.2724 19.58 18.2644 19.404V15.432H20.1004V24ZM27.1233 24H22.1193V15.432H27.1233V17.088H24.1593V18.732H26.9073V20.388H24.1593V22.32H27.1233V24ZM39.6836 15.432L37.5356 24H35.1596L34.1636 19.86C34.1396 19.772 34.1116 19.644 34.0796 19.476C34.0476 19.3 34.0076 19.108 33.9596 18.9C33.9196 18.684 33.8836 18.48 33.8516 18.288C33.8196 18.088 33.7956 17.928 33.7796 17.808C33.7636 17.928 33.7356 18.088 33.6956 18.288C33.6636 18.48 33.6276 18.684 33.5876 18.9C33.5476 19.108 33.5076 19.3 33.4676 19.476C33.4356 19.644 33.4076 19.772 33.3836 19.86L32.3756 24H30.0116L27.8516 15.432H29.8436L30.8636 19.932C30.8956 20.052 30.9316 20.212 30.9716 20.412C31.0116 20.604 31.0516 20.812 31.0916 21.036C31.1316 21.252 31.1676 21.464 31.1996 21.672C31.2396 21.872 31.2676 22.044 31.2836 22.188C31.3076 21.996 31.3396 21.776 31.3796 21.528C31.4276 21.28 31.4756 21.028 31.5236 20.772C31.5716 20.516 31.6196 20.276 31.6676 20.052C31.7156 19.828 31.7596 19.648 31.7996 19.512L32.8196 15.432H34.7276L35.7476 19.512C35.7716 19.648 35.8076 19.828 35.8556 20.052C35.9116 20.276 35.9636 20.52 36.0116 20.784C36.0676 21.04 36.1156 21.292 36.1556 21.54C36.1956 21.788 36.2276 22.004 36.2516 22.188C36.2756 21.988 36.3116 21.748 36.3596 21.468C36.4156 21.18 36.4716 20.896 36.5276 20.616C36.5836 20.328 36.6316 20.104 36.6716 19.944L37.6916 15.432H39.6836Z" fill="#D64D00"/>
<path d="M20.1004 24V24.5H20.6004V24H20.1004ZM17.4604 24L17.0224 24.2412L17.165 24.5H17.4604V24ZM14.0044 17.724L14.4424 17.4828L14.2999 17.224H14.0044V17.724ZM13.9564 17.724V17.224H13.432L13.457 17.7478L13.9564 17.724ZM13.9804 18.276L13.4808 18.296L13.4813 18.3068L13.4821 18.3175L13.9804 18.276ZM14.0164 18.876L13.5168 18.8952L13.5168 18.896L14.0164 18.876ZM14.0404 19.476L13.5408 19.496L13.5409 19.4968L14.0404 19.476ZM14.0644 20.04H14.5644V20.0291L14.564 20.0183L14.0644 20.04ZM14.0644 24V24.5H14.5644V24H14.0644ZM12.2404 24H11.7404V24.5H12.2404V24ZM12.2404 15.432V14.932H11.7404V15.432H12.2404ZM14.8684 15.432L15.3056 15.1893L15.1627 14.932H14.8684V15.432ZM18.3124 21.636L17.8753 21.8787L18.0181 22.136H18.3124V21.636ZM18.3484 21.636V22.136H18.8728L18.8479 21.6122L18.3484 21.636ZM18.3244 21.108L17.8249 21.1288L17.8249 21.1297L18.3244 21.108ZM18.3004 20.532L17.8008 20.552L17.8009 20.5528L18.3004 20.532ZM18.2764 19.956H17.7764V19.9669L17.7769 19.9777L18.2764 19.956ZM18.2644 19.404H17.7644V19.4154L17.7649 19.4267L18.2644 19.404ZM18.2644 15.432V14.932H17.7644V15.432H18.2644ZM20.1004 15.432H20.6004V14.932H20.1004V15.432ZM20.1004 23.5H17.4604V24.5H20.1004V23.5ZM17.8984 23.7588L14.4424 17.4828L13.5664 17.9652L17.0224 24.2412L17.8984 23.7588ZM14.0044 17.224H13.9564V18.224H14.0044V17.224ZM13.457 17.7478C13.4649 17.9143 13.4729 18.097 13.4808 18.296L14.48 18.256C14.472 18.055 14.4639 17.8697 14.4559 17.7002L13.457 17.7478ZM13.4821 18.3175C13.4975 18.5015 13.5091 18.6941 13.5168 18.8952L14.5161 18.8568C14.5078 18.6419 14.4954 18.4345 14.4787 18.2345L13.4821 18.3175ZM13.5168 18.896C13.5168 18.8964 13.5169 18.8968 13.5169 18.8972C13.5169 18.8975 13.5169 18.8979 13.5169 18.8983C13.5169 18.8987 13.5169 18.8991 13.517 18.8995C13.517 18.8999 13.517 18.9003 13.517 18.9007C13.517 18.9011 13.517 18.9015 13.5171 18.9018C13.5171 18.9022 13.5171 18.9026 13.5171 18.903C13.5171 18.9034 13.5171 18.9038 13.5171 18.9042C13.5172 18.9046 13.5172 18.905 13.5172 18.9054C13.5172 18.9057 13.5172 18.9061 13.5172 18.9065C13.5173 18.9069 13.5173 18.9073 13.5173 18.9077C13.5173 18.9081 13.5173 18.9085 13.5173 18.9089C13.5174 18.9093 13.5174 18.9097 13.5174 18.91C13.5174 18.9104 13.5174 18.9108 13.5174 18.9112C13.5174 18.9116 13.5175 18.912 13.5175 18.9124C13.5175 18.9128 13.5175 18.9132 13.5175 18.9136C13.5175 18.914 13.5176 18.9143 13.5176 18.9147C13.5176 18.9151 13.5176 18.9155 13.5176 18.9159C13.5176 18.9163 13.5176 18.9167 13.5177 18.9171C13.5177 18.9175 13.5177 18.9179 13.5177 18.9182C13.5177 18.9186 13.5177 18.919 13.5178 18.9194C13.5178 18.9198 13.5178 18.9202 13.5178 18.9206C13.5178 18.921 13.5178 18.9214 13.5179 18.9218C13.5179 18.9222 13.5179 18.9225 13.5179 18.9229C13.5179 18.9233 13.5179 18.9237 13.5179 18.9241C13.518 18.9245 13.518 18.9249 13.518 18.9253C13.518 18.9257 13.518 18.9261 13.518 18.9265C13.5181 18.9268 13.5181 18.9272 13.5181 18.9276C13.5181 18.928 13.5181 18.9284 13.5181 18.9288C13.5181 18.9292 13.5182 18.9296 13.5182 18.93C13.5182 18.9304 13.5182 18.9307 13.5182 18.9311C13.5182 18.9315 13.5183 18.9319 13.5183 18.9323C13.5183 18.9327 13.5183 18.9331 13.5183 18.9335C13.5183 18.9339 13.5184 18.9343 13.5184 18.9347C13.5184 18.935 13.5184 18.9354 13.5184 18.9358C13.5184 18.9362 13.5184 18.9366 13.5185 18.937C13.5185 18.9374 13.5185 18.9378 13.5185 18.9382C13.5185 18.9386 13.5185 18.939 13.5186 18.9393C13.5186 18.9397 13.5186 18.9401 13.5186 18.9405C13.5186 18.9409 13.5186 18.9413 13.5186 18.9417C13.5187 18.9421 13.5187 18.9425 13.5187 18.9429C13.5187 18.9432 13.5187 18.9436 13.5187 18.944C13.5188 18.9444 13.5188 18.9448 13.5188 18.9452C13.5188 18.9456 13.5188 18.946 13.5188 18.9464C13.5189 18.9468 13.5189 18.9472 13.5189 18.9475C13.5189 18.9479 13.5189 18.9483 13.5189 18.9487C13.5189 18.9491 13.519 18.9495 13.519 18.9499C13.519 18.9503 13.519 18.9507 13.519 18.9511C13.519 18.9515 13.5191 18.9518 13.5191 18.9522C13.5191 18.9526 13.5191 18.953 13.5191 18.9534C13.5191 18.9538 13.5191 18.9542 13.5192 18.9546C13.5192 18.955 13.5192 18.9554 13.5192 18.9557C13.5192 18.9561 13.5192 18.9565 13.5193 18.9569C13.5193 18.9573 13.5193 18.9577 13.5193 18.9581C13.5193 18.9585 13.5193 18.9589 13.5194 18.9593C13.5194 18.9597 13.5194 18.96 13.5194 18.9604C13.5194 18.9608 13.5194 18.9612 13.5194 18.9616C13.5195 18.962 13.5195 18.9624 13.5195 18.9628C13.5195 18.9632 13.5195 18.9636 13.5195 18.964C13.5196 18.9643 13.5196 18.9647 13.5196 18.9651C13.5196 18.9655 13.5196 18.9659 13.5196 18.9663C13.5196 18.9667 13.5197 18.9671 13.5197 18.9675C13.5197 18.9679 13.5197 18.9682 13.5197 18.9686C13.5197 18.969 13.5198 18.9694 13.5198 18.9698C13.5198 18.9702 13.5198 18.9706 13.5198 18.971C13.5198 18.9714 13.5199 18.9718 13.5199 18.9722C13.5199 18.9725 13.5199 18.9729 13.5199 18.9733C13.5199 18.9737 13.5199 18.9741 13.52 18.9745C13.52 18.9749 13.52 18.9753 13.52 18.9757C13.52 18.9761 13.52 18.9765 13.5201 18.9768C13.5201 18.9772 13.5201 18.9776 13.5201 18.978C13.5201 18.9784 13.5201 18.9788 13.5201 18.9792C13.5202 18.9796 13.5202 18.98 13.5202 18.9804C13.5202 18.9807 13.5202 18.9811 13.5202 18.9815C13.5203 18.9819 13.5203 18.9823 13.5203 18.9827C13.5203 18.9831 13.5203 18.9835 13.5203 18.9839C13.5204 18.9843 13.5204 18.9847 13.5204 18.985C13.5204 18.9854 13.5204 18.9858 13.5204 18.9862C13.5204 18.9866 13.5205 18.987 13.5205 18.9874C13.5205 18.9878 13.5205 18.9882 13.5205 18.9886C13.5205 18.989 13.5206 18.9893 13.5206 18.9897C13.5206 18.9901 13.5206 18.9905 13.5206 18.9909C13.5206 18.9913 13.5206 18.9917 13.5207 18.9921C13.5207 18.9925 13.5207 18.9929 13.5207 18.9932C13.5207 18.9936 13.5207 18.994 13.5208 18.9944C13.5208 18.9948 13.5208 18.9952 13.5208 18.9956C13.5208 18.996 13.5208 18.9964 13.5209 18.9968C13.5209 18.9972 13.5209 18.9975 13.5209 18.9979C13.5209 18.9983 13.5209 18.9987 13.5209 18.9991C13.521 18.9995 13.521 18.9999 13.521 19.0003C13.521 19.0007 13.521 19.0011 13.521 19.0015C13.5211 19.0018 13.5211 19.0022 13.5211 19.0026C13.5211 19.003 13.5211 19.0034 13.5211 19.0038C13.5211 19.0042 13.5212 19.0046 13.5212 19.005C13.5212 19.0054 13.5212 19.0057 13.5212 19.0061C13.5212 19.0065 13.5213 19.0069 13.5213 19.0073C13.5213 19.0077 13.5213 19.0081 13.5213 19.0085C13.5213 19.0089 13.5214 19.0093 13.5214 19.0097C13.5214 19.01 13.5214 19.0104 13.5214 19.0108C13.5214 19.0112 13.5214 19.0116 13.5215 19.012C13.5215 19.0124 13.5215 19.0128 13.5215 19.0132C13.5215 19.0136 13.5215 19.014 13.5216 19.0143C13.5216 19.0147 13.5216 19.0151 13.5216 19.0155C13.5216 19.0159 13.5216 19.0163 13.5216 19.0167C13.5217 19.0171 13.5217 19.0175 13.5217 19.0179C13.5217 19.0182 13.5217 19.0186 13.5217 19.019C13.5218 19.0194 13.5218 19.0198 13.5218 19.0202C13.5218 19.0206 13.5218 19.021 13.5218 19.0214C13.5219 19.0218 13.5219 19.0222 13.5219 19.0225C13.5219 19.0229 13.5219 19.0233 13.5219 19.0237C13.5219 19.0241 13.522 19.0245 13.522 19.0249C13.522 19.0253 13.522 19.0257 13.522 19.0261C13.522 19.0265 13.5221 19.0268 13.5221 19.0272C13.5221 19.0276 13.5221 19.028 13.5221 19.0284C13.5221 19.0288 13.5221 19.0292 13.5222 19.0296C13.5222 19.03 13.5222 19.0304 13.5222 19.0307C13.5222 19.0311 13.5222 19.0315 13.5223 19.0319C13.5223 19.0323 13.5223 19.0327 13.5223 19.0331C13.5223 19.0335 13.5223 19.0339 13.5224 19.0343C13.5224 19.0347 13.5224 19.035 13.5224 19.0354C13.5224 19.0358 13.5224 19.0362 13.5224 19.0366C13.5225 19.037 13.5225 19.0374 13.5225 19.0378C13.5225 19.0382 13.5225 19.0386 13.5225 19.039C13.5226 19.0393 13.5226 19.0397 13.5226 19.0401C13.5226 19.0405 13.5226 19.0409 13.5226 19.0413C13.5226 19.0417 13.5227 19.0421 13.5227 19.0425C13.5227 19.0429 13.5227 19.0432 13.5227 19.0436C13.5227 19.044 13.5228 19.0444 13.5228 19.0448C13.5228 19.0452 13.5228 19.0456 13.5228 19.046C13.5228 19.0464 13.5229 19.0468 13.5229 19.0472C13.5229 19.0475 13.5229 19.0479 13.5229 19.0483C13.5229 19.0487 13.5229 19.0491 13.523 19.0495C13.523 19.0499 13.523 19.0503 13.523 19.0507C13.523 19.0511 13.523 19.0515 13.5231 19.0518C13.5231 19.0522 13.5231 19.0526 13.5231 19.053C13.5231 19.0534 13.5231 19.0538 13.5231 19.0542C13.5232 19.0546 13.5232 19.055 13.5232 19.0554C13.5232 19.0557 13.5232 19.0561 13.5232 19.0565C13.5233 19.0569 13.5233 19.0573 13.5233 19.0577C13.5233 19.0581 13.5233 19.0585 13.5233 19.0589C13.5234 19.0593 13.5234 19.0597 13.5234 19.06C13.5234 19.0604 13.5234 19.0608 13.5234 19.0612C13.5234 19.0616 13.5235 19.062 13.5235 19.0624C13.5235 19.0628 13.5235 19.0632 13.5235 19.0636C13.5235 19.064 13.5236 19.0643 13.5236 19.0647C13.5236 19.0651 13.5236 19.0655 13.5236 19.0659C13.5236 19.0663 13.5236 19.0667 13.5237 19.0671C13.5237 19.0675 13.5237 19.0679 13.5237 19.0682C13.5237 19.0686 13.5237 19.069 13.5238 19.0694C13.5238 19.0698 13.5238 19.0702 13.5238 19.0706C13.5238 19.071 13.5238 19.0714 13.5239 19.0718C13.5239 19.0722 13.5239 19.0725 13.5239 19.0729C13.5239 19.0733 13.5239 19.0737 13.5239 19.0741C13.524 19.0745 13.524 19.0749 13.524 19.0753C13.524 19.0757 13.524 19.0761 13.524 19.0765C13.5241 19.0768 13.5241 19.0772 13.5241 19.0776C13.5241 19.078 13.5241 19.0784 13.5241 19.0788C13.5241 19.0792 13.5242 19.0796 13.5242 19.08C13.5242 19.0804 13.5242 19.0807 13.5242 19.0811C13.5242 19.0815 13.5243 19.0819 13.5243 19.0823C13.5243 19.0827 13.5243 19.0831 13.5243 19.0835C13.5243 19.0839 13.5244 19.0843 13.5244 19.0847C13.5244 19.085 13.5244 19.0854 13.5244 19.0858C13.5244 19.0862 13.5244 19.0866 13.5245 19.087C13.5245 19.0874 13.5245 19.0878 13.5245 19.0882C13.5245 19.0886 13.5245 19.089 13.5246 19.0893C13.5246 19.0897 13.5246 19.0901 13.5246 19.0905C13.5246 19.0909 13.5246 19.0913 13.5246 19.0917C13.5247 19.0921 13.5247 19.0925 13.5247 19.0929C13.5247 19.0932 13.5247 19.0936 13.5247 19.094C13.5248 19.0944 13.5248 19.0948 13.5248 19.0952C13.5248 19.0956 13.5248 19.096 13.5248 19.0964C13.5249 19.0968 13.5249 19.0972 13.5249 19.0975C13.5249 19.0979 13.5249 19.0983 13.5249 19.0987C13.5249 19.0991 13.525 19.0995 13.525 19.0999C13.525 19.1003 13.525 19.1007 13.525 19.1011C13.525 19.1015 13.5251 19.1018 13.5251 19.1022C13.5251 19.1026 13.5251 19.103 13.5251 19.1034C13.5251 19.1038 13.5251 19.1042 13.5252 19.1046C13.5252 19.105 13.5252 19.1054 13.5252 19.1057C13.5252 19.1061 13.5252 19.1065 13.5253 19.1069C13.5253 19.1073 13.5253 19.1077 13.5253 19.1081C13.5253 19.1085 13.5253 19.1089 13.5254 19.1093C13.5254 19.1097 13.5254 19.11 13.5254 19.1104C13.5254 19.1108 13.5254 19.1112 13.5254 19.1116C13.5255 19.112 13.5255 19.1124 13.5255 19.1128C13.5255 19.1132 13.5255 19.1136 13.5255 19.114C13.5256 19.1143 13.5256 19.1147 13.5256 19.1151C13.5256 19.1155 13.5256 19.1159 13.5256 19.1163C13.5256 19.1167 13.5257 19.1171 13.5257 19.1175C13.5257 19.1179 13.5257 19.1182 13.5257 19.1186C13.5257 19.119 13.5258 19.1194 13.5258 19.1198C13.5258 19.1202 13.5258 19.1206 13.5258 19.121C13.5258 19.1214 13.5259 19.1218 13.5259 19.1222C13.5259 19.1225 13.5259 19.1229 13.5259 19.1233C13.5259 19.1237 13.5259 19.1241 13.526 19.1245C13.526 19.1249 13.526 19.1253 13.526 19.1257C13.526 19.1261 13.526 19.1265 13.5261 19.1268C13.5261 19.1272 13.5261 19.1276 13.5261 19.128C13.5261 19.1284 13.5261 19.1288 13.5261 19.1292C13.5262 19.1296 13.5262 19.13 13.5262 19.1304C13.5262 19.1307 13.5262 19.1311 13.5262 19.1315C13.5263 19.1319 13.5263 19.1323 13.5263 19.1327C13.5263 19.1331 13.5263 19.1335 13.5263 19.1339C13.5264 19.1343 13.5264 19.1347 13.5264 19.135C13.5264 19.1354 13.5264 19.1358 13.5264 19.1362C13.5264 19.1366 13.5265 19.137 13.5265 19.1374C13.5265 19.1378 13.5265 19.1382 13.5265 19.1386C13.5265 19.139 13.5266 19.1393 13.5266 19.1397C13.5266 19.1401 13.5266 19.1405 13.5266 19.1409C13.5266 19.1413 13.5266 19.1417 13.5267 19.1421C13.5267 19.1425 13.5267 19.1429 13.5267 19.1432C13.5267 19.1436 13.5267 19.144 13.5268 19.1444C13.5268 19.1448 13.5268 19.1452 13.5268 19.1456C13.5268 19.146 13.5268 19.1464 13.5269 19.1468C13.5269 19.1472 13.5269 19.1475 13.5269 19.1479C13.5269 19.1483 13.5269 19.1487 13.5269 19.1491C13.527 19.1495 13.527 19.1499 13.527 19.1503C13.527 19.1507 13.527 19.1511 13.527 19.1515C13.5271 19.1518 13.5271 19.1522 13.5271 19.1526C13.5271 19.153 13.5271 19.1534 13.5271 19.1538C13.5271 19.1542 13.5272 19.1546 13.5272 19.155C13.5272 19.1554 13.5272 19.1557 13.5272 19.1561C13.5272 19.1565 13.5273 19.1569 13.5273 19.1573C13.5273 19.1577 13.5273 19.1581 13.5273 19.1585C13.5273 19.1589 13.5274 19.1593 13.5274 19.1597C13.5274 19.16 13.5274 19.1604 13.5274 19.1608C13.5274 19.1612 13.5274 19.1616 13.5275 19.162C13.5275 19.1624 13.5275 19.1628 13.5275 19.1632C13.5275 19.1636 13.5275 19.164 13.5276 19.1643C13.5276 19.1647 13.5276 19.1651 13.5276 19.1655C13.5276 19.1659 13.5276 19.1663 13.5276 19.1667C13.5277 19.1671 13.5277 19.1675 13.5277 19.1679C13.5277 19.1682 13.5277 19.1686 13.5277 19.169C13.5278 19.1694 13.5278 19.1698 13.5278 19.1702C13.5278 19.1706 13.5278 19.171 13.5278 19.1714C13.5279 19.1718 13.5279 19.1722 13.5279 19.1725C13.5279 19.1729 13.5279 19.1733 13.5279 19.1737C13.5279 19.1741 13.528 19.1745 13.528 19.1749C13.528 19.1753 13.528 19.1757 13.528 19.1761C13.528 19.1765 13.5281 19.1768 13.5281 19.1772C13.5281 19.1776 13.5281 19.178 13.5281 19.1784C13.5281 19.1788 13.5281 19.1792 13.5282 19.1796C13.5282 19.18 13.5282 19.1804 13.5282 19.1807C13.5282 19.1811 13.5282 19.1815 13.5283 19.1819C13.5283 19.1823 13.5283 19.1827 13.5283 19.1831C13.5283 19.1835 13.5283 19.1839 13.5284 19.1843C13.5284 19.1847 13.5284 19.185 13.5284 19.1854C13.5284 19.1858 13.5284 19.1862 13.5284 19.1866C13.5285 19.187 13.5285 19.1874 13.5285 19.1878C13.5285 19.1882 13.5285 19.1886 13.5285 19.189C13.5286 19.1893 13.5286 19.1897 13.5286 19.1901C13.5286 19.1905 13.5286 19.1909 13.5286 19.1913C13.5286 19.1917 13.5287 19.1921 13.5287 19.1925C13.5287 19.1929 13.5287 19.1932 13.5287 19.1936C13.5287 19.194 13.5288 19.1944 13.5288 19.1948C13.5288 19.1952 13.5288 19.1956 13.5288 19.196C13.5288 19.1964 13.5289 19.1968 13.5289 19.1972C13.5289 19.1975 13.5289 19.1979 13.5289 19.1983C13.5289 19.1987 13.5289 19.1991 13.529 19.1995C13.529 19.1999 13.529 19.2003 13.529 19.2007C13.529 19.2011 13.529 19.2015 13.5291 19.2018C13.5291 19.2022 13.5291 19.2026 13.5291 19.203C13.5291 19.2034 13.5291 19.2038 13.5291 19.2042C13.5292 19.2046 13.5292 19.205 13.5292 19.2054C13.5292 19.2057 13.5292 19.2061 13.5292 19.2065C13.5293 19.2069 13.5293 19.2073 13.5293 19.2077C13.5293 19.2081 13.5293 19.2085 13.5293 19.2089C13.5294 19.2093 13.5294 19.2097 13.5294 19.21C13.5294 19.2104 13.5294 19.2108 13.5294 19.2112C13.5294 19.2116 13.5295 19.212 13.5295 19.2124C13.5295 19.2128 13.5295 19.2132 13.5295 19.2136C13.5295 19.214 13.5296 19.2143 13.5296 19.2147C13.5296 19.2151 13.5296 19.2155 13.5296 19.2159C13.5296 19.2163 13.5296 19.2167 13.5297 19.2171C13.5297 19.2175 13.5297 19.2179 13.5297 19.2182C13.5297 19.2186 13.5297 19.219 13.5298 19.2194C13.5298 19.2198 13.5298 19.2202 13.5298 19.2206C13.5298 19.221 13.5298 19.2214 13.5299 19.2218C13.5299 19.2222 13.5299 19.2225 13.5299 19.2229C13.5299 19.2233 13.5299 19.2237 13.5299 19.2241C13.53 19.2245 13.53 19.2249 13.53 19.2253C13.53 19.2257 13.53 19.2261 13.53 19.2265C13.5301 19.2268 13.5301 19.2272 13.5301 19.2276C13.5301 19.228 13.5301 19.2284 13.5301 19.2288C13.5301 19.2292 13.5302 19.2296 13.5302 19.23C13.5302 19.2304 13.5302 19.2307 13.5302 19.2311C13.5302 19.2315 13.5303 19.2319 13.5303 19.2323C13.5303 19.2327 13.5303 19.2331 13.5303 19.2335C13.5303 19.2339 13.5304 19.2343 13.5304 19.2347C13.5304 19.235 13.5304 19.2354 13.5304 19.2358C13.5304 19.2362 13.5304 19.2366 13.5305 19.237C13.5305 19.2374 13.5305 19.2378 13.5305 19.2382C13.5305 19.2386 13.5305 19.239 13.5306 19.2393C13.5306 19.2397 13.5306 19.2401 13.5306 19.2405C13.5306 19.2409 13.5306 19.2413 13.5306 19.2417C13.5307 19.2421 13.5307 19.2425 13.5307 19.2429C13.5307 19.2432 13.5307 19.2436 13.5307 19.244C13.5308 19.2444 13.5308 19.2448 13.5308 19.2452C13.5308 19.2456 13.5308 19.246 13.5308 19.2464C13.5309 19.2468 13.5309 19.2472 13.5309 19.2475C13.5309 19.2479 13.5309 19.2483 13.5309 19.2487C13.5309 19.2491 13.531 19.2495 13.531 19.2499C13.531 19.2503 13.531 19.2507 13.531 19.2511C13.531 19.2515 13.5311 19.2518 13.5311 19.2522C13.5311 19.2526 13.5311 19.253 13.5311 19.2534C13.5311 19.2538 13.5311 19.2542 13.5312 19.2546C13.5312 19.255 13.5312 19.2554 13.5312 19.2557C13.5312 19.2561 13.5312 19.2565 13.5313 19.2569C13.5313 19.2573 13.5313 19.2577 13.5313 19.2581C13.5313 19.2585 13.5313 19.2589 13.5314 19.2593C13.5314 19.2597 13.5314 19.26 13.5314 19.2604C13.5314 19.2608 13.5314 19.2612 13.5314 19.2616C13.5315 19.262 13.5315 19.2624 13.5315 19.2628C13.5315 19.2632 13.5315 19.2636 13.5315 19.264C13.5316 19.2643 13.5316 19.2647 13.5316 19.2651C13.5316 19.2655 13.5316 19.2659 13.5316 19.2663C13.5316 19.2667 13.5317 19.2671 13.5317 19.2675C13.5317 19.2679 13.5317 19.2682 13.5317 19.2686C13.5317 19.269 13.5318 19.2694 13.5318 19.2698C13.5318 19.2702 13.5318 19.2706 13.5318 19.271C13.5318 19.2714 13.5319 19.2718 13.5319 19.2722C13.5319 19.2725 13.5319 19.2729 13.5319 19.2733C13.5319 19.2737 13.5319 19.2741 13.532 19.2745C13.532 19.2749 13.532 19.2753 13.532 19.2757C13.532 19.2761 13.532 19.2765 13.5321 19.2768C13.5321 19.2772 13.5321 19.2776 13.5321 19.278C13.5321 19.2784 13.5321 19.2788 13.5321 19.2792C13.5322 19.2796 13.5322 19.28 13.5322 19.2804C13.5322 19.2807 13.5322 19.2811 13.5322 19.2815C13.5323 19.2819 13.5323 19.2823 13.5323 19.2827C13.5323 19.2831 13.5323 19.2835 13.5323 19.2839C13.5324 19.2843 13.5324 19.2847 13.5324 19.285C13.5324 19.2854 13.5324 19.2858 13.5324 19.2862C13.5324 19.2866 13.5325 19.287 13.5325 19.2874C13.5325 19.2878 13.5325 19.2882 13.5325 19.2886C13.5325 19.289 13.5326 19.2893 13.5326 19.2897C13.5326 19.2901 13.5326 19.2905 13.5326 19.2909C13.5326 19.2913 13.5326 19.2917 13.5327 19.2921C13.5327 19.2925 13.5327 19.2929 13.5327 19.2932C13.5327 19.2936 13.5327 19.294 13.5328 19.2944C13.5328 19.2948 13.5328 19.2952 13.5328 19.2956C13.5328 19.296 13.5328 19.2964 13.5329 19.2968C13.5329 19.2972 13.5329 19.2975 13.5329 19.2979C13.5329 19.2983 13.5329 19.2987 13.5329 19.2991C13.533 19.2995 13.533 19.2999 13.533 19.3003C13.533 19.3007 13.533 19.3011 13.533 19.3015C13.5331 19.3018 13.5331 19.3022 13.5331 19.3026C13.5331 19.303 13.5331 19.3034 13.5331 19.3038C13.5331 19.3042 13.5332 19.3046 13.5332 19.305C13.5332 19.3054 13.5332 19.3057 13.5332 19.3061C13.5332 19.3065 13.5333 19.3069 13.5333 19.3073C13.5333 19.3077 13.5333 19.3081 13.5333 19.3085C13.5333 19.3089 13.5334 19.3093 13.5334 19.3097C13.5334 19.31 13.5334 19.3104 13.5334 19.3108C13.5334 19.3112 13.5334 19.3116 13.5335 19.312C13.5335 19.3124 13.5335 19.3128 13.5335 19.3132C13.5335 19.3136 13.5335 19.314 13.5336 19.3143C13.5336 19.3147 13.5336 19.3151 13.5336 19.3155C13.5336 19.3159 13.5336 19.3163 13.5336 19.3167C13.5337 19.3171 13.5337 19.3175 13.5337 19.3179C13.5337 19.3182 13.5337 19.3186 13.5337 19.319C13.5338 19.3194 13.5338 19.3198 13.5338 19.3202C13.5338 19.3206 13.5338 19.321 13.5338 19.3214C13.5339 19.3218 13.5339 19.3222 13.5339 19.3225C13.5339 19.3229 13.5339 19.3233 13.5339 19.3237C13.5339 19.3241 13.534 19.3245 13.534 19.3249C13.534 19.3253 13.534 19.3257 13.534 19.3261C13.534 19.3265 13.5341 19.3268 13.5341 19.3272C13.5341 19.3276 13.5341 19.328 13.5341 19.3284C13.5341 19.3288 13.5341 19.3292 13.5342 19.3296C13.5342 19.33 13.5342 19.3304 13.5342 19.3307C13.5342 19.3311 13.5342 19.3315 13.5343 19.3319C13.5343 19.3323 13.5343 19.3327 13.5343 19.3331C13.5343 19.3335 13.5343 19.3339 13.5344 19.3343C13.5344 19.3347 13.5344 19.335 13.5344 19.3354C13.5344 19.3358 13.5344 19.3362 13.5344 19.3366C13.5345 19.337 13.5345 19.3374 13.5345 19.3378C13.5345 19.3382 13.5345 19.3386 13.5345 19.339C13.5346 19.3393 13.5346 19.3397 13.5346 19.3401C13.5346 19.3405 13.5346 19.3409 13.5346 19.3413C13.5346 19.3417 13.5347 19.3421 13.5347 19.3425C13.5347 19.3429 13.5347 19.3432 13.5347 19.3436C13.5347 19.344 13.5348 19.3444 13.5348 19.3448C13.5348 19.3452 13.5348 19.3456 13.5348 19.346C13.5348 19.3464 13.5349 19.3468 13.5349 19.3472C13.5349 19.3475 13.5349 19.3479 13.5349 19.3483C13.5349 19.3487 13.5349 19.3491 13.535 19.3495C13.535 19.3499 13.535 19.3503 13.535 19.3507C13.535 19.3511 13.535 19.3515 13.5351 19.3518C13.5351 19.3522 13.5351 19.3526 13.5351 19.353C13.5351 19.3534 13.5351 19.3538 13.5351 19.3542C13.5352 19.3546 13.5352 19.355 13.5352 19.3554C13.5352 19.3557 13.5352 19.3561 13.5352 19.3565C13.5353 19.3569 13.5353 19.3573 13.5353 19.3577C13.5353 19.3581 13.5353 19.3585 13.5353 19.3589C13.5354 19.3593 13.5354 19.3597 13.5354 19.36C13.5354 19.3604 13.5354 19.3608 13.5354 19.3612C13.5354 19.3616 13.5355 19.362 13.5355 19.3624C13.5355 19.3628 13.5355 19.3632 13.5355 19.3636C13.5355 19.364 13.5356 19.3643 13.5356 19.3647C13.5356 19.3651 13.5356 19.3655 13.5356 19.3659C13.5356 19.3663 13.5356 19.3667 13.5357 19.3671C13.5357 19.3675 13.5357 19.3679 13.5357 19.3682C13.5357 19.3686 13.5357 19.369 13.5358 19.3694C13.5358 19.3698 13.5358 19.3702 13.5358 19.3706C13.5358 19.371 13.5358 19.3714 13.5359 19.3718C13.5359 19.3722 13.5359 19.3725 13.5359 19.3729C13.5359 19.3733 13.5359 19.3737 13.5359 19.3741C13.536 19.3745 13.536 19.3749 13.536 19.3753C13.536 19.3757 13.536 19.3761 13.536 19.3765C13.5361 19.3768 13.5361 19.3772 13.5361 19.3776C13.5361 19.378 13.5361 19.3784 13.5361 19.3788C13.5361 19.3792 13.5362 19.3796 13.5362 19.38C13.5362 19.3804 13.5362 19.3807 13.5362 19.3811C13.5362 19.3815 13.5363 19.3819 13.5363 19.3823C13.5363 19.3827 13.5363 19.3831 13.5363 19.3835C13.5363 19.3839 13.5364 19.3843 13.5364 19.3847C13.5364 19.385 13.5364 19.3854 13.5364 19.3858C13.5364 19.3862 13.5364 19.3866 13.5365 19.387C13.5365 19.3874 13.5365 19.3878 13.5365 19.3882C13.5365 19.3886 13.5365 19.389 13.5366 19.3893C13.5366 19.3897 13.5366 19.3901 13.5366 19.3905C13.5366 19.3909 13.5366 19.3913 13.5366 19.3917C13.5367 19.3921 13.5367 19.3925 13.5367 19.3929C13.5367 19.3932 13.5367 19.3936 13.5367 19.394C13.5368 19.3944 13.5368 19.3948 13.5368 19.3952C13.5368 19.3956 13.5368 19.396 13.5368 19.3964C13.5369 19.3968 13.5369 19.3972 13.5369 19.3975C13.5369 19.3979 13.5369 19.3983 13.5369 19.3987C13.5369 19.3991 13.537 19.3995 13.537 19.3999C13.537 19.4003 13.537 19.4007 13.537 19.4011C13.537 19.4015 13.5371 19.4018 13.5371 19.4022C13.5371 19.4026 13.5371 19.403 13.5371 19.4034C13.5371 19.4038 13.5371 19.4042 13.5372 19.4046C13.5372 19.405 13.5372 19.4054 13.5372 19.4057C13.5372 19.4061 13.5372 19.4065 13.5373 19.4069C13.5373 19.4073 13.5373 19.4077 13.5373 19.4081C13.5373 19.4085 13.5373 19.4089 13.5374 19.4093C13.5374 19.4097 13.5374 19.41 13.5374 19.4104C13.5374 19.4108 13.5374 19.4112 13.5374 19.4116C13.5375 19.412 13.5375 19.4124 13.5375 19.4128C13.5375 19.4132 13.5375 19.4136 13.5375 19.414C13.5376 19.4143 13.5376 19.4147 13.5376 19.4151C13.5376 19.4155 13.5376 19.4159 13.5376 19.4163C13.5376 19.4167 13.5377 19.4171 13.5377 19.4175C13.5377 19.4179 13.5377 19.4183 13.5377 19.4186C13.5377 19.419 13.5378 19.4194 13.5378 19.4198C13.5378 19.4202 13.5378 19.4206 13.5378 19.421C13.5378 19.4214 13.5379 19.4218 13.5379 19.4222C13.5379 19.4225 13.5379 19.4229 13.5379 19.4233C13.5379 19.4237 13.5379 19.4241 13.538 19.4245C13.538 19.4249 13.538 19.4253 13.538 19.4257C13.538 19.4261 13.538 19.4265 13.5381 19.4268C13.5381 19.4272 13.5381 19.4276 13.5381 19.428C13.5381 19.4284 13.5381 19.4288 13.5381 19.4292C13.5382 19.4296 13.5382 19.43 13.5382 19.4304C13.5382 19.4307 13.5382 19.4311 13.5382 19.4315C13.5383 19.4319 13.5383 19.4323 13.5383 19.4327C13.5383 19.4331 13.5383 19.4335 13.5383 19.4339C13.5384 19.4343 13.5384 19.4347 13.5384 19.435C13.5384 19.4354 13.5384 19.4358 13.5384 19.4362C13.5384 19.4366 13.5385 19.437 13.5385 19.4374C13.5385 19.4378 13.5385 19.4382 13.5385 19.4386C13.5385 19.439 13.5386 19.4393 13.5386 19.4397C13.5386 19.4401 13.5386 19.4405 13.5386 19.4409C13.5386 19.4413 13.5386 19.4417 13.5387 19.4421C13.5387 19.4425 13.5387 19.4429 13.5387 19.4432C13.5387 19.4436 13.5387 19.444 13.5388 19.4444C13.5388 19.4448 13.5388 19.4452 13.5388 19.4456C13.5388 19.446 13.5388 19.4464 13.5389 19.4468C13.5389 19.4472 13.5389 19.4475 13.5389 19.4479C13.5389 19.4483 13.5389 19.4487 13.5389 19.4491C13.539 19.4495 13.539 19.4499 13.539 19.4503C13.539 19.4507 13.539 19.4511 13.539 19.4515C13.5391 19.4518 13.5391 19.4522 13.5391 19.4526C13.5391 19.453 13.5391 19.4534 13.5391 19.4538C13.5391 19.4542 13.5392 19.4546 13.5392 19.455C13.5392 19.4554 13.5392 19.4557 13.5392 19.4561C13.5392 19.4565 13.5393 19.4569 13.5393 19.4573C13.5393 19.4577 13.5393 19.4581 13.5393 19.4585C13.5393 19.4589 13.5394 19.4593 13.5394 19.4597C13.5394 19.46 13.5394 19.4604 13.5394 19.4608C13.5394 19.4612 13.5394 19.4616 13.5395 19.462C13.5395 19.4624 13.5395 19.4628 13.5395 19.4632C13.5395 19.4636 13.5395 19.464 13.5396 19.4643C13.5396 19.4647 13.5396 19.4651 13.5396 19.4655C13.5396 19.4659 13.5396 19.4663 13.5396 19.4667C13.5397 19.4671 13.5397 19.4675 13.5397 19.4679C13.5397 19.4682 13.5397 19.4686 13.5397 19.469C13.5398 19.4694 13.5398 19.4698 13.5398 19.4702C13.5398 19.4706 13.5398 19.471 13.5398 19.4714C13.5399 19.4718 13.5399 19.4722 13.5399 19.4725C13.5399 19.4729 13.5399 19.4733 13.5399 19.4737C13.5399 19.4741 13.54 19.4745 13.54 19.4749C13.54 19.4753 13.54 19.4757 13.54 19.4761C13.54 19.4765 13.5401 19.4768 13.5401 19.4772C13.5401 19.4776 13.5401 19.478 13.5401 19.4784C13.5401 19.4788 13.5401 19.4792 13.5402 19.4796C13.5402 19.48 13.5402 19.4804 13.5402 19.4808C13.5402 19.4811 13.5402 19.4815 13.5403 19.4819C13.5403 19.4823 13.5403 19.4827 13.5403 19.4831C13.5403 19.4835 13.5403 19.4839 13.5404 19.4843C13.5404 19.4847 13.5404 19.485 13.5404 19.4854C13.5404 19.4858 13.5404 19.4862 13.5404 19.4866C13.5405 19.487 13.5405 19.4874 13.5405 19.4878C13.5405 19.4882 13.5405 19.4886 13.5405 19.489C13.5406 19.4893 13.5406 19.4897 13.5406 19.4901C13.5406 19.4905 13.5406 19.4909 13.5406 19.4913C13.5406 19.4917 13.5407 19.4921 13.5407 19.4925C13.5407 19.4929 13.5407 19.4932 13.5407 19.4936C13.5407 19.494 13.5408 19.4944 13.5408 19.4948C13.5408 19.4952 13.5408 19.4956 13.5408 19.496L14.54 19.456C14.54 19.4556 14.54 19.4552 14.54 19.4548C14.54 19.4545 14.5399 19.4541 14.5399 19.4537C14.5399 19.4533 14.5399 19.4529 14.5399 19.4525C14.5399 19.4521 14.5399 19.4517 14.5398 19.4513C14.5398 19.4509 14.5398 19.4505 14.5398 19.4502C14.5398 19.4498 14.5398 19.4494 14.5397 19.449C14.5397 19.4486 14.5397 19.4482 14.5397 19.4478C14.5397 19.4474 14.5397 19.447 14.5396 19.4466C14.5396 19.4462 14.5396 19.4459 14.5396 19.4455C14.5396 19.4451 14.5396 19.4447 14.5396 19.4443C14.5395 19.4439 14.5395 19.4435 14.5395 19.4431C14.5395 19.4427 14.5395 19.4423 14.5395 19.442C14.5394 19.4416 14.5394 19.4412 14.5394 19.4408C14.5394 19.4404 14.5394 19.44 14.5394 19.4396C14.5394 19.4392 14.5393 19.4388 14.5393 19.4384C14.5393 19.438 14.5393 19.4377 14.5393 19.4373C14.5393 19.4369 14.5392 19.4365 14.5392 19.4361C14.5392 19.4357 14.5392 19.4353 14.5392 19.4349C14.5392 19.4345 14.5391 19.4341 14.5391 19.4338C14.5391 19.4334 14.5391 19.433 14.5391 19.4326C14.5391 19.4322 14.5391 19.4318 14.539 19.4314C14.539 19.431 14.539 19.4306 14.539 19.4302C14.539 19.4298 14.539 19.4295 14.5389 19.4291C14.5389 19.4287 14.5389 19.4283 14.5389 19.4279C14.5389 19.4275 14.5389 19.4271 14.5389 19.4267C14.5388 19.4263 14.5388 19.4259 14.5388 19.4255C14.5388 19.4252 14.5388 19.4248 14.5388 19.4244C14.5387 19.424 14.5387 19.4236 14.5387 19.4232C14.5387 19.4228 14.5387 19.4224 14.5387 19.422C14.5386 19.4216 14.5386 19.4213 14.5386 19.4209C14.5386 19.4205 14.5386 19.4201 14.5386 19.4197C14.5386 19.4193 14.5385 19.4189 14.5385 19.4185C14.5385 19.4181 14.5385 19.4177 14.5385 19.4173C14.5385 19.417 14.5384 19.4166 14.5384 19.4162C14.5384 19.4158 14.5384 19.4154 14.5384 19.415C14.5384 19.4146 14.5384 19.4142 14.5383 19.4138C14.5383 19.4134 14.5383 19.413 14.5383 19.4127C14.5383 19.4123 14.5383 19.4119 14.5382 19.4115C14.5382 19.4111 14.5382 19.4107 14.5382 19.4103C14.5382 19.4099 14.5382 19.4095 14.5381 19.4091C14.5381 19.4088 14.5381 19.4084 14.5381 19.408C14.5381 19.4076 14.5381 19.4072 14.5381 19.4068C14.538 19.4064 14.538 19.406 14.538 19.4056C14.538 19.4052 14.538 19.4048 14.538 19.4045C14.5379 19.4041 14.5379 19.4037 14.5379 19.4033C14.5379 19.4029 14.5379 19.4025 14.5379 19.4021C14.5379 19.4017 14.5378 19.4013 14.5378 19.4009C14.5378 19.4005 14.5378 19.4002 14.5378 19.3998C14.5378 19.3994 14.5377 19.399 14.5377 19.3986C14.5377 19.3982 14.5377 19.3978 14.5377 19.3974C14.5377 19.397 14.5376 19.3966 14.5376 19.3963C14.5376 19.3959 14.5376 19.3955 14.5376 19.3951C14.5376 19.3947 14.5376 19.3943 14.5375 19.3939C14.5375 19.3935 14.5375 19.3931 14.5375 19.3927C14.5375 19.3923 14.5375 19.392 14.5374 19.3916C14.5374 19.3912 14.5374 19.3908 14.5374 19.3904C14.5374 19.39 14.5374 19.3896 14.5374 19.3892C14.5373 19.3888 14.5373 19.3884 14.5373 19.388C14.5373 19.3877 14.5373 19.3873 14.5373 19.3869C14.5372 19.3865 14.5372 19.3861 14.5372 19.3857C14.5372 19.3853 14.5372 19.3849 14.5372 19.3845C14.5371 19.3841 14.5371 19.3837 14.5371 19.3834C14.5371 19.383 14.5371 19.3826 14.5371 19.3822C14.5371 19.3818 14.537 19.3814 14.537 19.381C14.537 19.3806 14.537 19.3802 14.537 19.3798C14.537 19.3795 14.5369 19.3791 14.5369 19.3787C14.5369 19.3783 14.5369 19.3779 14.5369 19.3775C14.5369 19.3771 14.5369 19.3767 14.5368 19.3763C14.5368 19.3759 14.5368 19.3755 14.5368 19.3752C14.5368 19.3748 14.5368 19.3744 14.5367 19.374C14.5367 19.3736 14.5367 19.3732 14.5367 19.3728C14.5367 19.3724 14.5367 19.372 14.5366 19.3716C14.5366 19.3713 14.5366 19.3709 14.5366 19.3705C14.5366 19.3701 14.5366 19.3697 14.5366 19.3693C14.5365 19.3689 14.5365 19.3685 14.5365 19.3681C14.5365 19.3677 14.5365 19.3673 14.5365 19.367C14.5364 19.3666 14.5364 19.3662 14.5364 19.3658C14.5364 19.3654 14.5364 19.365 14.5364 19.3646C14.5364 19.3642 14.5363 19.3638 14.5363 19.3634C14.5363 19.363 14.5363 19.3627 14.5363 19.3623C14.5363 19.3619 14.5362 19.3615 14.5362 19.3611C14.5362 19.3607 14.5362 19.3603 14.5362 19.3599C14.5362 19.3595 14.5361 19.3591 14.5361 19.3588C14.5361 19.3584 14.5361 19.358 14.5361 19.3576C14.5361 19.3572 14.5361 19.3568 14.536 19.3564C14.536 19.356 14.536 19.3556 14.536 19.3552C14.536 19.3548 14.536 19.3545 14.5359 19.3541C14.5359 19.3537 14.5359 19.3533 14.5359 19.3529C14.5359 19.3525 14.5359 19.3521 14.5359 19.3517C14.5358 19.3513 14.5358 19.3509 14.5358 19.3505C14.5358 19.3502 14.5358 19.3498 14.5358 19.3494C14.5357 19.349 14.5357 19.3486 14.5357 19.3482C14.5357 19.3478 14.5357 19.3474 14.5357 19.347C14.5356 19.3466 14.5356 19.3463 14.5356 19.3459C14.5356 19.3455 14.5356 19.3451 14.5356 19.3447C14.5356 19.3443 14.5355 19.3439 14.5355 19.3435C14.5355 19.3431 14.5355 19.3427 14.5355 19.3423C14.5355 19.342 14.5354 19.3416 14.5354 19.3412C14.5354 19.3408 14.5354 19.3404 14.5354 19.34C14.5354 19.3396 14.5354 19.3392 14.5353 19.3388C14.5353 19.3384 14.5353 19.338 14.5353 19.3377C14.5353 19.3373 14.5353 19.3369 14.5352 19.3365C14.5352 19.3361 14.5352 19.3357 14.5352 19.3353C14.5352 19.3349 14.5352 19.3345 14.5351 19.3341C14.5351 19.3337 14.5351 19.3334 14.5351 19.333C14.5351 19.3326 14.5351 19.3322 14.5351 19.3318C14.535 19.3314 14.535 19.331 14.535 19.3306C14.535 19.3302 14.535 19.3298 14.535 19.3295C14.5349 19.3291 14.5349 19.3287 14.5349 19.3283C14.5349 19.3279 14.5349 19.3275 14.5349 19.3271C14.5349 19.3267 14.5348 19.3263 14.5348 19.3259C14.5348 19.3255 14.5348 19.3252 14.5348 19.3248C14.5348 19.3244 14.5347 19.324 14.5347 19.3236C14.5347 19.3232 14.5347 19.3228 14.5347 19.3224C14.5347 19.322 14.5346 19.3216 14.5346 19.3212C14.5346 19.3209 14.5346 19.3205 14.5346 19.3201C14.5346 19.3197 14.5346 19.3193 14.5345 19.3189C14.5345 19.3185 14.5345 19.3181 14.5345 19.3177C14.5345 19.3173 14.5345 19.317 14.5344 19.3166C14.5344 19.3162 14.5344 19.3158 14.5344 19.3154C14.5344 19.315 14.5344 19.3146 14.5344 19.3142C14.5343 19.3138 14.5343 19.3134 14.5343 19.313C14.5343 19.3127 14.5343 19.3123 14.5343 19.3119C14.5342 19.3115 14.5342 19.3111 14.5342 19.3107C14.5342 19.3103 14.5342 19.3099 14.5342 19.3095C14.5341 19.3091 14.5341 19.3088 14.5341 19.3084C14.5341 19.308 14.5341 19.3076 14.5341 19.3072C14.5341 19.3068 14.534 19.3064 14.534 19.306C14.534 19.3056 14.534 19.3052 14.534 19.3048C14.534 19.3045 14.5339 19.3041 14.5339 19.3037C14.5339 19.3033 14.5339 19.3029 14.5339 19.3025C14.5339 19.3021 14.5339 19.3017 14.5338 19.3013C14.5338 19.3009 14.5338 19.3005 14.5338 19.3002C14.5338 19.2998 14.5338 19.2994 14.5337 19.299C14.5337 19.2986 14.5337 19.2982 14.5337 19.2978C14.5337 19.2974 14.5337 19.297 14.5336 19.2966C14.5336 19.2963 14.5336 19.2959 14.5336 19.2955C14.5336 19.2951 14.5336 19.2947 14.5336 19.2943C14.5335 19.2939 14.5335 19.2935 14.5335 19.2931C14.5335 19.2927 14.5335 19.2923 14.5335 19.292C14.5334 19.2916 14.5334 19.2912 14.5334 19.2908C14.5334 19.2904 14.5334 19.29 14.5334 19.2896C14.5334 19.2892 14.5333 19.2888 14.5333 19.2884C14.5333 19.288 14.5333 19.2877 14.5333 19.2873C14.5333 19.2869 14.5332 19.2865 14.5332 19.2861C14.5332 19.2857 14.5332 19.2853 14.5332 19.2849C14.5332 19.2845 14.5331 19.2841 14.5331 19.2838C14.5331 19.2834 14.5331 19.283 14.5331 19.2826C14.5331 19.2822 14.5331 19.2818 14.533 19.2814C14.533 19.281 14.533 19.2806 14.533 19.2802C14.533 19.2798 14.533 19.2795 14.5329 19.2791C14.5329 19.2787 14.5329 19.2783 14.5329 19.2779C14.5329 19.2775 14.5329 19.2771 14.5329 19.2767C14.5328 19.2763 14.5328 19.2759 14.5328 19.2755C14.5328 19.2752 14.5328 19.2748 14.5328 19.2744C14.5327 19.274 14.5327 19.2736 14.5327 19.2732C14.5327 19.2728 14.5327 19.2724 14.5327 19.272C14.5326 19.2716 14.5326 19.2712 14.5326 19.2709C14.5326 19.2705 14.5326 19.2701 14.5326 19.2697C14.5326 19.2693 14.5325 19.2689 14.5325 19.2685C14.5325 19.2681 14.5325 19.2677 14.5325 19.2673C14.5325 19.267 14.5324 19.2666 14.5324 19.2662C14.5324 19.2658 14.5324 19.2654 14.5324 19.265C14.5324 19.2646 14.5324 19.2642 14.5323 19.2638C14.5323 19.2634 14.5323 19.263 14.5323 19.2627C14.5323 19.2623 14.5323 19.2619 14.5322 19.2615C14.5322 19.2611 14.5322 19.2607 14.5322 19.2603C14.5322 19.2599 14.5322 19.2595 14.5321 19.2591C14.5321 19.2587 14.5321 19.2584 14.5321 19.258C14.5321 19.2576 14.5321 19.2572 14.5321 19.2568C14.532 19.2564 14.532 19.256 14.532 19.2556C14.532 19.2552 14.532 19.2548 14.532 19.2545C14.5319 19.2541 14.5319 19.2537 14.5319 19.2533C14.5319 19.2529 14.5319 19.2525 14.5319 19.2521C14.5319 19.2517 14.5318 19.2513 14.5318 19.2509C14.5318 19.2505 14.5318 19.2502 14.5318 19.2498C14.5318 19.2494 14.5317 19.249 14.5317 19.2486C14.5317 19.2482 14.5317 19.2478 14.5317 19.2474C14.5317 19.247 14.5316 19.2466 14.5316 19.2463C14.5316 19.2459 14.5316 19.2455 14.5316 19.2451C14.5316 19.2447 14.5316 19.2443 14.5315 19.2439C14.5315 19.2435 14.5315 19.2431 14.5315 19.2427C14.5315 19.2423 14.5315 19.242 14.5314 19.2416C14.5314 19.2412 14.5314 19.2408 14.5314 19.2404C14.5314 19.24 14.5314 19.2396 14.5314 19.2392C14.5313 19.2388 14.5313 19.2384 14.5313 19.238C14.5313 19.2377 14.5313 19.2373 14.5313 19.2369C14.5312 19.2365 14.5312 19.2361 14.5312 19.2357C14.5312 19.2353 14.5312 19.2349 14.5312 19.2345C14.5311 19.2341 14.5311 19.2338 14.5311 19.2334C14.5311 19.233 14.5311 19.2326 14.5311 19.2322C14.5311 19.2318 14.531 19.2314 14.531 19.231C14.531 19.2306 14.531 19.2302 14.531 19.2298C14.531 19.2295 14.5309 19.2291 14.5309 19.2287C14.5309 19.2283 14.5309 19.2279 14.5309 19.2275C14.5309 19.2271 14.5309 19.2267 14.5308 19.2263C14.5308 19.2259 14.5308 19.2255 14.5308 19.2252C14.5308 19.2248 14.5308 19.2244 14.5307 19.224C14.5307 19.2236 14.5307 19.2232 14.5307 19.2228C14.5307 19.2224 14.5307 19.222 14.5306 19.2216C14.5306 19.2213 14.5306 19.2209 14.5306 19.2205C14.5306 19.2201 14.5306 19.2197 14.5306 19.2193C14.5305 19.2189 14.5305 19.2185 14.5305 19.2181C14.5305 19.2177 14.5305 19.2173 14.5305 19.217C14.5304 19.2166 14.5304 19.2162 14.5304 19.2158C14.5304 19.2154 14.5304 19.215 14.5304 19.2146C14.5304 19.2142 14.5303 19.2138 14.5303 19.2134C14.5303 19.213 14.5303 19.2127 14.5303 19.2123C14.5303 19.2119 14.5302 19.2115 14.5302 19.2111C14.5302 19.2107 14.5302 19.2103 14.5302 19.2099C14.5302 19.2095 14.5301 19.2091 14.5301 19.2087C14.5301 19.2084 14.5301 19.208 14.5301 19.2076C14.5301 19.2072 14.5301 19.2068 14.53 19.2064C14.53 19.206 14.53 19.2056 14.53 19.2052C14.53 19.2048 14.53 19.2045 14.5299 19.2041C14.5299 19.2037 14.5299 19.2033 14.5299 19.2029C14.5299 19.2025 14.5299 19.2021 14.5299 19.2017C14.5298 19.2013 14.5298 19.2009 14.5298 19.2005C14.5298 19.2002 14.5298 19.1998 14.5298 19.1994C14.5297 19.199 14.5297 19.1986 14.5297 19.1982C14.5297 19.1978 14.5297 19.1974 14.5297 19.197C14.5296 19.1966 14.5296 19.1962 14.5296 19.1959C14.5296 19.1955 14.5296 19.1951 14.5296 19.1947C14.5296 19.1943 14.5295 19.1939 14.5295 19.1935C14.5295 19.1931 14.5295 19.1927 14.5295 19.1923C14.5295 19.192 14.5294 19.1916 14.5294 19.1912C14.5294 19.1908 14.5294 19.1904 14.5294 19.19C14.5294 19.1896 14.5294 19.1892 14.5293 19.1888C14.5293 19.1884 14.5293 19.188 14.5293 19.1877C14.5293 19.1873 14.5293 19.1869 14.5292 19.1865C14.5292 19.1861 14.5292 19.1857 14.5292 19.1853C14.5292 19.1849 14.5292 19.1845 14.5291 19.1841C14.5291 19.1838 14.5291 19.1834 14.5291 19.183C14.5291 19.1826 14.5291 19.1822 14.5291 19.1818C14.529 19.1814 14.529 19.181 14.529 19.1806C14.529 19.1802 14.529 19.1798 14.529 19.1795C14.5289 19.1791 14.5289 19.1787 14.5289 19.1783C14.5289 19.1779 14.5289 19.1775 14.5289 19.1771C14.5289 19.1767 14.5288 19.1763 14.5288 19.1759C14.5288 19.1755 14.5288 19.1752 14.5288 19.1748C14.5288 19.1744 14.5287 19.174 14.5287 19.1736C14.5287 19.1732 14.5287 19.1728 14.5287 19.1724C14.5287 19.172 14.5286 19.1716 14.5286 19.1713C14.5286 19.1709 14.5286 19.1705 14.5286 19.1701C14.5286 19.1697 14.5286 19.1693 14.5285 19.1689C14.5285 19.1685 14.5285 19.1681 14.5285 19.1677C14.5285 19.1673 14.5285 19.167 14.5284 19.1666C14.5284 19.1662 14.5284 19.1658 14.5284 19.1654C14.5284 19.165 14.5284 19.1646 14.5284 19.1642C14.5283 19.1638 14.5283 19.1634 14.5283 19.163C14.5283 19.1627 14.5283 19.1623 14.5283 19.1619C14.5282 19.1615 14.5282 19.1611 14.5282 19.1607C14.5282 19.1603 14.5282 19.1599 14.5282 19.1595C14.5281 19.1591 14.5281 19.1588 14.5281 19.1584C14.5281 19.158 14.5281 19.1576 14.5281 19.1572C14.5281 19.1568 14.528 19.1564 14.528 19.156C14.528 19.1556 14.528 19.1552 14.528 19.1548C14.528 19.1545 14.5279 19.1541 14.5279 19.1537C14.5279 19.1533 14.5279 19.1529 14.5279 19.1525C14.5279 19.1521 14.5279 19.1517 14.5278 19.1513C14.5278 19.1509 14.5278 19.1505 14.5278 19.1502C14.5278 19.1498 14.5278 19.1494 14.5277 19.149C14.5277 19.1486 14.5277 19.1482 14.5277 19.1478C14.5277 19.1474 14.5277 19.147 14.5276 19.1466C14.5276 19.1462 14.5276 19.1459 14.5276 19.1455C14.5276 19.1451 14.5276 19.1447 14.5276 19.1443C14.5275 19.1439 14.5275 19.1435 14.5275 19.1431C14.5275 19.1427 14.5275 19.1423 14.5275 19.142C14.5274 19.1416 14.5274 19.1412 14.5274 19.1408C14.5274 19.1404 14.5274 19.14 14.5274 19.1396C14.5274 19.1392 14.5273 19.1388 14.5273 19.1384C14.5273 19.138 14.5273 19.1377 14.5273 19.1373C14.5273 19.1369 14.5272 19.1365 14.5272 19.1361C14.5272 19.1357 14.5272 19.1353 14.5272 19.1349C14.5272 19.1345 14.5271 19.1341 14.5271 19.1337C14.5271 19.1334 14.5271 19.133 14.5271 19.1326C14.5271 19.1322 14.5271 19.1318 14.527 19.1314C14.527 19.131 14.527 19.1306 14.527 19.1302C14.527 19.1298 14.527 19.1295 14.5269 19.1291C14.5269 19.1287 14.5269 19.1283 14.5269 19.1279C14.5269 19.1275 14.5269 19.1271 14.5269 19.1267C14.5268 19.1263 14.5268 19.1259 14.5268 19.1255C14.5268 19.1252 14.5268 19.1248 14.5268 19.1244C14.5267 19.124 14.5267 19.1236 14.5267 19.1232C14.5267 19.1228 14.5267 19.1224 14.5267 19.122C14.5266 19.1216 14.5266 19.1213 14.5266 19.1209C14.5266 19.1205 14.5266 19.1201 14.5266 19.1197C14.5266 19.1193 14.5265 19.1189 14.5265 19.1185C14.5265 19.1181 14.5265 19.1177 14.5265 19.1173C14.5265 19.117 14.5264 19.1166 14.5264 19.1162C14.5264 19.1158 14.5264 19.1154 14.5264 19.115C14.5264 19.1146 14.5264 19.1142 14.5263 19.1138C14.5263 19.1134 14.5263 19.113 14.5263 19.1127C14.5263 19.1123 14.5263 19.1119 14.5262 19.1115C14.5262 19.1111 14.5262 19.1107 14.5262 19.1103C14.5262 19.1099 14.5262 19.1095 14.5261 19.1091C14.5261 19.1088 14.5261 19.1084 14.5261 19.108C14.5261 19.1076 14.5261 19.1072 14.5261 19.1068C14.526 19.1064 14.526 19.106 14.526 19.1056C14.526 19.1052 14.526 19.1048 14.526 19.1045C14.5259 19.1041 14.5259 19.1037 14.5259 19.1033C14.5259 19.1029 14.5259 19.1025 14.5259 19.1021C14.5259 19.1017 14.5258 19.1013 14.5258 19.1009C14.5258 19.1005 14.5258 19.1002 14.5258 19.0998C14.5258 19.0994 14.5257 19.099 14.5257 19.0986C14.5257 19.0982 14.5257 19.0978 14.5257 19.0974C14.5257 19.097 14.5256 19.0966 14.5256 19.0963C14.5256 19.0959 14.5256 19.0955 14.5256 19.0951C14.5256 19.0947 14.5256 19.0943 14.5255 19.0939C14.5255 19.0935 14.5255 19.0931 14.5255 19.0927C14.5255 19.0923 14.5255 19.092 14.5254 19.0916C14.5254 19.0912 14.5254 19.0908 14.5254 19.0904C14.5254 19.09 14.5254 19.0896 14.5254 19.0892C14.5253 19.0888 14.5253 19.0884 14.5253 19.088C14.5253 19.0877 14.5253 19.0873 14.5253 19.0869C14.5252 19.0865 14.5252 19.0861 14.5252 19.0857C14.5252 19.0853 14.5252 19.0849 14.5252 19.0845C14.5251 19.0841 14.5251 19.0837 14.5251 19.0834C14.5251 19.083 14.5251 19.0826 14.5251 19.0822C14.5251 19.0818 14.525 19.0814 14.525 19.081C14.525 19.0806 14.525 19.0802 14.525 19.0798C14.525 19.0795 14.5249 19.0791 14.5249 19.0787C14.5249 19.0783 14.5249 19.0779 14.5249 19.0775C14.5249 19.0771 14.5249 19.0767 14.5248 19.0763C14.5248 19.0759 14.5248 19.0755 14.5248 19.0752C14.5248 19.0748 14.5248 19.0744 14.5247 19.074C14.5247 19.0736 14.5247 19.0732 14.5247 19.0728C14.5247 19.0724 14.5247 19.072 14.5246 19.0716C14.5246 19.0712 14.5246 19.0709 14.5246 19.0705C14.5246 19.0701 14.5246 19.0697 14.5246 19.0693C14.5245 19.0689 14.5245 19.0685 14.5245 19.0681C14.5245 19.0677 14.5245 19.0673 14.5245 19.067C14.5244 19.0666 14.5244 19.0662 14.5244 19.0658C14.5244 19.0654 14.5244 19.065 14.5244 19.0646C14.5244 19.0642 14.5243 19.0638 14.5243 19.0634C14.5243 19.063 14.5243 19.0627 14.5243 19.0623C14.5243 19.0619 14.5242 19.0615 14.5242 19.0611C14.5242 19.0607 14.5242 19.0603 14.5242 19.0599C14.5242 19.0595 14.5241 19.0591 14.5241 19.0588C14.5241 19.0584 14.5241 19.058 14.5241 19.0576C14.5241 19.0572 14.5241 19.0568 14.524 19.0564C14.524 19.056 14.524 19.0556 14.524 19.0552C14.524 19.0548 14.524 19.0545 14.5239 19.0541C14.5239 19.0537 14.5239 19.0533 14.5239 19.0529C14.5239 19.0525 14.5239 19.0521 14.5239 19.0517C14.5238 19.0513 14.5238 19.0509 14.5238 19.0505C14.5238 19.0502 14.5238 19.0498 14.5238 19.0494C14.5237 19.049 14.5237 19.0486 14.5237 19.0482C14.5237 19.0478 14.5237 19.0474 14.5237 19.047C14.5236 19.0466 14.5236 19.0463 14.5236 19.0459C14.5236 19.0455 14.5236 19.0451 14.5236 19.0447C14.5236 19.0443 14.5235 19.0439 14.5235 19.0435C14.5235 19.0431 14.5235 19.0427 14.5235 19.0423C14.5235 19.042 14.5234 19.0416 14.5234 19.0412C14.5234 19.0408 14.5234 19.0404 14.5234 19.04C14.5234 19.0396 14.5234 19.0392 14.5233 19.0388C14.5233 19.0384 14.5233 19.038 14.5233 19.0377C14.5233 19.0373 14.5233 19.0369 14.5232 19.0365C14.5232 19.0361 14.5232 19.0357 14.5232 19.0353C14.5232 19.0349 14.5232 19.0345 14.5231 19.0341C14.5231 19.0338 14.5231 19.0334 14.5231 19.033C14.5231 19.0326 14.5231 19.0322 14.5231 19.0318C14.523 19.0314 14.523 19.031 14.523 19.0306C14.523 19.0302 14.523 19.0298 14.523 19.0295C14.5229 19.0291 14.5229 19.0287 14.5229 19.0283C14.5229 19.0279 14.5229 19.0275 14.5229 19.0271C14.5229 19.0267 14.5228 19.0263 14.5228 19.0259C14.5228 19.0255 14.5228 19.0252 14.5228 19.0248C14.5228 19.0244 14.5227 19.024 14.5227 19.0236C14.5227 19.0232 14.5227 19.0228 14.5227 19.0224C14.5227 19.022 14.5226 19.0216 14.5226 19.0212C14.5226 19.0209 14.5226 19.0205 14.5226 19.0201C14.5226 19.0197 14.5226 19.0193 14.5225 19.0189C14.5225 19.0185 14.5225 19.0181 14.5225 19.0177C14.5225 19.0173 14.5225 19.017 14.5224 19.0166C14.5224 19.0162 14.5224 19.0158 14.5224 19.0154C14.5224 19.015 14.5224 19.0146 14.5224 19.0142C14.5223 19.0138 14.5223 19.0134 14.5223 19.013C14.5223 19.0127 14.5223 19.0123 14.5223 19.0119C14.5222 19.0115 14.5222 19.0111 14.5222 19.0107C14.5222 19.0103 14.5222 19.0099 14.5222 19.0095C14.5221 19.0091 14.5221 19.0087 14.5221 19.0084C14.5221 19.008 14.5221 19.0076 14.5221 19.0072C14.5221 19.0068 14.522 19.0064 14.522 19.006C14.522 19.0056 14.522 19.0052 14.522 19.0048C14.522 19.0045 14.5219 19.0041 14.5219 19.0037C14.5219 19.0033 14.5219 19.0029 14.5219 19.0025C14.5219 19.0021 14.5219 19.0017 14.5218 19.0013C14.5218 19.0009 14.5218 19.0005 14.5218 19.0002C14.5218 18.9998 14.5218 18.9994 14.5217 18.999C14.5217 18.9986 14.5217 18.9982 14.5217 18.9978C14.5217 18.9974 14.5217 18.997 14.5216 18.9966C14.5216 18.9963 14.5216 18.9959 14.5216 18.9955C14.5216 18.9951 14.5216 18.9947 14.5216 18.9943C14.5215 18.9939 14.5215 18.9935 14.5215 18.9931C14.5215 18.9927 14.5215 18.9923 14.5215 18.992C14.5214 18.9916 14.5214 18.9912 14.5214 18.9908C14.5214 18.9904 14.5214 18.99 14.5214 18.9896C14.5214 18.9892 14.5213 18.9888 14.5213 18.9884C14.5213 18.988 14.5213 18.9877 14.5213 18.9873C14.5213 18.9869 14.5212 18.9865 14.5212 18.9861C14.5212 18.9857 14.5212 18.9853 14.5212 18.9849C14.5212 18.9845 14.5211 18.9841 14.5211 18.9838C14.5211 18.9834 14.5211 18.983 14.5211 18.9826C14.5211 18.9822 14.5211 18.9818 14.521 18.9814C14.521 18.981 14.521 18.9806 14.521 18.9802C14.521 18.9798 14.521 18.9795 14.5209 18.9791C14.5209 18.9787 14.5209 18.9783 14.5209 18.9779C14.5209 18.9775 14.5209 18.9771 14.5209 18.9767C14.5208 18.9763 14.5208 18.9759 14.5208 18.9755C14.5208 18.9752 14.5208 18.9748 14.5208 18.9744C14.5207 18.974 14.5207 18.9736 14.5207 18.9732C14.5207 18.9728 14.5207 18.9724 14.5207 18.972C14.5206 18.9716 14.5206 18.9713 14.5206 18.9709C14.5206 18.9705 14.5206 18.9701 14.5206 18.9697C14.5206 18.9693 14.5205 18.9689 14.5205 18.9685C14.5205 18.9681 14.5205 18.9677 14.5205 18.9673C14.5205 18.967 14.5204 18.9666 14.5204 18.9662C14.5204 18.9658 14.5204 18.9654 14.5204 18.965C14.5204 18.9646 14.5204 18.9642 14.5203 18.9638C14.5203 18.9634 14.5203 18.963 14.5203 18.9627C14.5203 18.9623 14.5203 18.9619 14.5202 18.9615C14.5202 18.9611 14.5202 18.9607 14.5202 18.9603C14.5202 18.9599 14.5202 18.9595 14.5201 18.9591C14.5201 18.9588 14.5201 18.9584 14.5201 18.958C14.5201 18.9576 14.5201 18.9572 14.5201 18.9568C14.52 18.9564 14.52 18.956 14.52 18.9556C14.52 18.9552 14.52 18.9548 14.52 18.9545C14.5199 18.9541 14.5199 18.9537 14.5199 18.9533C14.5199 18.9529 14.5199 18.9525 14.5199 18.9521C14.5199 18.9517 14.5198 18.9513 14.5198 18.9509C14.5198 18.9505 14.5198 18.9502 14.5198 18.9498C14.5198 18.9494 14.5197 18.949 14.5197 18.9486C14.5197 18.9482 14.5197 18.9478 14.5197 18.9474C14.5197 18.947 14.5196 18.9466 14.5196 18.9462C14.5196 18.9459 14.5196 18.9455 14.5196 18.9451C14.5196 18.9447 14.5196 18.9443 14.5195 18.9439C14.5195 18.9435 14.5195 18.9431 14.5195 18.9427C14.5195 18.9423 14.5195 18.942 14.5194 18.9416C14.5194 18.9412 14.5194 18.9408 14.5194 18.9404C14.5194 18.94 14.5194 18.9396 14.5194 18.9392C14.5193 18.9388 14.5193 18.9384 14.5193 18.938C14.5193 18.9377 14.5193 18.9373 14.5193 18.9369C14.5192 18.9365 14.5192 18.9361 14.5192 18.9357C14.5192 18.9353 14.5192 18.9349 14.5192 18.9345C14.5191 18.9341 14.5191 18.9338 14.5191 18.9334C14.5191 18.933 14.5191 18.9326 14.5191 18.9322C14.5191 18.9318 14.519 18.9314 14.519 18.931C14.519 18.9306 14.519 18.9302 14.519 18.9298C14.519 18.9295 14.5189 18.9291 14.5189 18.9287C14.5189 18.9283 14.5189 18.9279 14.5189 18.9275C14.5189 18.9271 14.5189 18.9267 14.5188 18.9263C14.5188 18.9259 14.5188 18.9255 14.5188 18.9252C14.5188 18.9248 14.5188 18.9244 14.5187 18.924C14.5187 18.9236 14.5187 18.9232 14.5187 18.9228C14.5187 18.9224 14.5187 18.922 14.5186 18.9216C14.5186 18.9213 14.5186 18.9209 14.5186 18.9205C14.5186 18.9201 14.5186 18.9197 14.5186 18.9193C14.5185 18.9189 14.5185 18.9185 14.5185 18.9181C14.5185 18.9177 14.5185 18.9173 14.5185 18.917C14.5184 18.9166 14.5184 18.9162 14.5184 18.9158C14.5184 18.9154 14.5184 18.915 14.5184 18.9146C14.5184 18.9142 14.5183 18.9138 14.5183 18.9134C14.5183 18.913 14.5183 18.9127 14.5183 18.9123C14.5183 18.9119 14.5182 18.9115 14.5182 18.9111C14.5182 18.9107 14.5182 18.9103 14.5182 18.9099C14.5182 18.9095 14.5181 18.9091 14.5181 18.9088C14.5181 18.9084 14.5181 18.908 14.5181 18.9076C14.5181 18.9072 14.5181 18.9068 14.518 18.9064C14.518 18.906 14.518 18.9056 14.518 18.9052C14.518 18.9048 14.518 18.9045 14.5179 18.9041C14.5179 18.9037 14.5179 18.9033 14.5179 18.9029C14.5179 18.9025 14.5179 18.9021 14.5179 18.9017C14.5178 18.9013 14.5178 18.9009 14.5178 18.9005C14.5178 18.9002 14.5178 18.8998 14.5178 18.8994C14.5177 18.899 14.5177 18.8986 14.5177 18.8982C14.5177 18.8978 14.5177 18.8974 14.5177 18.897C14.5176 18.8966 14.5176 18.8963 14.5176 18.8959C14.5176 18.8955 14.5176 18.8951 14.5176 18.8947C14.5176 18.8943 14.5175 18.8939 14.5175 18.8935C14.5175 18.8931 14.5175 18.8927 14.5175 18.8923C14.5175 18.892 14.5174 18.8916 14.5174 18.8912C14.5174 18.8908 14.5174 18.8904 14.5174 18.89C14.5174 18.8896 14.5174 18.8892 14.5173 18.8888C14.5173 18.8884 14.5173 18.888 14.5173 18.8877C14.5173 18.8873 14.5173 18.8869 14.5172 18.8865C14.5172 18.8861 14.5172 18.8857 14.5172 18.8853C14.5172 18.8849 14.5172 18.8845 14.5171 18.8841C14.5171 18.8837 14.5171 18.8834 14.5171 18.883C14.5171 18.8826 14.5171 18.8822 14.5171 18.8818C14.517 18.8814 14.517 18.881 14.517 18.8806C14.517 18.8802 14.517 18.8798 14.517 18.8795C14.5169 18.8791 14.5169 18.8787 14.5169 18.8783C14.5169 18.8779 14.5169 18.8775 14.5169 18.8771C14.5169 18.8767 14.5168 18.8763 14.5168 18.8759C14.5168 18.8755 14.5168 18.8752 14.5168 18.8748C14.5168 18.8744 14.5167 18.874 14.5167 18.8736C14.5167 18.8732 14.5167 18.8728 14.5167 18.8724C14.5167 18.872 14.5166 18.8716 14.5166 18.8713C14.5166 18.8709 14.5166 18.8705 14.5166 18.8701C14.5166 18.8697 14.5166 18.8693 14.5165 18.8689C14.5165 18.8685 14.5165 18.8681 14.5165 18.8677C14.5165 18.8673 14.5165 18.867 14.5164 18.8666C14.5164 18.8662 14.5164 18.8658 14.5164 18.8654C14.5164 18.865 14.5164 18.8646 14.5164 18.8642C14.5163 18.8638 14.5163 18.8634 14.5163 18.863C14.5163 18.8627 14.5163 18.8623 14.5163 18.8619C14.5162 18.8615 14.5162 18.8611 14.5162 18.8607C14.5162 18.8603 14.5162 18.8599 14.5162 18.8595C14.5161 18.8591 14.5161 18.8588 14.5161 18.8584C14.5161 18.858 14.5161 18.8576 14.5161 18.8572C14.5161 18.8568 14.516 18.8564 14.516 18.856L13.5168 18.896ZM13.5409 19.4968C13.5489 19.6891 13.5569 19.8774 13.5649 20.0617L14.564 20.0183C14.556 19.8346 14.548 19.6469 14.54 19.4552L13.5409 19.4968ZM13.5644 20.04V24H14.5644V20.04H13.5644ZM14.0644 23.5H12.2404V24.5H14.0644V23.5ZM12.7404 24V15.432H11.7404V24H12.7404ZM12.2404 15.932H14.8684V14.932H12.2404V15.932ZM14.4313 15.6747L17.8753 21.8787L18.7496 21.3933L15.3056 15.1893L14.4313 15.6747ZM18.3124 22.136H18.3484V21.136H18.3124V22.136ZM18.8479 21.6122C18.8399 21.445 18.8319 21.2697 18.824 21.0863L17.8249 21.1297C17.8329 21.3143 17.841 21.491 17.849 21.6598L18.8479 21.6122ZM18.824 21.0872C18.816 20.8952 18.808 20.7032 18.8 20.5112L17.8009 20.5528C17.8089 20.7448 17.8169 20.9368 17.8249 21.1288L18.824 21.0872ZM18.8 20.512C18.792 20.3115 18.784 20.1189 18.7759 19.9343L17.7769 19.9777C17.7849 20.1611 17.7928 20.3525 17.8008 20.552L18.8 20.512ZM18.7764 19.956C18.7764 19.7571 18.7723 19.5655 18.7639 19.3813L17.7649 19.4267C17.7726 19.5945 17.7764 19.7709 17.7764 19.956H18.7764ZM18.7644 19.404V15.432H17.7644V19.404H18.7644ZM18.2644 15.932H20.1004V14.932H18.2644V15.932ZM19.6004 15.432V24H20.6004V15.432H19.6004ZM27.1233 24V24.5H27.6233V24H27.1233ZM22.1193 24H21.6193V24.5H22.1193V24ZM22.1193 15.432V14.932H21.6193V15.432H22.1193ZM27.1233 15.432H27.6233V14.932H27.1233V15.432ZM27.1233 17.088V17.588H27.6233V17.088H27.1233ZM24.1593 17.088V16.588H23.6593V17.088H24.1593ZM24.1593 18.732H23.6593V19.232H24.1593V18.732ZM26.9073 18.732H27.4073V18.232H26.9073V18.732ZM26.9073 20.388V20.888H27.4073V20.388H26.9073ZM24.1593 20.388V19.888H23.6593V20.388H24.1593ZM24.1593 22.32H23.6593V22.82H24.1593V22.32ZM27.1233 22.32H27.6233V21.82H27.1233V22.32ZM27.1233 23.5H22.1193V24.5H27.1233V23.5ZM22.6193 24V15.432H21.6193V24H22.6193ZM22.1193 15.932H27.1233V14.932H22.1193V15.932ZM26.6233 15.432V17.088H27.6233V15.432H26.6233ZM27.1233 16.588H24.1593V17.588H27.1233V16.588ZM23.6593 17.088V18.732H24.6593V17.088H23.6593ZM24.1593 19.232H26.9073V18.232H24.1593V19.232ZM26.4073 18.732V20.388H27.4073V18.732H26.4073ZM26.9073 19.888H24.1593V20.888H26.9073V19.888ZM23.6593 20.388V22.32H24.6593V20.388H23.6593ZM24.1593 22.82H27.1233V21.82H24.1593V22.82ZM26.6233 22.32V24H27.6233V22.32H26.6233ZM39.6836 15.432L40.1686 15.5536L40.3244 14.932H39.6836V15.432ZM37.5356 24V24.5H37.9257L38.0206 24.1216L37.5356 24ZM35.1596 24L34.6734 24.117L34.7656 24.5H35.1596V24ZM34.1636 19.86L34.6497 19.743L34.6479 19.7357L34.646 19.7284L34.1636 19.86ZM34.0796 19.476L33.5876 19.5654L33.5884 19.5696L34.0796 19.476ZM33.9596 18.9L33.4679 18.991L33.4699 19.0018L33.4724 19.0124L33.9596 18.9ZM33.8516 18.288L33.3578 18.367L33.3584 18.3702L33.8516 18.288ZM33.7796 17.808L34.2752 17.7419L33.284 17.7419L33.7796 17.808ZM33.6956 18.288L33.2053 18.1899L33.2037 18.1978L33.2024 18.2058L33.6956 18.288ZM33.5876 18.9L34.0786 18.9944L34.0792 18.991L33.5876 18.9ZM33.4676 19.476L32.98 19.3652L32.9781 19.3738L32.9764 19.3824L33.4676 19.476ZM33.3836 19.86L32.901 19.7284L32.8978 19.7417L33.3836 19.86ZM32.3756 24V24.5H32.7684L32.8614 24.1183L32.3756 24ZM30.0116 24L29.5267 24.1222L29.622 24.5H30.0116V24ZM27.8516 15.432V14.932H27.2099L27.3667 15.5542L27.8516 15.432ZM29.8436 15.432L30.3312 15.3215L30.2429 14.932H29.8436V15.432ZM30.8636 19.932L30.3759 20.0425L30.378 20.0517L30.3805 20.0608L30.8636 19.932ZM30.9716 20.412L30.4813 20.5101L30.4821 20.514L30.9716 20.412ZM31.0916 21.036L30.5994 21.1239L30.5999 21.127L31.0916 21.036ZM31.1996 21.672L30.7054 21.748L30.7071 21.7591L30.7093 21.7701L31.1996 21.672ZM31.2836 22.188L30.7866 22.2432L31.7797 22.25L31.2836 22.188ZM31.3796 21.528L30.8887 21.433L30.8872 21.4407L30.886 21.4484L31.3796 21.528ZM31.5236 20.772L32.015 20.8641V20.8641L31.5236 20.772ZM31.7996 19.512L32.2793 19.6531L32.2822 19.6432L32.2846 19.6333L31.7996 19.512ZM32.8196 15.432V14.932H32.4292L32.3345 15.3107L32.8196 15.432ZM34.7276 15.432L35.2127 15.3107L35.118 14.932H34.7276V15.432ZM35.7476 19.512L36.24 19.4251L36.2369 19.4078L36.2326 19.3907L35.7476 19.512ZM35.8556 20.052L35.3667 20.1568L35.3685 20.165L35.3705 20.1733L35.8556 20.052ZM36.0116 20.784L35.5196 20.8734L35.5212 20.8822L35.5231 20.8908L36.0116 20.784ZM36.1556 21.54L36.6492 21.4604V21.4604L36.1556 21.54ZM36.2516 22.188L35.7558 22.2527L36.748 22.2476L36.2516 22.188ZM36.3596 21.468L35.8686 21.3725L35.8668 21.3835L36.3596 21.468ZM36.5276 20.616L37.0179 20.7141L37.0184 20.7114L36.5276 20.616ZM36.6716 19.944L37.1568 20.0653L37.1593 20.0542L36.6716 19.944ZM37.6916 15.432V14.932H37.292L37.2039 15.3217L37.6916 15.432ZM39.1986 15.3104L37.0506 23.8784L38.0206 24.1216L40.1686 15.5536L39.1986 15.3104ZM37.5356 23.5H35.1596V24.5H37.5356V23.5ZM35.6457 23.883L34.6497 19.743L33.6774 19.977L34.6734 24.117L35.6457 23.883ZM34.646 19.7284C34.6272 19.6595 34.602 19.5466 34.5707 19.3824L33.5884 19.5696C33.6211 19.7414 33.652 19.8845 33.6812 19.9916L34.646 19.7284ZM34.5715 19.3866C34.5379 19.2016 34.4962 19.0018 34.4468 18.7876L33.4724 19.0124C33.5189 19.2142 33.5573 19.3984 33.5876 19.5654L34.5715 19.3866ZM34.4512 18.809C34.4117 18.5955 34.3762 18.3945 34.3448 18.2058L33.3584 18.3702C33.3909 18.5655 33.4275 18.7725 33.4679 18.991L34.4512 18.809ZM34.3453 18.209C34.3136 18.0109 34.2904 17.8557 34.2752 17.7419L33.284 17.8741C33.3008 18.0003 33.3256 18.1651 33.3579 18.367L34.3453 18.209ZM33.284 17.7419C33.27 17.8464 33.2444 17.9944 33.2053 18.1899L34.1859 18.3861C34.2268 18.1816 34.2571 18.0096 34.2752 17.8741L33.284 17.7419ZM33.2024 18.2058C33.1709 18.3945 33.1355 18.5955 33.0959 18.809L34.0792 18.991C34.1197 18.7725 34.1562 18.5655 34.1888 18.3702L33.2024 18.2058ZM33.0966 18.8056C33.0575 19.009 33.0186 19.1955 32.98 19.3652L33.9551 19.5868C33.9966 19.4045 34.0377 19.207 34.0786 18.9944L33.0966 18.8056ZM32.9764 19.3824C32.9451 19.5466 32.92 19.6595 32.9012 19.7284L33.866 19.9916C33.8952 19.8845 33.926 19.7414 33.9587 19.5696L32.9764 19.3824ZM32.8978 19.7417L31.8898 23.8817L32.8614 24.1183L33.8694 19.9783L32.8978 19.7417ZM32.3756 23.5H30.0116V24.5H32.3756V23.5ZM30.4964 23.8778L28.3364 15.3098L27.3667 15.5542L29.5267 24.1222L30.4964 23.8778ZM27.8516 15.932H29.8436V14.932H27.8516V15.932ZM29.3559 15.5425L30.3759 20.0425L31.3512 19.8215L30.3312 15.3215L29.3559 15.5425ZM30.3805 20.0608C30.4086 20.1663 30.4422 20.3148 30.4813 20.5101L31.4619 20.3139C31.4209 20.1092 31.3826 19.9377 31.3467 19.8032L30.3805 20.0608ZM30.4821 20.514C30.521 20.7006 30.5601 20.9039 30.5994 21.1239L31.5838 20.9481C31.5431 20.7201 31.5022 20.5074 31.4611 20.31L30.4821 20.514ZM30.5999 21.127C30.6391 21.3383 30.6742 21.5453 30.7054 21.748L31.6938 21.596C31.661 21.3827 31.6241 21.1657 31.5832 20.945L30.5999 21.127ZM30.7093 21.7701C30.7475 21.9611 30.7727 22.118 30.7866 22.2432L31.7805 22.1328C31.7624 21.97 31.7317 21.7829 31.6899 21.5739L30.7093 21.7701ZM31.7797 22.25C31.8028 22.0653 31.8339 21.8514 31.8732 21.6076L30.886 21.4484C30.8453 21.7006 30.8124 21.9267 30.7874 22.126L31.7797 22.25ZM31.8705 21.623C31.9187 21.374 31.9668 21.1211 32.015 20.8641L31.0321 20.6799C30.9843 20.9349 30.9365 21.186 30.8887 21.433L31.8705 21.623ZM32.015 20.8641C32.0623 20.6118 32.1095 20.376 32.1565 20.1568L31.1787 19.9472C31.1297 20.176 31.0808 20.4202 31.0321 20.6799L32.015 20.8641ZM32.1565 20.1568C32.2032 19.9385 32.2443 19.7721 32.2793 19.6531L31.3199 19.3709C31.2749 19.5239 31.2279 19.7175 31.1787 19.9472L32.1565 20.1568ZM32.2846 19.6333L33.3046 15.5533L32.3345 15.3107L31.3145 19.3907L32.2846 19.6333ZM32.8196 15.932H34.7276V14.932H32.8196V15.932ZM34.2425 15.5533L35.2625 19.6333L36.2326 19.3907L35.2127 15.3107L34.2425 15.5533ZM35.2552 19.5989C35.2807 19.7435 35.3181 19.9301 35.3667 20.1568L36.3445 19.9472C36.297 19.7259 36.2625 19.5525 36.24 19.4251L35.2552 19.5989ZM35.3705 20.1733C35.4235 20.3852 35.4733 20.6185 35.5196 20.8734L36.5035 20.6946C36.4539 20.4215 36.3997 20.1668 36.3406 19.9307L35.3705 20.1733ZM35.5231 20.8908C35.5772 21.1382 35.6235 21.3811 35.662 21.6196L36.6492 21.4604C36.6077 21.2029 36.5579 20.9418 36.5 20.6772L35.5231 20.8908ZM35.662 21.6196C35.7014 21.8643 35.7326 22.0751 35.7558 22.2527L36.7474 22.1233C36.7225 21.933 36.6897 21.7117 36.6492 21.4604L35.662 21.6196ZM36.748 22.2476C36.7707 22.0585 36.8053 21.8273 36.8524 21.5525L35.8668 21.3835C35.8179 21.6687 35.7805 21.9175 35.7551 22.1284L36.748 22.2476ZM36.8504 21.5634C36.9062 21.2763 36.962 20.9932 37.0179 20.7141L36.0373 20.5179C35.9811 20.7988 35.9249 21.0837 35.8688 21.3726L36.8504 21.5634ZM37.0184 20.7114C37.0738 20.4266 37.1198 20.2126 37.1567 20.0653L36.1865 19.8227C36.1433 19.9954 36.0934 20.2294 36.0368 20.5206L37.0184 20.7114ZM37.1593 20.0542L38.1793 15.5422L37.2039 15.3217L36.1839 19.8337L37.1593 20.0542ZM37.6916 15.932H39.6836V14.932H37.6916V15.932Z" fill="white" mask="url(#path-2-outside-1_246_9157)"/>
<mask id="path-4-outside-2_246_9157" maskUnits="userSpaceOnUse" x="10" y="25" width="31" height="11" fill="black">
<rect fill="white" x="10" y="25" width="31" height="11"/>
<path d="M15.019 35H10.855V33.836L11.911 33.392V28.04L10.855 27.596V26.432H15.019V27.596L13.963 28.04V33.392L15.019 33.836V35ZM19.94 35H17.9V28.124H15.68V26.432H22.16V28.124H19.94V35ZM28.4475 35H23.4435V26.432H28.4475V28.088H25.4835V29.732H28.2315V31.388H25.4835V33.32H28.4475V35ZM33.7718 35L31.8518 28.532H31.8038C31.8198 28.692 31.8358 28.924 31.8518 29.228C31.8678 29.524 31.8838 29.844 31.8998 30.188C31.9158 30.524 31.9238 30.84 31.9238 31.136V35H30.0998V26.432H32.8598L34.7678 32.768H34.8158L36.7838 26.432H39.5318V35H37.6358V31.088C37.6358 30.816 37.6398 30.516 37.6478 30.188C37.6638 29.852 37.6758 29.536 37.6838 29.24C37.6998 28.936 37.7118 28.704 37.7198 28.544H37.6718L35.6918 35H33.7718Z"/>
</mask>
<path d="M15.019 35H10.855V33.836L11.911 33.392V28.04L10.855 27.596V26.432H15.019V27.596L13.963 28.04V33.392L15.019 33.836V35ZM19.94 35H17.9V28.124H15.68V26.432H22.16V28.124H19.94V35ZM28.4475 35H23.4435V26.432H28.4475V28.088H25.4835V29.732H28.2315V31.388H25.4835V33.32H28.4475V35ZM33.7718 35L31.8518 28.532H31.8038C31.8198 28.692 31.8358 28.924 31.8518 29.228C31.8678 29.524 31.8838 29.844 31.8998 30.188C31.9158 30.524 31.9238 30.84 31.9238 31.136V35H30.0998V26.432H32.8598L34.7678 32.768H34.8158L36.7838 26.432H39.5318V35H37.6358V31.088C37.6358 30.816 37.6398 30.516 37.6478 30.188C37.6638 29.852 37.6758 29.536 37.6838 29.24C37.6998 28.936 37.7118 28.704 37.7198 28.544H37.6718L35.6918 35H33.7718Z" fill="#D64D00"/>
<path d="M15.019 35V35.5H15.519V35H15.019ZM10.855 35H10.355V35.5H10.855V35ZM10.855 33.836L10.6612 33.3751L10.355 33.5038V33.836H10.855ZM11.911 33.392L12.1048 33.8529L12.411 33.7242V33.392H11.911ZM11.911 28.04H12.411V27.7078L12.1048 27.5791L11.911 28.04ZM10.855 27.596H10.355V27.9282L10.6612 28.0569L10.855 27.596ZM10.855 26.432V25.932H10.355V26.432H10.855ZM15.019 26.432H15.519V25.932H15.019V26.432ZM15.019 27.596L15.2128 28.0569L15.519 27.9282V27.596H15.019ZM13.963 28.04L13.7692 27.5791L13.463 27.7078V28.04H13.963ZM13.963 33.392H13.463V33.7242L13.7692 33.8529L13.963 33.392ZM15.019 33.836H15.519V33.5038L15.2128 33.3751L15.019 33.836ZM15.019 34.5H10.855V35.5H15.019V34.5ZM11.355 35V33.836H10.355V35H11.355ZM11.0488 34.2969L12.1048 33.8529L11.7172 32.9311L10.6612 33.3751L11.0488 34.2969ZM12.411 33.392V28.04H11.411V33.392H12.411ZM12.1048 27.5791L11.0488 27.1351L10.6612 28.0569L11.7172 28.5009L12.1048 27.5791ZM11.355 27.596V26.432H10.355V27.596H11.355ZM10.855 26.932H15.019V25.932H10.855V26.932ZM14.519 26.432V27.596H15.519V26.432H14.519ZM14.8252 27.1351L13.7692 27.5791L14.1568 28.5009L15.2128 28.0569L14.8252 27.1351ZM13.463 28.04V33.392H14.463V28.04H13.463ZM13.7692 33.8529L14.8252 34.2969L15.2128 33.3751L14.1568 32.9311L13.7692 33.8529ZM14.519 33.836V35H15.519V33.836H14.519ZM19.94 35V35.5H20.44V35H19.94ZM17.9 35H17.4V35.5H17.9V35ZM17.9 28.124H18.4V27.624H17.9V28.124ZM15.68 28.124H15.18V28.624H15.68V28.124ZM15.68 26.432V25.932H15.18V26.432H15.68ZM22.16 26.432H22.66V25.932H22.16V26.432ZM22.16 28.124V28.624H22.66V28.124H22.16ZM19.94 28.124V27.624H19.44V28.124H19.94ZM19.94 34.5H17.9V35.5H19.94V34.5ZM18.4 35V28.124H17.4V35H18.4ZM17.9 27.624H15.68V28.624H17.9V27.624ZM16.18 28.124V26.432H15.18V28.124H16.18ZM15.68 26.932H22.16V25.932H15.68V26.932ZM21.66 26.432V28.124H22.66V26.432H21.66ZM22.16 27.624H19.94V28.624H22.16V27.624ZM19.44 28.124V35H20.44V28.124H19.44ZM28.4475 35V35.5H28.9475V35H28.4475ZM23.4435 35H22.9435V35.5H23.4435V35ZM23.4435 26.432V25.932H22.9435V26.432H23.4435ZM28.4475 26.432H28.9475V25.932H28.4475V26.432ZM28.4475 28.088V28.588H28.9475V28.088H28.4475ZM25.4835 28.088V27.588H24.9835V28.088H25.4835ZM25.4835 29.732H24.9835V30.232H25.4835V29.732ZM28.2315 29.732H28.7315V29.232H28.2315V29.732ZM28.2315 31.388V31.888H28.7315V31.388H28.2315ZM25.4835 31.388V30.888H24.9835V31.388H25.4835ZM25.4835 33.32H24.9835V33.82H25.4835V33.32ZM28.4475 33.32H28.9475V32.82H28.4475V33.32ZM28.4475 34.5H23.4435V35.5H28.4475V34.5ZM23.9435 35V26.432H22.9435V35H23.9435ZM23.4435 26.932H28.4475V25.932H23.4435V26.932ZM27.9475 26.432V28.088H28.9475V26.432H27.9475ZM28.4475 27.588H25.4835V28.588H28.4475V27.588ZM24.9835 28.088V29.732H25.9835V28.088H24.9835ZM25.4835 30.232H28.2315V29.232H25.4835V30.232ZM27.7315 29.732V31.388H28.7315V29.732H27.7315ZM28.2315 30.888H25.4835V31.888H28.2315V30.888ZM24.9835 31.388V33.32H25.9835V31.388H24.9835ZM25.4835 33.82H28.4475V32.82H25.4835V33.82ZM27.9475 33.32V35H28.9475V33.32H27.9475ZM33.7718 35L33.2925 35.1423L33.3987 35.5H33.7718V35ZM31.8518 28.532L32.3311 28.3897L32.2249 28.032H31.8518V28.532ZM31.8038 28.532V28.032H31.2513L31.3063 28.5818L31.8038 28.532ZM31.8518 29.228L31.3525 29.2543L31.3525 29.255L31.8518 29.228ZM31.8998 30.188L31.4003 30.2112L31.4004 30.2118L31.8998 30.188ZM31.9238 35V35.5H32.4238V35H31.9238ZM30.0998 35H29.5998V35.5H30.0998V35ZM30.0998 26.432V25.932H29.5998V26.432H30.0998ZM32.8598 26.432L33.3386 26.2878L33.2314 25.932H32.8598V26.432ZM34.7678 32.768L34.289 32.9122L34.3962 33.268H34.7678V32.768ZM34.8158 32.768V33.268H35.1841L35.2933 32.9163L34.8158 32.768ZM36.7838 26.432V25.932H36.4155L36.3063 26.2837L36.7838 26.432ZM39.5318 26.432H40.0318V25.932H39.5318V26.432ZM39.5318 35V35.5H40.0318V35H39.5318ZM37.6358 35H37.1358V35.5H37.6358V35ZM37.6478 30.188L37.1482 30.1642L37.1479 30.1758L37.6478 30.188ZM37.6838 29.24L37.1843 29.2137L37.184 29.2265L37.6838 29.24ZM37.7198 28.544L38.2192 28.569L38.2454 28.044H37.7198V28.544ZM37.6718 28.544V28.044H37.3022L37.1938 28.3974L37.6718 28.544ZM35.6918 35V35.5H36.0614L36.1698 35.1466L35.6918 35ZM34.2511 34.8577L32.3311 28.3897L31.3725 28.6743L33.2925 35.1423L34.2511 34.8577ZM31.8518 28.032H31.8038V29.032H31.8518V28.032ZM31.3063 28.5818C31.3211 28.7299 31.3366 28.9525 31.3525 29.2543L32.3511 29.2017C32.335 28.8955 32.3185 28.6541 32.3013 28.4822L31.3063 28.5818ZM31.3525 29.255C31.3684 29.5496 31.3844 29.8683 31.4003 30.2112L32.3993 30.1648C32.3832 29.8197 32.3671 29.4984 32.3511 29.201L31.3525 29.255ZM31.4004 30.2118C31.416 30.5409 31.4238 30.8489 31.4238 31.136H32.4238C32.4238 30.8311 32.4156 30.5071 32.3992 30.1642L31.4004 30.2118ZM31.4238 31.136V35H32.4238V31.136H31.4238ZM31.9238 34.5H30.0998V35.5H31.9238V34.5ZM30.5998 35V26.432H29.5998V35H30.5998ZM30.0998 26.932H32.8598V25.932H30.0998V26.932ZM32.381 26.5762L34.289 32.9122L35.2466 32.6238L33.3386 26.2878L32.381 26.5762ZM34.7678 33.268H34.8158V32.268H34.7678V33.268ZM35.2933 32.9163L37.2613 26.5803L36.3063 26.2837L34.3383 32.6197L35.2933 32.9163ZM36.7838 26.932H39.5318V25.932H36.7838V26.932ZM39.0318 26.432V35H40.0318V26.432H39.0318ZM39.5318 34.5H37.6358V35.5H39.5318V34.5ZM38.1358 35V31.088H37.1358V35H38.1358ZM38.1358 31.088C38.1358 30.8208 38.1397 30.5249 38.1476 30.2002L37.1479 30.1758C37.1399 30.5071 37.1358 30.8112 37.1358 31.088H38.1358ZM38.1472 30.2118C38.1634 29.8728 38.1755 29.5534 38.1836 29.2535L37.184 29.2265C37.1761 29.5186 37.1642 29.8312 37.1484 30.1642L38.1472 30.2118ZM38.1831 29.2663C38.1991 28.9622 38.2111 28.7296 38.2192 28.569L37.2204 28.519C37.2125 28.6784 37.2005 28.9098 37.1845 29.2137L38.1831 29.2663ZM37.7198 28.044H37.6718V29.044H37.7198V28.044ZM37.1938 28.3974L35.2138 34.8534L36.1698 35.1466L38.1498 28.6906L37.1938 28.3974ZM35.6918 34.5H33.7718V35.5H35.6918V34.5Z" fill="white" mask="url(#path-4-outside-2_246_9157)"/>
</svg>
